<svg xmlns="http://www.w3.org/2000/svg" xmlns:xlink="http://www.w3.org/1999/xlink" xml:space="preserve" style="enable-background:new 0 0 320 592" viewBox="0 0 320 592"><style>.st1{fill:#323550}.st2{fill:#dab279}.st3,.st4{fill:none;stroke:#dab279;stroke-miterlimit:10}.st4{fill:#dab279;stroke-width:.5}.st5,.st6,.st7{fill:none;stroke:#323550;stroke-miterlimit:10}.st6,.st7{fill:#323550;stroke-width:.5}.st7{stroke-width:.25}.st8{fill-rule:evenodd;clip-rule:evenodd;fill:#dab279}.st12{stroke:#323550;stroke-width:2;stroke-miterlimit:10}.st12,.st13{fill:none}.st14{font-family:&quot;MyriadPro-Regular&quot;}.st15{font-size:6.5288px}.st16{font-family:&quot;Lato-Bold&quot;}.st17{font-size:2.9017px}.st18{font-family:&quot;ArialMT&quot;}.st19{font-size:4.3525px}.st20{font-size:3.6271px}.st21{font-size:3.3533px}</style><g id="shi-mobile"><path d="M298.27 344.36H18.05c-6.77 0-12.25 5.68-12.25 12.69v179.3c0 7.01 5.49 12.69 12.25 12.69h118.6l-3.37 32.61h-17.42c-2.78 0-5.03 2.33-5.03 5.21v4.99h94.66v-4.99c0-2.88-2.25-5.21-5.03-5.21h-17.42l-3.37-32.61h118.6c6.77 0 12.25-5.68 12.25-12.69v-179.3c0-7-5.48-12.69-12.25-12.69zm-2.95 171.05c0 2.71-2.12 4.9-4.74 4.9H25.73c-2.62 0-4.74-2.2-4.74-4.9V363.27c0-2.71 2.12-4.9 4.74-4.9h264.85c2.62 0 4.74 2.2 4.74 4.9v152.14z" class="st12"/><path d="M47.24 370.21h125.04v142.51H47.24z" class="st13"/><text transform="matrix(.9655 0 0 1 47.24 374.84)"><tspan x="0" y="0" class="st2 st14 st15">.section {</tspan><tspan x="0" y="7.83" class="st2 st14 st15">    overflow: auto;</tspan><tspan x="0" y="15.67" class="st2 st14 st15">    position: relative;</tspan><tspan x="0" y="23.5" class="st2 st14 st15">}</tspan><tspan x="0" y="39.17" class="st2 st14 st15">//  2.0    Section Green</tspan><tspan x="0" y="47.01" class="st2 st14 st15">.section--green {</tspan><tspan x="0" y="54.84" class="st2 st14 st15">    background-color: $color-primary;</tspan><tspan x="0" y="62.68" class="st2 st14 st15">}</tspan><tspan x="0" y="78.35" class="st2 st14 st15">//  3.0    Section Red</tspan><tspan x="0" y="86.18" class="st2 st14 st15">.section--red {</tspan><tspan x="0" y="94.01" class="st2 st14 st15">    background-color: $color-secondary;</tspan><tspan x="0" y="101.85" class="st2 st14 st15">}</tspan><tspan x="0" y="117.52" class="st2 st14 st15">//  4.0    Section Image</tspan><tspan x="0" y="125.35" class="st2 st14 st15">.section--image {</tspan><tspan x="0" y="133.19" class="st2 st14 st15">    background-position: center;</tspan></text><path d="M32.64 370.21h13.69v139.91H32.64z" class="st13"/><text transform="matrix(.9655 0 0 1 32.636 374.84)"><tspan x="0" y="0" class="st1 st14 st15">9</tspan><tspan x="0" y="7.83" class="st1 st14 st15">10</tspan><tspan x="0" y="15.67" class="st1 st14 st15">11</tspan><tspan x="0" y="23.5" class="st1 st14 st15">12</tspan><tspan x="0" y="31.34" class="st1 st14 st15">13</tspan><tspan x="0" y="39.17" class="st1 st14 st15">14</tspan><tspan x="0" y="47.01" class="st1 st14 st15">15</tspan><tspan x="0" y="54.84" class="st1 st14 st15">16</tspan><tspan x="0" y="62.68" class="st1 st14 st15">17</tspan><tspan x="0" y="70.51" class="st1 st14 st15">18</tspan><tspan x="0" y="78.35" class="st1 st14 st15">19</tspan><tspan x="0" y="86.18" class="st1 st14 st15">20</tspan><tspan x="0" y="94.01" class="st1 st14 st15">21</tspan><tspan x="0" y="101.85" class="st1 st14 st15">22</tspan><tspan x="0" y="109.68" class="st1 st14 st15">23</tspan><tspan x="0" y="117.52" class="st1 st14 st15">24</tspan><tspan x="0" y="125.35" class="st1 st14 st15">25</tspan><tspan x="0" y="133.19" class="st1 st14 st15">26</tspan></text><path d="M180.82.13h-45.46c-7.43 0-13.45 6.24-13.45 13.94v104.3c0 7.7 6.02 13.94 13.45 13.94h45.46c7.43 0 13.45-6.24 13.45-13.94V14.07c0-7.7-6.02-13.94-13.45-13.94zm11.65 118.04c0 6.4-5.01 11.59-11.19 11.59H134.9c-6.18 0-11.19-5.19-11.19-11.59V13.5c0-6.4 5.01-11.59 11.19-11.59h46.38c6.18 0 11.19 5.19 11.19 11.59v104.67z" class="st1"/><path d="M126.77 13.14v105.38h62.63V13.14h-62.63zM188 116.62h-59.84V15.05H188v101.57z" class="st1"/><path d="M167.53 25.89c-.23.41-.43.75-.62 1.09-.09.16-.21.29-.39.26-.16-.03-.21-.2-.26-.34-.11-.29-.15-.62-.41-.99-.07.52-.14.93-.16 1.33-.02.28-.15.3-.36.3-.3-.01-.2-.21-.18-.37.07-.67.15-1.34.24-2.01.03-.2-.03-.46.34-.47.32 0 .41.16.49.42.13.42.26.84.44 1.4.3-.53.55-.98.8-1.42.1-.18.16-.38.43-.39.29-.01.44.02.38.4-.11.7-.18 1.41-.25 2.12-.02.26-.14.32-.36.31-.29-.01-.19-.21-.19-.37.01-.38.17-.77.06-1.27zM149.86 26.51c.31-.55.59-1 .82-1.48.15-.31.37-.37.64-.31.36.09.13.39.12.57-.04.61-.13 1.22-.21 1.84-.03.2-.02.43-.33.41-.38-.02-.21-.29-.2-.46.02-.38.08-.75.03-1.17-.19.34-.39.67-.58 1.01-.1.17-.2.35-.41.32-.19-.03-.24-.21-.29-.38-.1-.33-.22-.65-.4-.98-.05.44-.11.87-.14 1.31-.02.22-.08.35-.33.35-.34 0-.23-.23-.21-.4.07-.69.16-1.38.23-2.06.02-.2.05-.38.32-.37.21.01.39-.01.47.28.11.48.28.95.47 1.52zM163.47 27.05c.25 0 .47-.01.69 0 .13.01.31-.07.3.2-.01.23-.11.31-.31.28h-.11c-1.26.03-1.26.03-1.08-1.27.04-.29.11-.58.09-.86-.03-.64.28-.78.81-.7.2.03.41 0 .61.01.14 0 .32-.04.28.22-.02.18-.1.27-.29.26-.17-.01-.34.01-.5 0-.27-.03-.28.15-.31.36-.03.27.08.32.31.33.14 0 .4-.14.39.22-.01.31-.21.28-.39.25-.57-.1-.4.36-.49.7zM161.54 24.71h.72c.12 0 .28-.04.26.19-.02.17-.05.33-.25.29-.49-.11-.52.21-.56.58-.04.48-.14.95-.16 1.43-.02.36-.22.33-.45.33-.3-.01-.18-.22-.16-.37.05-.46.09-.92.15-1.38.05-.35.12-.7-.43-.59-.13.03-.21-.05-.17-.2.03-.13.01-.28.21-.27.28 0 .56-.01.84-.01zM157.17 23.46c-1.4-.01-2.57 1.19-2.57 2.64 0 1.49 1.16 2.7 2.58 2.69 1.39-.01 2.54-1.21 2.55-2.67.02-1.42-1.17-2.65-2.56-2.66zm.86 2.79-1.11 1.83c-.03-.01-.05-.03-.08-.04l.31-1.44h-1.25l1.63-2.44c.03.01.05.03.08.04-.08.31-.12.64-.24.93-.16.39-.01.44.33.45.71.01.71.03.33.67zM147.7 27.15c-.15-.69-.31-1.38-.46-2.08-.04-.2-.06-.38-.32-.37-.23.01-.41 0-.53.28-.35.82-.74 1.63-1.15 2.51.37.05.65.1.77-.32.12-.44.49-.22.75-.27.28-.05.34.12.37.37.03.32.28.25.47.24.33 0 .13-.23.1-.36zm-1.38-.7c.14-.36.26-.7.41-1.11.2.39.15.75.25 1.08-.2.09-.4.06-.66.03zM170.56 24.84c-.45-.22-.94-.14-1.42-.08-.04.01-.09.16-.1.25-.09.72-.17 1.45-.25 2.17 0 .16-.09.35.2.36.23 0 .41-.01.4-.31-.01-.47.17-.67.67-.69.42-.01.75-.32.83-.8.08-.37.02-.73-.33-.9zm-.78 1.27c-.31.01-.18-.21-.2-.37.08-.2-.11-.58.34-.56.3.01.38.19.37.46-.02.33-.21.46-.51.47zM152.87 24.71c-.48-.15-.65.12-.67.68-.02.61-.12 1.23-.21 1.83-.04.24.03.29.24.31.32.03.37-.13.38-.4 0-.36.09-.59.54-.58.4.01.75-.21.91-.64.27-.76-.13-1.19-1.19-1.2zm.11 1.4c-.27 0-.23-.17-.19-.38.09-.17-.15-.6.36-.55.29.03.36.21.34.47-.02.33-.21.45-.51.46z" class="st2"/><path d="M133.56 39.59h34.38v2.52h-34.38z" class="st13"/><text class="st2 st16 st17" transform="matrix(.9655 0 0 1 133.561 41.75)">About</text><path d="M133.56 48.04h34.38v2.52h-34.38z" class="st13"/><text class="st2 st16 st17" transform="matrix(.9655 0 0 1 133.561 50.2)">Documentation</text><path d="M133.56 56.59h34.38v2.52h-34.38z" class="st13"/><text class="st2 st16 st17" transform="matrix(.9655 0 0 1 133.561 58.75)">Community</text><path d="M133.56 65.16h34.38v2.52h-34.38z" class="st13"/><text class="st2 st16 st17" transform="matrix(.9655 0 0 1 133.561 67.318)">Events</text><path d="M185.21 62.36c-4.95 0-5 .01-9.95-.01-.67 0-1.13.41-1.64.71-3.26 1.94-6.5 3.9-9.76 5.86-1 .6-2.01 1.2-3.01 1.8-.23.14-.47.13-.72.13h-29.24v-8.5c.19-.19.42-.18.66-.18h2.42c8.57 0 17.13 0 25.7.01.63 0 1.17-.16 1.71-.48 4.21-2.54 8.44-5.06 12.65-7.59.48-.29.98-.44 1.54-.44 4.58.01 4.25 0 8.83.01.3 0 .63-.09.87.21.02 2.73 0 5.46.01 8.19-.01.1.01.21-.07.28z" class="st3"/><path d="M185.21 53.71c-4.98 0-5.06 0-10.04-.01-.61 0-1.04.4-1.51.68-2.89 1.72-5.77 3.46-8.65 5.19-1.39.83-2.78 1.66-4.17 2.5-.23.14-.47.12-.72.12h-29.23v-8.5c.19-.19.42-.18.66-.18h2.33c8.6 0 17.19 0 25.79.01.63 0 1.17-.16 1.71-.48 4.21-2.54 8.44-5.06 12.65-7.59.48-.29.98-.44 1.54-.44 4.58.01 4.25 0 8.83.01.3 0 .63-.09.87.21.02 2.73 0 5.46.01 8.19-.01.11.01.21-.07.29z" class="st3"/><path d="M185.21 45.05c-4.67 0-4.44.02-9.11-.02-.91-.01-1.68.21-2.45.68-3.25 1.99-6.52 3.94-9.78 5.9-1 .6-2.01 1.2-3.01 1.8-.23.14-.47.13-.72.13H130.9v-8.5c.22-.21.49-.17.75-.17h6.01c7.28 0 14.56-.01 21.83.01.76 0 1.41-.19 2.06-.58 4.1-2.48 8.22-4.93 12.33-7.39.31-.18.63-.35.96-.49.24-.07.49-.05.74-.05h8.82c.29 0 .6-.06.85.17.06.1.04.22.04.33v7.83c-.02.11.02.25-.08.35z" class="st3"/><path d="M130.89 36.56h43.26c.2 0 .4.01.6.02-1.96 1.17-3.92 2.34-5.88 3.52-2.08 1.25-4.15 2.5-6.23 3.75-.61.37-1.23.73-1.84 1.11-.22.13-.45.1-.68.1h-29.24c.01-2.84.01-5.67.01-8.5z" class="st3"/><path d="m181.49 40.48-1.56 1.41-1.55-1.41.15-.19 1.4 1.27 1.41-1.27zM181.49 49l-1.56 1.41-1.55-1.41.15-.18 1.4 1.26 1.41-1.26zM181.49 57.53l-1.56 1.4-1.55-1.4.15-.19 1.4 1.26 1.41-1.26zM181.49 66.05l-1.56 1.41-1.55-1.41.15-.19 1.4 1.27 1.41-1.27z" class="st4"/><path d="M168.37 108.18H144.3l3.5-8.87h24.07z" class="st3"/><path d="M156.51 102.25h7.53v2.52h-7.53z" class="st13"/><text class="st2 st16 st17" transform="matrix(.9655 0 0 1 156.509 104.403)">BLO</text><path d="m153.47 104.62-.57.1.07-.54 1.33-1.62.5.44z" class="st2"/><path d="M154.76 103.53v.95c0 .27-.21.49-.47.49h-1.36a.48.48 0 0 1-.47-.49v-1.41c0-.27.21-.49.47-.49h.94l.28-.34h-1.39c-.35 0-.64.3-.64.66v1.75c0 .36.29.66.64.66h1.69c.35 0 .64-.3.64-.66v-1.52l-.33.4z" class="st2"/><path d="m154.9 102.91.23-.29-.5-.44-.24.29z" class="st2"/><text class="st2 st16 st17" transform="matrix(.9655 0 0 1 143.078 96.422)">Checkout our AMP Blog</text><path d="M.35 312.12c1.46 6.84 8.41 12.36 15.16 12.36h293.42c6.76 0 10.07-5.52 10.72-12.36H.35zM286.35 308.47c.07-.85.11-1.71.11-2.59V151.53c0-7.99-2.67-8.63-10.28-8.63H47.95c-7.6 0-14.41.65-14.41 8.63v154.36c0 .88.1 1.74.25 2.59h252.56zM41.84 153.49h235.09v147.04H41.84V153.49z" class="st12"/><path d="M64.75 164.7h115.23v11.72H64.75z" class="st5"/><path d="M68.02 167.73h5.48v5.67h-5.48z" class="st5"/><path d="m68.72 173.36-.17-.16 4.32-5.19.17.15z" class="st6"/><path d="M77.75 167.73h5.48v5.67h-5.48z" class="st5"/><text class="st1 st18 st19" transform="matrix(.9655 0 0 1 134.674 171.724)">Opacity</text><text class="st1 st18 st19" transform="matrix(.9655 0 0 1 88.896 171.724)">Stroke</text><path d="M102.93 167.73h25.6v5.67h-25.6z" class="st5"/><text class="st1 st18 st20" transform="matrix(.9655 0 0 1 111.007 171.53)">1px</text><path d="m107.42 170-1.57-1.4-1.55 1.4.16.19 1.4-1.26 1.4 1.26zM107.42 171.12l-1.57 1.41-1.55-1.41.16-.19 1.4 1.27 1.4-1.27zM126.51 169.95l-1.57 1.41-1.55-1.41.16-.18 1.4 1.26 1.4-1.26zM108.86 167.88h.51v5.36h-.51zM121.11 167.88h.51v5.36h-.51z" class="st7"/><path d="M150.83 167.73h25.6v5.67h-25.6z" class="st5"/><text class="st1 st18 st20" transform="matrix(.9655 0 0 1 152.164 171.53)">100%</text><path d="m174.41 169.95-1.56 1.41-1.56-1.41.16-.18 1.4 1.26 1.4-1.26zM169.01 167.88h.51v5.36h-.51z" class="st7"/><text class="st2 st16 st21" transform="matrix(.9655 0 0 1 207.85 205.135)">Complete Registration</text><text class="st2 st16 st21" transform="matrix(.9655 0 0 1 178.236 205.135)">Register Now</text><text class="st2 st16 st21" transform="matrix(.9655 0 0 1 249.924 205.135)">Help</text><path d="M160.96 202.42c-.27.28-.59.42-.97.42s-.7-.14-.97-.42c-.27-.28-.4-.61-.4-1.01 0-.39.13-.73.4-1 .27-.28.59-.42.97-.42s.71.14.97.42c.27.28.4.61.4 1 0 .4-.13.73-.4 1.01zm-1.81-1.87c-.23.24-.34.53-.34.87 0 .34.11.63.34.87.23.24.51.36.84.36.33 0 .61-.12.84-.36.23-.24.34-.53.34-.87 0-.34-.11-.63-.34-.87a1.12 1.12 0 0 0-.84-.36c-.33 0-.61.12-.84.36zm.81.08c.19 0 .32.02.41.06.16.07.23.2.23.4 0 .14-.05.24-.15.31-.05.03-.12.06-.22.08.12.02.2.07.26.15.05.08.08.16.08.24V202.1c0 .04.01.07.01.08l.01.02h-.25v-.04l-.01-.05v-.12c0-.18-.05-.3-.14-.36a.674.674 0 0 0-.3-.05h-.21v.61h-.27v-1.56h.55zm.29.24c-.07-.04-.17-.06-.32-.06h-.23v.57h.24c.11 0 .2-.01.25-.03.1-.04.16-.12.16-.24s-.04-.2-.1-.24zM128.91 200.77h.32v.53h-.32v-.53zM128.91 201.84h.32v.53h-.32v-.53zM128.91 202.91h.32v.53h-.32v-.53zM128.91 203.98h.32v.53h-.32v-.53zM128.91 205.05h.32v.53h-.32v-.53zM128.91 206.12h.32v.53h-.32v-.53zM128.91 207.19h.32v.53h-.32v-.53zM127.85 202.57c.05.01.1.03.15.05.19.08.37.18.53.31v3.42c-.56.44-1.32.59-2.02.3-.63-.25-1.08-.79-1.25-1.41 1.04.1 2.06-.52 2.45-1.58.12-.36.17-.73.14-1.09z" class="st2"/><path d="M125.25 200.65c.32-.03.64.01.96.13 1.07.43 1.6 1.67 1.19 2.78-.41 1.11-1.61 1.66-2.68 1.24-.26-.1-.49-.25-.68-.44.64-.23 1.18-.74 1.44-1.45.29-.79.18-1.62-.23-2.26z" class="st2"/><path d="M121.3 201.25c.41-1.11 1.61-1.66 2.68-1.24 1.07.43 1.6 1.67 1.19 2.78-.41 1.11-1.61 1.66-2.68 1.24-1.06-.43-1.6-1.67-1.19-2.78z" class="st2"/><path d="M133.08 201.81c-.37-.14-.78-.18-1.23-.11-.46.06-.83.27-1.12.61-.18.21-.31.47-.39.78a3.724 3.724 0 0 0 .02 2.03c.1.35.27.63.5.84.22.21.52.35.89.44.37.09.74.08 1.11-.03.41-.09.75-.33 1.02-.71.12-.18.22-.41.3-.67.08-.26.12-.58.12-.95 0-.51-.09-.95-.28-1.33-.2-.43-.51-.73-.94-.9zm-.13 3.24c-.13.21-.29.34-.46.39-.17.05-.34.05-.51-.02a.736.736 0 0 1-.35-.23c-.17-.21-.26-.57-.28-1.1-.02-.52.08-.92.32-1.18.08-.08.2-.15.37-.2.17-.05.33-.05.5.01.17.06.31.19.44.4.13.21.19.52.19.93-.01.46-.09.79-.22 1zM137.75 202.06c-.41-.26-.87-.4-1.36-.4-.48.02-.96.17-1.36.43-.39.26-.64.79-.64 1.57v2.94h1.49v-3.18c0-.28-.04-.48.12-.6.16-.13.28-.19.48-.19.2 0 .44.06.6.19.16.13.3.33.3.6v2.35c0 .17-.04.43.07.54.11.11.15.29.32.29h.61v-2.94c0-.8-.22-1.33-.63-1.6zM140.44 201.67c-.63 0-1.13.21-1.48.64-.34.41-.52.99-.52 1.73 0 .77.18 1.36.53 1.78.36.43.85.64 1.48.64.52 0 .96-.21 1.3-.47.34-.25.58-.66.7-1.18h-.83c-.13 0-.24.1-.31.16a.44.44 0 0 0-.12.17c-.03.03-.06.08-.09.11s-.06.06-.09.07c-.13.08-.29.13-.48.13-.29 0-.51-.14-.65-.32-.16-.17-.24-.32-.25-.84h2.88c.01 0 .11.03.11-.03v-.19c0-.76-.22-1.35-.58-1.78-.37-.42-.94-.62-1.6-.62zm-.82 2.1c.01-.52.09-.61.25-.77.16-.16.36-.28.6-.28.27 0 .47.14.62.3.13.15.21.24.23.75h-1.7zM152.98 202.13c-.3-.21-.82-.32-1.42-.32-.54 0-.99.1-1.28.36-.26.22-.44.57-.48.83h1.09c.05-.26.14-.18.26-.22.12-.05.25-.05.41-.05.14 0 .29.03.46.08.17.05.25.16.25.33 0 .22-.24.37-.71.44-.1.01-.18.03-.26.04-.08.02-.14.03-.2.03-.41.07-.75.2-1.02.4s-.4.54-.4 1.01c0 .5.15.87.44 1.08.29.22.63.33 1.02.33.19 0 .42-.01.67-.04.25-.03.49-.1.72-.23.22-.11.52-.29.68-.55.16-.25.35-.6.35-1.05v-1.53c.01-.4-.27-.72-.58-.94zm-.66 2.42c0 .31-.11.56-.28.74-.17.18-.42.27-.73.27-.18 0-.33-.04-.43-.13-.1-.1-.15-.24-.15-.4 0-.12.04-.25.11-.37.09-.09.23-.16.42-.22l.4-.08c.27-.07.41-.14.66-.22v.41zM157.12 202.22c-.28 0-.46-.02-.52.25l-.76 2.84-.88-3.09h-1.25l1.51 4.31c.08.24.05.37-.07.48-.12.11-.29.12-.51.12h-.32v.85s.08.08.13.08c.05.01.1.1.13.1h.22c.44 0 .76-.14.96-.28.19-.16.36-.3.49-.67l1.66-4.98h-.79zM148.09 204.75c0 .27-.11.46-.27.59-.15.12-.34.19-.54.19s-.33-.06-.49-.19c-.16-.12-.2-.32-.2-.59v-2.79h-1.25v2.79c0 .27-.06.46-.22.59-.16.12-.33.19-.52.19a.76.76 0 0 1-.52-.19c-.16-.12-.23-.32-.23-.59v-2.29c0-.17-.05-.27-.16-.37-.1-.11-.24-.12-.4-.12h-.44v2.55c0 .78.14 1.31.54 1.56.4.26.81.39 1.28.39.24-.01.45-.05.67-.11.22-.06.41-.17.57-.31.2.17.41.28.65.34.24.06.48.08.73.08.46-.02.86-.16 1.24-.42s.54-.77.54-1.53v-2.55h-1v2.78z" class="st8"/><path d="M185.12 279.35c0 .57-.45 1.03-1 1.03h-62.26c-.55 0-1-.46-1-1.03v-59.07c0-.57.45-1.03 1-1.03h62.26c.55 0 1 .46 1 1.03v59.07z" class="st3"/><path d="M162.86 247.19c0 .38-.47.69-.95.69h-35.54c-.48 0-.86-.31-.86-.69v-3.53c0-.38.39-.69.86-.69h35.54c.48 0 .95.31.95.69v3.53z" class="st2"/><text class="st2 st16 st21" transform="matrix(.9655 0 0 1 125.507 241.602)">Phone Number</text><text class="st2 st16 st21" transform="matrix(.9655 0 0 1 130.792 267.397)">Remember me</text><path d="M129.66 266.97c0 .43-.33.77-.75.77h-1.49c-.41 0-.75-.35-.75-.77v-1.29c0-.43.33-.77.75-.77h1.49c.41 0 .75.35.75.77v1.29zM162.86 259.83c0 .38-.47.69-.95.69h-35.54c-.48 0-.86-.31-.86-.69v-3.53c0-.38.39-.69.86-.69h35.54c.48 0 .95.31.95.69v3.53z" class="st2"/><text class="st2 st16 st21" transform="matrix(.9655 0 0 1 125.467 254.199)">Password</text><path d="M130.39 227.16h-.42v-1.24c-.01-.87-.75-1.58-1.68-1.58-.92 0-1.67.71-1.68 1.58v1.24h-.47c-.1 0-.19.08-.19.18v2.47c0 .1.08.18.19.18h4.24c.1 0 .19-.08.19-.18v-2.47c.01-.1-.08-.18-.18-.18zm-3.12-1.24s0 .01 0 0c0-.53.46-.96 1.03-.96.56 0 1.02.43 1.02.96v1.24h-2.05v-1.24zm1.27 3.08h-.7l.23-.62c-.14-.05-.25-.18-.25-.33 0-.19.17-.35.37-.35.21 0 .37.16.37.35 0 .15-.1.28-.25.33l.23.62z" class="st2"/><text class="st2 st16" style="font-size:5.7838px" transform="matrix(.9655 0 0 1 132.833 229.912)">Login</text><path d="M179.54 272.89c0 1.46-1.14 2.65-2.56 2.65h-13.97c-1.41 0-2.56-1.19-2.56-2.65v-3.65c0-1.46 1.14-2.65 2.56-2.65h13.97c1.41 0 2.56 1.19 2.56 2.65v3.65z" class="st3"/><path d="M165.32 269.92h.47v1.89h1.11v.41h-1.58v-2.3zM168.92 272.02c-.17.18-.41.27-.73.27s-.56-.09-.73-.27c-.23-.22-.34-.54-.34-.95 0-.42.11-.74.34-.95.17-.18.41-.27.73-.27s.56.09.73.27c.22.21.34.53.34.95 0 .41-.11.73-.34.95zm-.29-.35c.11-.14.16-.34.16-.6 0-.26-.05-.46-.16-.6a.523.523 0 0 0-.44-.21c-.18 0-.33.07-.44.21-.11.14-.16.34-.16.6s.05.46.16.6c.11.14.26.21.44.21.19 0 .33-.07.44-.21zM171.11 270.64c-.04-.16-.12-.27-.26-.33a.696.696 0 0 0-.25-.05c-.18 0-.33.07-.44.21-.12.14-.17.35-.17.63s.06.48.19.6c.12.12.27.18.43.18.16 0 .28-.05.38-.14.1-.09.16-.21.18-.36h-.51V271h.93v1.24h-.31l-.05-.29a.99.99 0 0 1-.24.23c-.12.08-.27.12-.45.12-.29 0-.54-.11-.72-.32-.2-.21-.29-.5-.29-.87s.1-.67.3-.9c.2-.22.46-.34.79-.34.28 0 .51.07.68.22.17.15.27.33.29.56h-.48zM172.44 272.22h-.46v-2.3h.46v2.3zM172.87 269.92h.49l.88 1.61v-1.61h.43v2.3h-.46l-.91-1.63v1.63h-.43v-2.3zM121 235.33v-.52h64.35v.52z" class="st2"/><path d="M265.49 188.68v-.82H111.82v102.02h153.67v-1.08H112.62V188.68z" class="st1"/><path d="M198.92 280.97c-2.73 0-4.94-2.25-4.94-5.01v-52.05c0-2.77 2.21-5.01 4.94-5.01h65.88v-.18h-66.03c-2.75 0-4.98 2.26-4.98 5.05v52.45c0 2.79 2.23 5.05 4.98 5.05h66.03v-.31h-65.88z" class="st3"/><defs><path id="SVGID_00000139976282692528823590000008246120168051787953_" d="M265.15 218.57h-66.12c-2.75 0-4.98 2.26-4.98 5.05v52.45c0 2.79 2.23 5.05 4.98 5.05h66.12v-62.55z"/></defs><clipPath id="SVGID_00000067198886701594453800000015651298062355488420_"><use xlink:href="#SVGID_00000139976282692528823590000008246120168051787953_" style="overflow:visible"/></clipPath><g style="clip-path:url(#SVGID_00000067198886701594453800000015651298062355488420_)"><path d="M223.73 278.95c-136.68-2.1-165.22-83.74-165.22-83.74v.56s28.53 81.64 165.22 83.74c68.56 1.05 126.82-17.76 126.82-17.76v-.56s-58.27 18.82-126.82 17.76z" class="st2"/><path d="M223.46 266.07c-56.53-.43-92.3-13.54-116.28-27.91-35.92-21.54-49.21-55.83-49.21-55.83v2.52s26.68 82.06 166.03 84.3c68.56 1.1 126.55-23.08 126.55-23.08v-12.04c0-.01-53.54 32.6-127.09 32.04z" class="st2"/><path d="M222.13 268.19c-136.68-2.1-163.89-84.75-163.89-84.75v2.52s27.18 83.6 163.87 85.7c68.56 1.05 128.17-19.44 128.17-19.44v-10.36c0 .01-59.59 27.39-128.15 26.33z" class="st3"/></g><text class="st2" style="font-size:6.3631px;font-family:&quot;Lato-LightItalic&quot;" transform="matrix(.9655 0 0 1 201.512 226.184)">in South Florida</text><path d="M265.13 209.24h-91.2c-3.01 0-5.45-2.35-5.45-5.25s2.44-5.25 5.45-5.25h91.2v-.43H173.5c-3.03 0-5.48 2.54-5.48 5.67s2.45 5.67 5.48 5.67h91.62v-.41z" class="st2"/><defs><path id="SVGID_00000129165226664161542880000007803853428539782532_" d="M265.15 218.52h-66.12c-2.75 0-4.98 2.26-4.98 5.05v52.45c0 2.79 2.23 5.05 4.98 5.05h66.12v-62.55z"/></defs><clipPath id="SVGID_00000005953226205324235950000000353884923315418553_"><use xlink:href="#SVGID_00000129165226664161542880000007803853428539782532_" style="overflow:visible"/></clipPath><g style="clip-path:url(#SVGID_00000005953226205324235950000000353884923315418553_)"><path d="m205.57 241.73 1.05-2.04c0 .05-.01.11-.01.16v2.47h.57v-3.6h-.56c-.02 0-.04.01-.06.01-.02.01-.03.02-.05.03-.01.01-.03.03-.04.06l-1.03 2c-.03.05-.05.11-.08.17-.02.06-.05.12-.07.18-.02-.06-.05-.12-.07-.17-.02-.06-.05-.11-.08-.17l-1.04-2c-.01-.02-.03-.04-.04-.06-.01-.01-.03-.03-.05-.03s-.04-.01-.06-.01h-.56v3.6h.57v-2.48c0-.05-.01-.11-.01-.16l1.07 2.05c.02.05.06.08.09.11.04.03.08.04.13.04h.09c.05 0 .1-.01.13-.04.06-.03.09-.07.11-.12zM207.89 242c.11.11.24.2.39.26.15.06.32.09.5.09s.35-.03.5-.09a1.093 1.093 0 0 0 .63-.68c.06-.16.09-.35.09-.55 0-.2-.03-.38-.09-.55a1.13 1.13 0 0 0-.63-.67c-.15-.06-.32-.09-.5-.09s-.35.03-.5.09-.28.15-.39.26c-.11.11-.19.25-.25.41-.06.16-.09.34-.09.55 0 .2.03.39.09.55.06.17.15.3.25.42zm.43-1.59c.1-.14.25-.22.46-.22.21 0 .36.07.46.22.1.14.15.35.15.63s-.05.49-.15.63c-.1.14-.25.21-.46.21-.21 0-.36-.07-.46-.22-.1-.14-.15-.35-.15-.63 0-.26.05-.47.15-.62zM211.5 242.32l.98-2.56h-.47c-.04 0-.07.01-.1.03s-.05.05-.06.08l-.49 1.37c-.03.08-.05.16-.07.23-.02.08-.03.15-.05.23-.01-.08-.03-.15-.05-.23-.02-.08-.04-.15-.07-.23l-.48-1.37a.156.156 0 0 0-.06-.08.202.202 0 0 0-.11-.03h-.49l.98 2.56h.54zM212.78 239.29c.03.03.07.06.12.08a.401.401 0 0 0 .3 0 .36.36 0 0 0 .2-.2.401.401 0 0 0 0-.3.36.36 0 0 0-.2-.2.401.401 0 0 0-.3 0 .36.36 0 0 0-.2.2.401.401 0 0 0 0 .3c.02.04.05.08.08.12zM212.75 239.76h.59v2.56h-.59zM213.93 238.61h.59v3.7h-.59zM217.29 242.32h.48l.78-2.56h-.45c-.04 0-.08.01-.11.03-.03.02-.05.05-.06.08l-.37 1.37c-.02.08-.04.15-.05.22-.01.07-.03.14-.04.21-.02-.07-.03-.14-.05-.2l-.06-.21-.4-1.4a.156.156 0 0 0-.06-.08.202.202 0 0 0-.11-.03h-.26c-.04 0-.07.01-.1.03-.03.02-.05.05-.06.08l-.41 1.37-.06.22-.06.21-.03-.21c-.01-.07-.03-.14-.05-.22l-.35-1.37a.156.156 0 0 0-.06-.08.202.202 0 0 0-.11-.03h-.47l.78 2.56h.45c.06 0 .11-.04.13-.11l.45-1.47c.01-.05.03-.1.04-.15l.03-.15.03.15c.01.05.03.1.04.15l.45 1.48c.03.07.07.11.12.11zM218.84 242.18c.06.06.14.1.23.13s.18.04.29.04c.09 0 .17-.01.24-.02.07-.01.14-.04.2-.07.06-.03.13-.07.19-.11.06-.04.12-.1.18-.15l.05.18c.02.05.04.09.07.11.03.02.08.03.13.03h.27v-1.61c0-.14-.02-.28-.06-.4a.793.793 0 0 0-.18-.31.66.66 0 0 0-.29-.2.937.937 0 0 0-.39-.07c-.4 0-.74.13-1.03.4l.11.2c.02.03.04.06.07.08.03.02.06.03.1.03.05 0 .09-.01.13-.04.04-.02.08-.05.13-.08a.671.671 0 0 1 .41-.11c.13 0 .23.04.3.12.07.08.1.21.1.38v.15c-.28 0-.52.03-.7.08-.19.05-.34.11-.45.19-.11.08-.2.16-.24.25-.05.09-.07.19-.07.29 0 .11.02.22.05.3.05.08.1.15.16.21zm.41-.7c.03-.05.08-.09.15-.12.07-.04.16-.06.28-.09.12-.02.26-.03.43-.03v.43a.913.913 0 0 1-.26.2c-.05.02-.09.04-.15.05a.88.88 0 0 1-.17.02c-.1 0-.18-.02-.24-.07s-.09-.12-.09-.23c.01-.06.02-.12.05-.16zM221.31 243.15h.44c.06 0 .1-.01.13-.03.03-.02.05-.06.07-.1l1.34-3.26h-.48c-.04 0-.07.01-.1.03s-.05.05-.06.08l-.5 1.32c-.02.05-.03.09-.05.14-.02.04-.03.09-.04.14l-.03-.14c-.01-.05-.03-.09-.05-.13l-.53-1.33a.156.156 0 0 0-.06-.08.18.18 0 0 0-.11-.03h-.52l1 2.37-.45 1.02zM203.56 244.78h1.38v9.11h-1.38zM209.73 251.71c0-.36-.05-.69-.15-.99s-.23-.57-.39-.79c-.16-.22-.33-.43-.52-.63-.19-.19-.38-.38-.57-.56-.19-.18-.37-.36-.53-.54s-.29-.39-.39-.61-.15-.47-.15-.72c0-.6.23-.9.69-.9.46 0 .69.3.69.9v.38h1.31v-.29c0-.74-.17-1.3-.52-1.7s-.84-.59-1.48-.59-1.15.2-1.52.59c-.37.39-.56.96-.56 1.7 0 .48.1.92.3 1.31.2.39.44.72.74.99l.71.76c.26.25.49.52.68.81.19.3.28.62.28.95 0 .59-.22.89-.66.89h-.01c-.44 0-.66-.3-.66-.89v-.65h-1.42v.56c0 .74.19 1.3.57 1.7.38.39.89.59 1.53.59s1.14-.2 1.49-.59c.36-.38.54-.94.54-1.68zM214.18 253.99c.68 0 1.2-.2 1.56-.6.36-.4.54-.96.54-1.69v-4.74c0-.73-.18-1.29-.54-1.69s-.88-.6-1.56-.6-1.2.2-1.56.6c-.36.4-.54.96-.54 1.69v4.74c0 .73.18 1.29.54 1.69.37.4.89.6 1.56.6zm-.71-7.11c0-.6.24-.89.72-.89s.72.3.72.89v4.91c0 .6-.23.9-.71.9s-.72-.3-.72-.9v-4.91zM218.43 250.47h.65c1.37 0 2.06-.75 2.06-2.25v-1.18c0-1.51-.69-2.26-2.06-2.26h-2.03v9.11h1.38v-3.42zm0-4.39h.66c.22 0 .39.06.51.19.11.13.17.35.17.66v1.37c0 .31-.06.54-.17.67-.11.13-.28.2-.51.2h-.66v-3.09zM221.66 253.89h3.77v-1.3h-2.39v-2.67h1.9v-1.3h-1.9v-2.54h2.39v-1.3h-3.77zM228.91 252.77c0 .49.05.86.13 1.12h1.4c-.1-.23-.15-.58-.15-1.05v-1.46c0-1.03-.31-1.67-.92-1.94.6-.3.9-.91.9-1.85v-.72c0-.71-.16-1.24-.49-1.58-.33-.34-.85-.51-1.56-.51h-2.08v9.11h1.38v-3.7h.48c.32 0 .55.09.69.27.14.18.21.48.21.89v1.42zm-.01-4.85c0 .35-.07.59-.21.74-.14.15-.34.22-.62.22h-.54v-2.8h.67c.47 0 .7.31.7.94v.9zM232.33 252.25h1.7l.24 1.64h1.38l-1.4-9.11h-2.13l-1.4 9.11h1.38l.23-1.64zm.85-5.84.67 4.59h-1.33l.66-4.59zM235.65 246.08h1.45v7.81h1.38v-7.81h1.45v-1.3h-4.28zM240.4 244.78h1.38v9.11h-1.38zM247.17 253.89v-9.11h-1.24v5.46l-1.41-5.46h-1.87v9.11h1.38v-6.59l1.71 6.59zM249.85 253.99c.67 0 1.2-.2 1.57-.59.37-.39.56-.96.56-1.7v-2.89h-1.93v1.3h.55v1.68c0 .59-.24.89-.71.89-.48 0-.72-.3-.72-.89v-4.92c0-.6.24-.9.72-.9s.72.3.72.9v.98h1.38v-.89c0-.74-.19-1.3-.56-1.7-.37-.39-.89-.59-1.57-.59-.67 0-1.19.2-1.54.59-.35.39-.53.96-.53 1.7v4.74c0 .74.18 1.3.53 1.7.34.39.86.59 1.53.59zM258.99 244.78h-1.23v5.46l-1.42-5.46h-1.87v9.11h1.38v-6.59l1.72 6.59h1.42zM261.7 253.99c.68 0 1.2-.2 1.56-.6.36-.4.54-.96.54-1.69v-4.74c0-.73-.18-1.29-.54-1.69-.36-.4-.88-.6-1.56-.6s-1.2.2-1.56.6c-.36.4-.54.96-.54 1.69v4.74c0 .73.18 1.29.54 1.69.37.4.88.6 1.56.6zm-.72-7.11c0-.6.24-.89.72-.89s.72.3.72.89v4.91c0 .6-.23.9-.71.9s-.72-.3-.72-.9v-4.91zM269.06 252.02l-.69-7.24h-1.33l-.66 7.18-.74-7.18h-1.38l.97 9.11h1.94l.5-4.85.5 4.85h1.84l.97-9.11h-1.2zM271.54 252.59h1.33v1.3h-1.33zM271.52 248.62l.17 3.33h1.03l.18-3.33v-3.84h-1.38zM273.78 244.78v3.84l.17 3.33h1.03l.18-3.33v-3.84zM273.8 252.59h1.33v1.3h-1.33z" class="st2"/></g><path d="M53.03 181.88h11.31v54.3H53.03z" class="st5"/><path d="m56.52 192.47-.34-7.79 5.01 5.34-3 .16z" style="fill:none;stroke:#323550;stroke-width:.5;stroke-miterlimit:10"/><path d="m56.52 203.78-.34-7.79 5.01 5.35-3 .15zM55.93 218.77h5.51v.52h-5.51zM58 224h1.37v.52H58z" class="st6"/><path d="M58.438 223.8v-4.83h.5v4.83zM55.93 219.08h.33v.86h-.33zM61.11 219.08h.33v.86h-.33z" class="st6"/><path d="M62.13 231.26c-.31-.69-1.11-.99-1.78-.67-.11.06-.21.13-.3.21l-4.06-3.44a.579.579 0 0 0-.83.15l-.14.2c-.01.02-.01.04-.02.06l4.62 3.8c-.06.28-.03.59.1.87.31.69 1.11.99 1.78.67.66-.33.94-1.16.63-1.85zm-2.12 1.03a1.06 1.06 0 0 1 .48-1.38c.5-.24 1.09-.02 1.33.5.23.52.02 1.13-.48 1.38-.5.24-1.09.02-1.33-.5z" class="st1"/><path d="M61.66 227.26c-.66-.35-1.47-.08-1.8.6-.14.28-.17.58-.12.86L55 232.36c.01.02.01.04.02.06l.13.2c.18.28.55.36.82.18l4.17-3.29c.09.08.18.16.3.22.66.35 1.47.08 1.8-.6.34-.68.08-1.52-.58-1.87zm-.16.32c.49.26.69.88.43 1.39-.25.51-.85.71-1.34.45-.49-.26-.69-.88-.43-1.39.25-.51.85-.71 1.34-.45z" class="st1"/><path d="M55.95 208.63h5.48v5.67h-5.48z" class="st5"/></g></svg>