<svg xmlns="http://www.w3.org/2000/svg" xmlns:xlink="http://www.w3.org/1999/xlink" xml:space="preserve" style="enable-background:new 0 0 1030.56 346.19" viewBox="0 0 1030.56 346.19"><style>.st0{stroke:#323550;stroke-width:5;stroke-miterlimit:10}.st0,.st1{fill:none}.st2{fill:#dab279}.st3{font-family:&quot;MyriadPro-Regular&quot;}.st4{font-size:9px}.st5{fill:#323550}.st6{font-family:&quot;Lato-Bold&quot;}.st7{font-size:4px}.st8{fill:none;stroke:#dab279}.st10,.st11,.st8,.st9{stroke-miterlimit:10}.st9{fill:#dab279;stroke:#dab279;stroke-width:.5}.st10,.st11{fill:none;stroke:#323550}.st11{fill:#323550;stroke-width:.5}.st12{font-family:&quot;ArialMT&quot;}.st13{font-size:6px}.st14{font-size:5px}.st15{fill:#323550;stroke:#323550;stroke-width:.25;stroke-miterlimit:10}.st16{font-size:4.6226px}.st17{fill-rule:evenodd;clip-rule:evenodd;fill:#dab279}</style><g id="shi-desktop"><path d="M871.11 2.5H471.02c-9.66 0-17.5 7.83-17.5 17.5v247.17c0 9.66 7.83 17.5 17.5 17.5h169.33l-4.81 44.96h-24.87c-3.97 0-7.19 3.22-7.19 7.19v6.88h135.16v-6.88c0-3.97-3.22-7.19-7.19-7.19H706.6l-4.81-44.96h169.33c9.66 0 17.5-7.83 17.5-17.5V20c-.01-9.67-7.84-17.5-17.51-17.5zm-4.2 235.79c0 3.73-3.03 6.76-6.76 6.76H481.99c-3.73 0-6.76-3.03-6.76-6.76V28.57c0-3.73 3.03-6.76 6.76-6.76h378.16c3.73 0 6.76 3.03 6.76 6.76v209.72z" class="st0"/><path d="M512.69 38.12h178.53v196.45H512.69z" class="st1"/><text transform="translate(512.691 44.514)"><tspan x="0" y="0" class="st2 st3 st4">.section {</tspan><tspan x="0" y="10.8" class="st2 st3 st4">    overflow: auto;</tspan><tspan x="0" y="21.6" class="st2 st3 st4">    position: relative;</tspan><tspan x="0" y="32.4" class="st2 st3 st4">}</tspan><tspan x="0" y="54" class="st2 st3 st4">//  2.0    Section Green</tspan><tspan x="0" y="64.8" class="st2 st3 st4">.section--green {</tspan><tspan x="0" y="75.6" class="st2 st3 st4">    background-color: $color-primary;</tspan><tspan x="0" y="86.4" class="st2 st3 st4">}</tspan><tspan x="0" y="108" class="st2 st3 st4">//  3.0    Section Red</tspan><tspan x="0" y="118.8" class="st2 st3 st4">.section--red {</tspan><tspan x="0" y="129.6" class="st2 st3 st4">    background-color: $color-secondary;</tspan><tspan x="0" y="140.4" class="st2 st3 st4">}</tspan><tspan x="0" y="162" class="st2 st3 st4">//  4.0    Section Image</tspan><tspan x="0" y="172.8" class="st2 st3 st4">.section--image {</tspan><tspan x="0" y="183.6" class="st2 st3 st4">    background-position: center;</tspan></text><path d="M491.84 38.12h19.55v192.87h-19.55z" class="st1"/><text transform="translate(491.84 44.514)"><tspan x="0" y="0" class="st5 st3 st4">9</tspan><tspan x="0" y="10.8" class="st5 st3 st4">10</tspan><tspan x="0" y="21.6" class="st5 st3 st4">11</tspan><tspan x="0" y="32.4" class="st5 st3 st4">12</tspan><tspan x="0" y="43.2" class="st5 st3 st4">13</tspan><tspan x="0" y="54" class="st5 st3 st4">14</tspan><tspan x="0" y="64.8" class="st5 st3 st4">15</tspan><tspan x="0" y="75.6" class="st5 st3 st4">16</tspan><tspan x="0" y="86.4" class="st5 st3 st4">17</tspan><tspan x="0" y="97.2" class="st5 st3 st4">18</tspan><tspan x="0" y="108" class="st5 st3 st4">19</tspan><tspan x="0" y="118.8" class="st5 st3 st4">20</tspan><tspan x="0" y="129.6" class="st5 st3 st4">21</tspan><tspan x="0" y="140.4" class="st5 st3 st4">22</tspan><tspan x="0" y="151.2" class="st5 st3 st4">23</tspan><tspan x="0" y="162" class="st5 st3 st4">24</tspan><tspan x="0" y="172.8" class="st5 st3 st4">25</tspan><tspan x="0" y="183.6" class="st5 st3 st4">26</tspan></text><path d="M1011.35 161.49h-64.91c-10.61 0-19.21 8.6-19.21 19.21v143.77c0 10.61 8.6 19.21 19.21 19.21h64.91c10.61 0 19.21-8.6 19.21-19.21V180.7c0-10.61-8.6-19.21-19.21-19.21zm16.63 162.72c0 8.82-7.15 15.98-15.98 15.98h-66.23c-8.82 0-15.98-7.15-15.98-15.98V179.93c0-8.82 7.15-15.98 15.98-15.98H1012c8.82 0 15.98 7.15 15.98 15.98v144.28z" class="st5"/><path d="M934.18 179.43V324.7h89.43V179.43h-89.43zm87.43 142.65h-85.44V182.05h85.44v140.03z" class="st5"/><path d="M992.38 197c-.33.57-.61 1.03-.88 1.5-.13.22-.3.4-.56.36-.23-.04-.3-.27-.38-.47-.15-.41-.21-.85-.58-1.37-.09.72-.2 1.28-.23 1.84-.02.38-.21.42-.51.41-.42-.01-.29-.29-.26-.5.11-.92.21-1.85.34-2.76.04-.28-.04-.64.48-.64.46 0 .59.22.7.58.18.58.37 1.16.63 1.93.43-.73.79-1.35 1.15-1.96.14-.24.23-.53.61-.53.41-.01.63.03.55.55-.16.97-.26 1.95-.35 2.92-.03.36-.2.43-.51.43-.42-.01-.28-.3-.27-.51-.01-.56.22-1.09.07-1.78zM967.15 197.85c.44-.76.85-1.39 1.17-2.04.21-.42.53-.51.91-.42.51.12.19.53.17.78-.06.85-.18 1.69-.29 2.53-.04.28-.03.59-.48.57-.55-.03-.29-.4-.28-.63.03-.52.11-1.04.05-1.62-.28.46-.56.92-.83 1.39-.14.24-.29.49-.59.45-.27-.03-.34-.29-.41-.53-.14-.45-.31-.89-.58-1.34-.07.6-.15 1.2-.21 1.81-.03.31-.12.48-.48.48-.48 0-.32-.32-.3-.55.1-.95.22-1.9.33-2.85.03-.28.07-.52.45-.5.3.02.56-.01.67.39.18.65.43 1.3.7 2.08zM986.58 198.6c.36 0 .68-.01.99 0 .18.01.44-.1.43.28-.01.32-.16.42-.45.39-.05-.01-.11 0-.16 0-1.81.05-1.8.05-1.55-1.75.06-.39.15-.8.13-1.19-.05-.88.4-1.07 1.16-.96.29.04.58 0 .88.01.2.01.45-.06.4.3-.04.25-.15.38-.41.36-.24-.01-.48.02-.72-.01-.39-.04-.4.21-.44.49-.05.37.12.45.45.45.21 0 .57-.19.56.3-.01.43-.3.39-.55.35-.83-.12-.59.51-.72.98zM983.82 195.38c.34 0 .69-.01 1.03 0 .17 0 .4-.05.37.26-.02.23-.07.46-.36.4-.7-.15-.75.3-.79.8-.06.66-.2 1.31-.23 1.97-.02.5-.31.46-.64.45-.43-.01-.25-.3-.23-.51.07-.63.14-1.27.22-1.9.07-.49.17-.97-.61-.82-.19.04-.29-.07-.24-.28.04-.18.02-.38.3-.38.39.01.79.01 1.18.01zM977.59 193.65c-2-.01-3.67 1.65-3.67 3.63 0 2.05 1.66 3.72 3.68 3.7 1.99-.02 3.63-1.67 3.65-3.68.02-1.95-1.68-3.64-3.66-3.65zm1.22 3.84-1.59 2.52c-.04-.02-.07-.03-.11-.05.14-.64.29-1.28.45-1.99h-1.79c.83-1.2 1.58-2.28 2.33-3.37.04.02.07.04.11.06-.11.43-.17.88-.34 1.29-.23.54-.02.61.47.62 1.02.02 1.02.04.47.92zM964.07 198.74c-.21-.96-.44-1.91-.65-2.86-.06-.27-.08-.52-.46-.51-.32.01-.59 0-.76.39-.5 1.13-1.06 2.24-1.64 3.46.52.07.93.14 1.1-.43.18-.61.7-.31 1.07-.37.39-.07.49.17.52.51.04.45.41.35.68.33.46-.03.18-.34.14-.52zm-1.98-.97c.19-.5.37-.97.59-1.53.29.54.22 1.03.35 1.48-.29.13-.57.09-.94.05zM996.71 195.55c-.64-.31-1.34-.2-2.02-.12-.06.01-.12.22-.14.34-.13 1-.24 2-.36 3 0 .22-.13.49.29.49.32 0 .58-.01.57-.43-.01-.65.25-.93.96-.95.6-.02 1.08-.44 1.19-1.1.08-.49.01-.99-.49-1.23zm-1.13 1.75c-.44.02-.25-.29-.28-.51.11-.28-.15-.8.49-.78.42.01.55.26.53.63-.03.47-.3.64-.74.66zM971.44 195.37c-.68-.2-.93.17-.96.94-.03.85-.17 1.69-.3 2.53-.05.33.04.4.35.43.45.04.54-.18.54-.56 0-.49.12-.81.77-.8.57.01 1.07-.28 1.29-.88.4-1.05-.17-1.64-1.69-1.66zm.16 1.93c-.39.01-.33-.23-.26-.52.13-.24-.21-.83.51-.76.41.04.52.29.49.65-.04.45-.32.62-.74.63z" class="st2"/><path d="M943.88 215.89h49.09v3.48h-49.09z" class="st1"/><text class="st2 st6 st7" transform="translate(943.876 218.864)">About</text><path d="M943.88 227.54h49.09v3.48h-49.09z" class="st1"/><text class="st2 st6 st7" transform="translate(943.876 230.511)">Documentation</text><path d="M943.88 239.33h49.09v3.48h-49.09z" class="st1"/><text class="st2 st6 st7" transform="translate(943.876 242.299)">Community</text><path d="M943.88 251.14h49.09v3.48h-49.09z" class="st1"/><text class="st2 st6 st7" transform="translate(943.876 254.108)">Events</text><path d="M1017.62 247.28c-7.07 0-7.14.01-14.21-.02-.95 0-1.62.57-2.35.98-4.66 2.67-9.29 5.38-13.93 8.08-1.43.83-2.87 1.65-4.3 2.49-.33.19-.68.18-1.03.18h-41.75v-11.71c.27-.26.6-.25.94-.25 1.15-.01 2.3 0 3.46 0 12.23 0 24.46-.01 36.69.01.9 0 1.67-.22 2.44-.67 6.01-3.51 12.04-6.97 18.06-10.46.69-.4 1.4-.61 2.2-.6 6.54.01 6.07.01 12.61.01.42 0 .9-.12 1.24.29.03 3.76 0 7.53.01 11.29.01.13.04.27-.08.38z" class="st8"/><path d="M1017.62 235.35c-7.11 0-7.22 0-14.33-.01-.87 0-1.48.56-2.15.94-4.13 2.36-8.24 4.77-12.36 7.16-1.98 1.15-3.97 2.29-5.95 3.44-.33.19-.68.17-1.03.17h-41.74v-11.71c.27-.26.6-.25.94-.25 1.11-.01 2.22 0 3.32 0 12.27 0 24.55-.01 36.82.01.9 0 1.67-.22 2.44-.67 6.01-3.51 12.04-6.97 18.06-10.46.69-.4 1.4-.61 2.2-.6 6.54.01 6.07.01 12.61.01.42 0 .9-.12 1.24.29.03 3.77 0 7.53.01 11.29.01.15.03.29-.08.39z" class="st8"/><path d="M1017.62 223.42c-6.67 0-6.34.03-13.01-.02-1.29-.01-2.4.29-3.5.94-4.64 2.74-9.3 5.43-13.96 8.13-1.43.83-2.87 1.65-4.3 2.49-.33.19-.67.18-1.03.18h-41.76v-11.71c.31-.29.7-.24 1.07-.24 2.86-.01 5.72 0 8.57 0 10.39 0 20.78-.01 31.17.02 1.09 0 2.01-.26 2.94-.8 5.85-3.42 11.73-6.8 17.6-10.19.44-.25.9-.48 1.37-.68.35-.09.7-.07 1.06-.07h12.59c.41 0 .85-.08 1.21.23.09.14.06.3.06.45v10.79c0 .14.06.33-.08.48z" class="st8"/><path d="M940.06 211.71h61.77c.29 0 .58.01.86.02-2.8 1.62-5.6 3.23-8.39 4.85-2.97 1.72-5.93 3.45-8.9 5.17-.87.51-1.75 1.01-2.63 1.52-.31.18-.64.14-.97.14h-41.75c.01-3.9.01-7.8.01-11.7z" class="st8"/><path d="m1012.31 217.12-2.23 1.93-2.22-1.93.23-.26 2 1.74 2-1.74zM1012.31 228.86l-2.23 1.94-2.22-1.94.23-.25 2 1.74 2-1.74zM1012.31 240.61l-2.23 1.94-2.22-1.94.23-.26 2 1.75 2-1.75zM1012.31 252.36l-2.23 1.94-2.22-1.94.23-.26 2 1.75 2-1.75z" class="st9"/><path d="M993.58 310.43H959.2l5-12.22h34.38z" class="st8"/><path d="M976.64 302.26h10.75v3.48h-10.75z" class="st1"/><text class="st2 st6 st7" transform="translate(976.64 305.23)">BLO</text><path d="m972.3 305.53-.81.14.09-.74 1.91-2.23.71.6z" class="st2"/><path d="M974.15 304.03v1.3c0 .37-.3.67-.67.67h-1.94a.67.67 0 0 1-.67-.67v-1.94c0-.37.3-.67.67-.67h1.34l.4-.47h-1.98c-.5 0-.91.41-.91.91v2.42c0 .5.41.91.91.91h2.42c.5 0 .91-.41.91-.91v-2.1l-.48.55zM973.616 302.549l.336-.397.717.608-.336.397z" class="st2"/><text class="st2 st6 st7" transform="translate(957.462 294.229)">Checkout our AMP Blog</text><path d="M3.11 326.65c2.09 9.43 12 17.03 21.64 17.03H443.7c9.65 0 14.37-7.6 15.3-17.03H3.11zM411.46 321.62c.1-1.17.15-2.35.15-3.56V105.28c0-11.01-3.82-11.9-14.67-11.9H71.08c-10.85 0-20.57.89-20.57 11.9v212.78c0 1.21.14 2.4.36 3.56h360.59zM62.35 107.98h335.67v202.7H62.35v-202.7z" class="st0"/><path d="M95.06 123.44h164.52v16.15H95.06z" class="st10"/><path d="M99.73 127.6h7.82v7.82h-7.82z" class="st10"/><path stroke-width=".499995" d="m106.649 127.985.25.215-6.161 7.165-.25-.215z" class="st11"/><path d="M113.63 127.6h7.82v7.82h-7.82z" class="st10"/><text class="st5 st12 st13" transform="translate(194.9 133.114)">Opacity</text><text class="st5 st12 st13" transform="translate(129.537 133.114)">Stroke</text><path d="M149.57 127.6h36.55v7.82h-36.55z" class="st10"/><text class="st5 st12 st14" transform="translate(161.107 132.847)">1px</text><path d="m155.98 130.74-2.23-1.93-2.22 1.93.22.26 2-1.74 2.01 1.74zM155.98 132.28l-2.23 1.94-2.22-1.94.22-.26 2 1.75 2.01-1.75zM183.24 130.67l-2.23 1.94-2.22-1.94.22-.26 2 1.75 2-1.75zM158.04 127.82h.73v7.38h-.73zM175.53 127.82h.73v7.38h-.73z" class="st15"/><path d="M217.97 127.6h36.55v7.82h-36.55z" class="st10"/><text class="st5 st12 st14" transform="translate(219.87 132.847)">100%</text><path d="m251.63 130.67-2.23 1.94-2.22-1.94.23-.26 2 1.75 2-1.75zM243.92 127.82h.73v7.38h-.73z" class="st15"/><text class="st2 st6 st16" transform="translate(299.38 179.17)">Complete Registration</text><text class="st2 st6 st16" transform="translate(257.098 179.17)">Register Now</text><text class="st2 st6 st16" transform="translate(359.455 179.17)">Help</text><path d="M232.43 175.43c-.38.39-.85.58-1.39.58-.54 0-1.01-.19-1.39-.58-.38-.38-.57-.85-.57-1.39 0-.54.19-1 .57-1.38.38-.38.84-.57 1.38-.57.54 0 1.01.19 1.39.57.38.38.57.84.57 1.38.02.55-.18 1.01-.56 1.39zm-2.58-2.58c-.33.33-.49.73-.49 1.19 0 .47.16.87.49 1.2.33.33.73.5 1.2.5s.87-.17 1.2-.5c.33-.33.49-.73.49-1.2s-.16-.87-.49-1.19c-.33-.33-.73-.5-1.2-.5s-.87.17-1.2.5zm1.15.11c.27 0 .46.03.59.08.22.09.33.27.33.55 0 .19-.07.33-.21.43-.07.05-.18.08-.31.1.17.03.29.1.37.21.08.11.12.23.12.33v.16c0 .05 0 .1.01.16 0 .06.01.09.02.11l.01.03h-.36c0-.01 0-.01-.01-.02 0-.01 0-.02-.01-.02l-.01-.07v-.17c0-.25-.07-.41-.2-.49-.08-.05-.22-.07-.42-.07h-.3v.85h-.38v-2.16h.76zm.41.34c-.1-.05-.25-.08-.46-.08h-.32v.78h.34c.16 0 .28-.02.36-.05.15-.06.22-.17.22-.34.01-.15-.04-.26-.14-.31zM186.67 173.15h.45v.74h-.45v-.74zM186.67 174.62h.45v.74h-.45v-.74zM186.67 176.1h.45v.74h-.45v-.74zM186.67 177.58h.45v.73h-.45v-.73zM186.67 179.05h.45v.74h-.45v-.74zM186.67 180.53h.45v.74h-.45v-.74zM186.67 182h.45v.74h-.45V182zM185.15 175.64c.07.02.14.05.21.07.28.1.53.25.75.42v4.72a2.978 2.978 0 0 1-4.68-1.53c1.48.14 2.94-.72 3.5-2.18.2-.49.27-1.01.22-1.5z" class="st2"/><path d="M181.44 172.98a2.958 2.958 0 0 1 3.07 4.01 2.959 2.959 0 0 1-3.83 1.7c-.37-.14-.7-.35-.97-.61.91-.32 1.68-1.02 2.06-2a3.36 3.36 0 0 0-.33-3.1z" class="st2"/><path d="M175.81 173.82c.59-1.53 2.3-2.29 3.83-1.7 1.53.59 2.29 2.3 1.7 3.83a2.959 2.959 0 0 1-3.83 1.7 2.967 2.967 0 0 1-1.7-3.83z" class="st2"/><path d="M192.63 174.58c-.52-.19-1.11-.24-1.76-.15-.65.09-1.18.37-1.6.84-.25.29-.44.64-.56 1.07-.12.43-.18.86-.18 1.29 0 .52.07 1.03.21 1.51.14.48.38.87.71 1.15.32.29.74.49 1.27.61s1.06.11 1.58-.04c.59-.13 1.07-.45 1.45-.98.17-.25.32-.56.43-.93.11-.36.17-.8.17-1.31 0-.7-.14-1.31-.4-1.83-.27-.58-.72-.99-1.32-1.23zm-.19 4.48c-.19.29-.41.46-.65.54-.25.07-.49.06-.73-.02-.24-.09-.4-.19-.5-.32-.24-.29-.37-.79-.4-1.51-.03-.72.12-1.27.45-1.63.11-.11.29-.2.52-.27.24-.07.48-.07.71.01.24.08.45.26.63.55.18.29.27.71.27 1.29-.01.61-.11 1.07-.3 1.36zM199.29 174.94c-.59-.36-1.24-.55-1.94-.55-.68.03-1.38.23-1.94.6-.56.36-.92 1.09-.92 2.17v4.05h2.13v-4.38c0-.38-.06-.66.17-.83.22-.17.39-.26.68-.26.29 0 .63.09.86.26.23.17.43.45.43.83v3.24c0 .24-.05.6.1.75.15.15.22.39.46.39h.87v-4.05c0-1.12-.32-1.86-.9-2.22zM203.13 174.39c-.9 0-1.61.29-2.12.88-.49.57-.74 1.37-.74 2.38 0 1.06.25 1.88.76 2.45.51.59 1.21.88 2.12.88.75 0 1.36-.28 1.86-.65.49-.35.82-.91 1-1.62h-1.19c-.19 0-.34.14-.44.22a.64.64 0 0 0-.18.24c-.05.05-.09.12-.13.16-.04.04-.08.08-.13.1-.19.11-.42.17-.69.17-.41 0-.72-.19-.93-.44-.22-.24-.34-.45-.36-1.16h4.12c.02 0 .15.04.15-.04v-.27c0-1.05-.32-1.86-.82-2.45-.53-.56-1.33-.85-2.28-.85zm-1.17 2.9c.02-.71.13-.85.36-1.07.22-.22.51-.39.86-.39.38 0 .67.2.88.42.19.21.3.33.33 1.04h-2.43zM221.03 175.03c-.43-.29-1.17-.44-2.03-.44-.77 0-1.41.14-1.83.49-.37.31-.63.79-.69 1.14h1.55c.08-.36.2-.24.37-.31.17-.06.36-.07.58-.07.2 0 .42.04.66.12.24.07.36.22.36.46 0 .31-.34.51-1.02.61-.14.02-.26.04-.37.06-.11.02-.2.04-.28.04-.59.09-1.07.28-1.45.56-.38.28-.57.74-.57 1.39 0 .7.21 1.2.63 1.5.42.3.9.45 1.46.45.28 0 .6-.02.96-.06.36-.04.71-.14 1.03-.31.31-.15.75-.41.97-.75.23-.35.51-.83.51-1.45v-2.11c.01-.58-.39-1.01-.84-1.32zm-.93 3.34c0 .43-.16.77-.4 1.02-.25.25-.61.37-1.04.37-.26 0-.47-.06-.61-.19-.14-.14-.21-.32-.21-.56 0-.17.05-.34.16-.51.12-.13.33-.23.6-.3 0 0 .21-.04.57-.12.39-.09.58-.19.94-.3v.59zM226.95 175.16c-.4 0-.65-.03-.74.34l-1.09 3.92-1.25-4.26h-1.79l2.16 5.94c.11.32.07.51-.11.65-.18.15-.42.17-.73.17h-.46v1.17s.11.11.18.12c.07.01.14.14.18.14h.32c.63 0 1.09-.2 1.37-.38.28-.22.51-.41.7-.92l2.37-6.87h-1.11zM214.05 178.64c0 .37-.16.64-.38.81-.22.17-.49.26-.77.26s-.48-.09-.7-.26c-.22-.17-.28-.44-.28-.81V174.81h-1.78V178.64c0 .37-.09.64-.31.81a1.192 1.192 0 0 1-1.49 0c-.22-.17-.33-.44-.33-.81v-3.15c0-.23-.08-.37-.22-.52-.15-.15-.34-.17-.57-.17h-.63v3.51c0 1.08.19 1.8.77 2.16.57.35 1.15.53 1.83.53.34-.01.65-.07.96-.15.32-.09.58-.23.81-.43.28.23.58.39.92.46.34.08.68.12 1.04.12a3.39 3.39 0 0 0 1.77-.58c.55-.36.78-1.06.78-2.11v-3.51h-1.42v3.84z" class="st17"/><path d="M266.92 281.48c0 .79-.64 1.42-1.42 1.42h-88.9c-.79 0-1.42-.64-1.42-1.42v-81.43c0-.79.64-1.42 1.42-1.42h88.9c.79 0 1.42.64 1.42 1.42v81.43z" class="st8"/><path d="M235.15 237.15c0 .52-.67.95-1.35.95h-50.75c-.68 0-1.23-.42-1.23-.95v-4.86c0-.52.55-.95 1.23-.95h50.75c.68 0 1.35.42 1.35.95v4.86z" class="st2"/><text class="st2 st6 st16" transform="translate(181.81 229.442)">Phone Number</text><text class="st2 st6 st16" transform="translate(189.355 265)">Remember me</text><path d="M187.74 264.41c0 .59-.48 1.07-1.07 1.07h-2.13c-.59 0-1.07-.48-1.07-1.07v-1.78c0-.59.48-1.07 1.07-1.07h2.13c.59 0 1.07.48 1.07 1.07v1.78zM235.15 254.57c0 .52-.67.95-1.35.95h-50.75c-.68 0-1.23-.42-1.23-.95v-4.86c0-.52.55-.95 1.23-.95h50.75c.68 0 1.35.42 1.35.95v4.86z" class="st2"/><text class="st2 st6 st16" transform="translate(181.754 246.807)">Password</text><path d="M188.79 209.54h-.6v-1.71c-.01-1.2-1.08-2.18-2.39-2.18-1.32 0-2.38.97-2.39 2.18v1.71h-.67c-.15 0-.27.11-.27.24v3.41c0 .13.12.24.27.24h6.06c.15 0 .27-.11.27-.24v-3.41a.29.29 0 0 0-.28-.24zm-4.46-1.71c.01-.73.66-1.32 1.46-1.32.8 0 1.46.6 1.46 1.33v-.01 1.71h-2.93v-1.71zm1.81 4.24h-1l.32-.86c-.2-.07-.35-.24-.35-.46 0-.27.24-.49.53-.49.29 0 .53.22.53.49 0 .21-.15.39-.35.46l.32.86z" class="st2"/><text class="st2 st6" style="font-size:7.9731px" transform="translate(192.271 213.328)">Login</text><path d="M258.96 272.58c0 2.02-1.63 3.65-3.65 3.65h-19.95c-2.02 0-3.65-1.63-3.65-3.65v-5.03c0-2.02 1.63-3.65 3.65-3.65h19.95c2.02 0 3.65 1.63 3.65 3.65v5.03z" class="st8"/><path d="M238.66 268.48h.66v2.61h1.59v.57h-2.25v-3.18zM243.8 271.37c-.24.25-.59.37-1.04.37-.45 0-.8-.12-1.04-.37-.32-.3-.48-.74-.48-1.31 0-.58.16-1.02.48-1.31.24-.25.59-.37 1.04-.37.45 0 .8.12 1.04.37.32.29.48.73.48 1.31 0 .57-.16 1.01-.48 1.31zm-.42-.48c.15-.19.23-.47.23-.83s-.08-.63-.23-.83a.76.76 0 0 0-.63-.29c-.26 0-.47.1-.63.29-.16.19-.24.47-.24.83s.08.63.24.83c.16.19.37.29.63.29.27 0 .48-.1.63-.29zM246.92 269.47a.59.59 0 0 0-.37-.45.857.857 0 0 0-.36-.07c-.26 0-.47.1-.63.29-.16.19-.25.48-.25.87s.09.67.27.83c.18.16.38.24.61.24.22 0 .41-.06.55-.19.14-.13.23-.3.26-.5h-.74v-.53h1.32v1.7h-.44l-.07-.4c-.13.15-.24.26-.34.32-.18.11-.39.16-.65.16-.42 0-.77-.15-1.03-.44-.28-.29-.42-.69-.42-1.2s.14-.93.42-1.24c.28-.31.66-.47 1.12-.47.4 0 .73.1.97.31s.38.46.42.77h-.64zM248.82 271.65h-.66v-3.18h.66v3.18zM249.43 268.48h.7l1.26 2.22v-2.22h.62v3.18h-.66l-1.29-2.25v2.25h-.62v-3.18zM175.37 220.796v-.72h91.88v.72z" class="st2"/><path d="m381.67 156.5.01-1.15H162.27v140.64l219.41.01-.01-1.49H163.41V156.5z" class="st5"/><path d="M286.63 283.72c-3.9 0-7.06-3.09-7.06-6.91v-71.75c0-3.82 3.16-6.91 7.06-6.91h94.06v-.25h-94.27c-3.93 0-7.11 3.12-7.11 6.97v72.31c0 3.85 3.18 6.97 7.11 6.97h94.27v-.42h-94.06z" class="st8"/><defs><path id="SVGID_1_" d="M381.2 197.69h-94.41c-3.93 0-7.11 3.12-7.11 6.97v72.31c0 3.85 3.18 6.97 7.11 6.97h94.41v-86.25z"/></defs><clipPath id="SVGID_00000076577830824794366940000013774945315205176732_"><use xlink:href="#SVGID_1_" style="overflow:visible"/></clipPath><g style="clip-path:url(#SVGID_00000076577830824794366940000013774945315205176732_)"><path d="M322.05 280.93c-195.16-2.9-235.9-115.44-235.9-115.44v.77s40.74 112.55 235.9 115.44c97.89 1.45 181.08-24.48 181.08-24.48v-.77s-83.19 25.93-181.08 24.48z" class="st2"/><path d="M321.67 263.17c-80.71-.59-131.79-18.66-166.02-38.48-51.28-29.69-70.27-76.96-70.27-76.96v3.47s38.09 113.13 237.06 116.21c97.89 1.52 180.69-31.82 180.69-31.82V219s-76.45 44.94-181.46 44.17z" class="st2"/><path d="M319.77 266.1C124.61 263.2 85.76 149.27 85.76 149.27v3.47s38.81 115.25 233.97 118.14c97.89 1.45 183.01-26.8 183.01-26.8v-14.29c0 .02-85.08 37.76-182.97 36.31z" class="st8"/></g><text class="st2" style="font-size:8.7716px;font-family:&quot;Lato-LightItalic&quot;" transform="translate(290.332 208.188)">in South Florida</text><path d="M381.16 184.83H250.95c-4.3 0-7.78-3.24-7.78-7.23s3.48-7.23 7.78-7.23h130.21v-.59H250.34c-4.32 0-7.82 3.5-7.82 7.82s3.5 7.82 7.82 7.82h130.82v-.59z" class="st2"/><defs><path id="SVGID_00000075141694224113544910000009569763658651673474_" d="M381.2 197.62h-94.41c-3.93 0-7.11 3.12-7.11 6.97v72.31c0 3.85 3.18 6.97 7.11 6.97h94.41v-86.25z"/></defs><clipPath id="SVGID_00000098193479985448255550000012129857373626596533_"><use xlink:href="#SVGID_00000075141694224113544910000009569763658651673474_" style="overflow:visible"/></clipPath><g style="clip-path:url(#SVGID_00000098193479985448255550000012129857373626596533_)"><path d="m296.13 229.63 1.5-2.82c-.01.07-.01.14-.02.22 0 .07-.01.14-.01.2v3.21h.81v-4.97H297.6c-.03 0-.06.01-.08.02-.02.01-.05.02-.07.04-.02.02-.04.05-.06.08l-1.47 2.75c-.04.07-.08.15-.11.23-.03.08-.07.16-.1.24-.03-.08-.06-.16-.1-.24-.03-.08-.07-.16-.11-.23l-1.48-2.76c-.02-.03-.04-.06-.06-.08s-.04-.04-.07-.04a.188.188 0 0 0-.08-.02H293v4.97h.81v-3.21c0-.06 0-.13-.01-.2 0-.07-.01-.15-.02-.22l1.52 2.83c.03.06.08.11.13.15.05.04.12.05.19.05h.13c.07 0 .14-.02.19-.05.11-.04.16-.09.19-.15zM299.44 229.99c.15.16.34.28.55.36.22.08.45.13.72.13.26 0 .5-.04.72-.13.21-.08.4-.21.55-.36.15-.16.27-.35.35-.57.08-.22.12-.48.12-.76s-.04-.53-.12-.75c-.08-.22-.2-.41-.35-.57-.15-.16-.33-.28-.55-.36-.21-.08-.45-.13-.72-.13-.26 0-.5.04-.72.13-.22.08-.4.2-.55.36-.15.16-.27.35-.35.57-.08.22-.13.48-.13.75 0 .28.04.53.13.76.08.22.2.41.35.57zm.61-2.19c.14-.2.36-.3.66-.3.29 0 .51.1.65.3.14.2.21.49.21.87s-.07.67-.21.87c-.14.2-.36.3-.65.3-.3 0-.52-.1-.66-.3-.14-.2-.21-.49-.21-.86s.07-.68.21-.88zM304.59 230.43l1.4-3.52h-.67c-.06 0-.11.01-.15.04-.04.03-.07.07-.09.11l-.7 1.88c-.04.11-.08.22-.1.32-.03.11-.05.21-.07.32a3.663 3.663 0 0 0-.17-.64l-.68-1.88a.244.244 0 0 0-.09-.11c-.04-.03-.09-.04-.16-.04h-.7l1.4 3.52h.78zM306.42 226.25c.05.05.1.09.17.11.07.03.13.04.21.04.08 0 .15-.01.21-.04.07-.03.12-.07.17-.11.05-.05.09-.1.12-.17.03-.06.04-.13.04-.21 0-.08-.01-.15-.04-.21a.523.523 0 0 0-.12-.17.452.452 0 0 0-.17-.11.522.522 0 0 0-.21-.04c-.07 0-.14.01-.21.04-.07.03-.12.07-.17.11-.05.05-.09.11-.11.17-.03.07-.04.14-.04.21 0 .07.01.14.04.21.03.07.07.12.11.17zM306.38 226.9h.85v3.52h-.85zM308.07 225.32h.85v5.1h-.85zM312.86 230.43h.68l1.12-3.52h-.64c-.06 0-.11.01-.15.04a.21.21 0 0 0-.08.11l-.52 1.88c-.03.11-.05.21-.07.31-.02.1-.04.2-.05.29-.02-.09-.05-.19-.07-.28-.02-.09-.05-.19-.08-.29l-.58-1.92c-.01-.05-.04-.08-.08-.11a.241.241 0 0 0-.15-.04h-.37c-.06 0-.1.01-.14.04s-.07.07-.08.11l-.58 1.89-.09.3c-.03.1-.06.2-.08.29-.02-.1-.03-.2-.05-.29-.02-.1-.04-.2-.07-.3l-.5-1.88c-.01-.05-.04-.08-.08-.11a.273.273 0 0 0-.16-.04h-.67l1.12 3.52h.65c.09 0 .15-.05.19-.15l.64-2.03c.02-.07.04-.14.05-.2.02-.07.03-.14.04-.2.01.07.03.13.04.2s.04.13.06.2l.64 2.04c-.02.09.03.14.11.14zM315.07 230.24c.09.08.2.14.32.18.13.04.26.06.41.06.13 0 .24-.01.34-.03.1-.02.2-.05.29-.09a1.821 1.821 0 0 0 .53-.36l.08.25c.02.07.06.12.1.15.05.02.11.04.19.04h.38v-2.23c0-.2-.03-.38-.09-.55-.06-.17-.14-.31-.26-.43-.11-.12-.25-.21-.41-.28s-.35-.1-.55-.1c-.57 0-1.06.19-1.47.56l.15.27c.03.04.06.08.1.11.04.03.09.05.15.05.07 0 .13-.02.19-.05.06-.03.12-.07.19-.11.07-.04.15-.08.24-.11s.21-.05.34-.05c.19 0 .33.06.43.17.1.11.15.29.15.53v.21c-.4 0-.74.04-1.01.1s-.49.16-.65.26c-.16.1-.28.22-.35.35-.07.13-.1.26-.1.39 0 .16.02.3.08.42.07.11.14.21.23.29zm.59-.97c.04-.06.11-.12.21-.17.1-.05.23-.09.4-.12s.37-.05.62-.05v.59c-.06.06-.12.12-.18.16-.06.05-.12.08-.19.12-.07.03-.13.05-.21.07-.07.02-.15.02-.24.02-.14 0-.26-.03-.35-.1-.09-.06-.13-.17-.13-.32a.48.48 0 0 1 .07-.2zM318.6 231.58h.63c.08 0 .14-.02.18-.05.04-.03.07-.08.1-.14l1.92-4.49h-.68c-.05 0-.1.01-.14.04-.04.03-.07.07-.09.11l-.71 1.82c-.02.06-.05.13-.07.19-.02.06-.04.13-.06.19-.01-.06-.03-.13-.05-.19-.02-.06-.04-.13-.07-.19l-.75-1.83a.444.444 0 0 0-.08-.11.254.254 0 0 0-.16-.05h-.74l1.43 3.26-.66 1.44zM293.26 233.82h1.97v12.56h-1.97zM302.06 243.38c0-.49-.07-.94-.21-1.36a3.86 3.86 0 0 0-.56-1.09c-.23-.31-.48-.59-.74-.86-.27-.27-.54-.53-.82-.77-.28-.25-.53-.49-.76-.75a3.06 3.06 0 0 1-.56-.85c-.14-.31-.22-.64-.22-.99 0-.82.33-1.24.99-1.24.66 0 .99.41.99 1.23v.53h1.86v-.4c0-1.02-.24-1.79-.74-2.34-.49-.54-1.19-.81-2.11-.81-.91 0-1.64.27-2.17.81s-.8 1.32-.8 2.34c0 .66.14 1.26.42 1.81.28.54.63 1 1.05 1.37l1.01 1.05c.38.34.7.71.97 1.12.27.41.4.85.4 1.31 0 .82-.31 1.23-.94 1.23h-.01c-.63 0-.95-.41-.95-1.23v-.9h-2.02v.77c0 1.02.27 1.8.82 2.34.54.54 1.27.81 2.19.81s1.62-.27 2.13-.81c.53-.53.78-1.31.78-2.32zM308.43 246.52c.97 0 1.71-.27 2.22-.82.51-.55.77-1.33.77-2.33v-6.53c0-1-.26-1.78-.77-2.33s-1.26-.82-2.22-.82c-.97 0-1.71.27-2.22.82-.51.55-.77 1.33-.77 2.33v6.53c0 1 .26 1.78.77 2.33s1.25.82 2.22.82zm-1.03-9.81c0-.82.34-1.23 1.02-1.23.68 0 1.02.41 1.02 1.23v6.77c.01.83-.33 1.24-1.02 1.24-.68-.01-1.02-.42-1.03-1.24v-6.77zM314.49 241.67h.93c1.96 0 2.94-1.03 2.94-3.1v-1.63c0-2.07-.98-3.11-2.94-3.11h-2.9v12.56h1.97v-4.72zm0-6.05h.94c.32 0 .56.09.72.27s.24.48.24.91v1.88c0 .43-.08.74-.24.92-.16.18-.4.27-.72.27h-.94v-4.25zM319.1 246.38h5.38v-1.79h-3.41v-3.68h2.71v-1.8h-2.71v-3.49h3.41v-1.8h-5.38zM329.46 244.84c.01.67.07 1.18.18 1.54h2c-.14-.32-.21-.8-.21-1.44v-2.01c0-1.41-.44-2.31-1.31-2.67.86-.41 1.29-1.26 1.29-2.55v-.99c0-.98-.23-1.71-.7-2.18-.47-.47-1.21-.71-2.22-.71h-2.97v12.56h1.97v-5.11h.68c.46 0 .78.12.99.37.2.25.3.66.3 1.23v1.96zm-.02-6.69c0 .48-.1.82-.29 1.02-.2.2-.49.31-.89.31h-.77v-3.86h.95c.67 0 1 .43 1 1.3v1.23zM334.34 244.12h2.42l.34 2.26h1.97l-2-12.56h-3.04l-2 12.56H334l.34-2.26zm1.2-8.04.95 6.32h-1.9l.95-6.32zM339.08 235.62h2.07v10.76h1.97v-10.76h2.06v-1.8h-6.1zM345.86 233.82h1.97v12.56h-1.97zM355.52 246.38v-12.56h-1.76v7.53l-2.03-7.53h-2.66v12.56h1.97v-9.09l2.45 9.09zM359.35 246.52c.96 0 1.71-.27 2.24-.81.53-.54.8-1.32.8-2.34v-3.98h-2.76v1.8h.79v2.32c0 .82-.34 1.23-1.02 1.23-.69-.01-1.03-.41-1.03-1.23v-6.78c0-.82.34-1.24 1.02-1.24.68 0 1.02.41 1.02 1.23v1.35h1.97v-1.23c0-1.02-.27-1.79-.8-2.34-.53-.54-1.28-.81-2.24-.81-.96 0-1.7.27-2.2.81-.5.54-.75 1.32-.75 2.34v6.53c0 1.02.25 1.8.75 2.34.52.54 1.25.81 2.21.81zM372.4 233.82h-1.76v7.53l-2.03-7.53h-2.66v12.56h1.97v-9.09l2.45 9.09h2.03zM376.27 246.52c.97 0 1.71-.27 2.22-.82.51-.55.77-1.33.77-2.33v-6.53c0-1-.26-1.78-.77-2.33s-1.26-.82-2.22-.82c-.97 0-1.71.27-2.22.82-.51.55-.77 1.33-.77 2.33v6.53c0 1 .26 1.78.77 2.33s1.26.82 2.22.82zm-1.02-9.81c0-.82.34-1.23 1.02-1.23.68 0 1.02.41 1.02 1.23v6.77c.01.83-.33 1.24-1.02 1.24-.68-.01-1.02-.42-1.03-1.24v-6.77zM386.78 243.8l-.99-9.98h-1.9l-.94 9.9-1.06-9.9h-1.97l1.39 12.56h2.77l.71-6.69.72 6.69h2.62l1.39-12.56h-1.72zM390.32 244.59h1.9v1.8h-1.9zM390.28 239.11l.26 4.59h1.47l.24-4.59v-5.29h-1.97zM393.51 233.82v5.29l.25 4.59h1.48l.24-4.59v-5.29zM393.55 244.59h1.9v1.8h-1.9z" class="st2"/></g><path d="M78.33 147.12h16.15v74.85H78.33z" class="st10"/><path d="m83.31 161.71-.48-10.74 7.15 7.37-4.29.21z" style="fill:none;stroke:#323550;stroke-width:.5;stroke-miterlimit:10"/><path d="m83.31 177.31-.48-10.74 7.15 7.37-4.29.21zM82.47 197.97h7.87v.72h-7.87zM85.43 205.18h1.96v.72h-1.96z" class="st11"/><path d="M86.05 204.896v-6.66h.72v6.66zM82.47 198.4h.48v1.19h-.48zM89.86 198.4h.48v1.19h-.48z" class="st11"/><path d="M91.32 215.18a1.907 1.907 0 0 0-2.54-.92c-.16.08-.3.18-.43.29l-5.8-4.74a.848.848 0 0 0-1.18.2l-.19.27c-.02.02-.02.05-.04.08l6.59 5.24c-.08.39-.05.81.14 1.2a1.907 1.907 0 1 0 3.45-1.62zm-3.02 1.42a1.428 1.428 0 0 1 2.58-1.22c.34.71.03 1.56-.68 1.9s-1.57.04-1.9-.68z" class="st5"/><path d="M90.65 209.67c-.94-.48-2.09-.11-2.57.83-.2.38-.24.8-.18 1.19l-6.77 5.01c.01.03.02.06.03.08l.19.28c.26.39.78.5 1.18.24l5.96-4.54c.13.12.26.22.42.3.94.48 2.09.11 2.57-.83.48-.92.11-2.07-.83-2.56zm-.23.44a1.428 1.428 0 0 1-1.3 2.54 1.428 1.428 0 0 1 1.3-2.54z" class="st5"/><path d="M82.5 183.99h7.82v7.82H82.5z" class="st10"/></g></svg>