<svg xmlns="http://www.w3.org/2000/svg" xml:space="preserve" id="bg-closetag" x="0" y="0" style="enable-background:new 0 0 383.33 338.94" version="1.1" viewBox="0 0 383.33 338.94"><style>.st1{fill:#323550}</style><g style="opacity:.21"><path d="M356.2.24c-7.68 0-14.7 1.88-21.08 5.65-6.38 3.77-11.23 9.27-14.56 16.51L172.39 339.18h27.81c3.18 0 6.55-.51 10.1-1.52s6.99-2.5 10.32-4.45c3.33-1.96 6.41-4.38 9.23-7.28 2.82-2.9 5.11-6.3 6.84-10.21L383.58.24H356.2zM228.64 313.28c-1.12 2.53-2.6 4.72-4.42 6.6-1.82 1.87-3.81 3.44-5.96 4.7a28.94 28.94 0 0 1-6.67 2.88c-2.29.65-4.47.98-6.53.98H187.1L328.99 23.46c2.15-4.68 5.28-8.23 9.4-10.66 4.12-2.43 8.65-3.65 13.61-3.65h17.68L228.64 313.28zM184.93 228.15c-.43-3.33-1.66-6.41-3.69-9.23-2.03-2.82-5.14-5.25-9.34-7.28l-65.62-33.24c-3.91-2.03-8.07-3.73-12.49-5.11a221.97 221.97 0 0 0-13.8-3.8c4.64-1.16 8.95-2.35 12.93-3.58 3.98-1.23 7.71-2.86 11.19-4.89l58.01-33.46c5.94-3.33 8.91-7.89 8.91-13.69 0-1.16-.07-2.03-.22-2.61l-6.08-46.71L.25 156.45l3.26 26.29 187.29 92.12-5.87-46.71zM10.8 179.02l-2.32-18.96 150.13-83.58 4.45 32.73c.13.51.19 1.27.19 2.29 0 5.09-2.05 8.87-7.35 11.8l-58.14 31.83c-10.45 5.8-22.93 10.16-38.6 13.64 17.7 4.35 26.22 9.48 40.34 16.83l67.04 32.5c3.75 1.78 4.76 2.46 6.57 4.94 1.81 2.48 2.91 5.19 3.3 8.12l4.06 29.89L10.8 179.02z" class="st1"/></g></svg>