<svg xmlns="http://www.w3.org/2000/svg" xml:space="preserve" style="enable-background:new 0 0 210.27 337.53" viewBox="0 0 210.27 337.53"><style>.st1{opacity:.21}.st2{fill:#323550}</style><path id="bg-slash" d="M209.27 1h-25.73c-7.6 0-14.55 1.87-20.86 5.59-6.31 3.73-11.11 9.18-14.41 16.35L1.57 336.53H29.1c3.15 0 6.49-.5 10-1.51 3.51-1 6.92-2.47 10.22-4.41 3.3-1.94 6.35-4.34 9.14-7.2 2.8-2.87 5.05-6.24 6.78-10.11L209.27 3.94V1zM57.26 310.9c-1.11 2.5-2.57 4.68-4.38 6.53-1.81 1.85-3.77 3.4-5.9 4.65-2.13 1.25-4.33 2.2-6.6 2.85-2.27.65-4.42.97-6.46.97H16.14L156.59 23.99c2.13-4.63 5.23-8.15 9.31-10.56 4.07-2.41 8.56-3.61 13.47-3.61h17.5L57.26 310.9z" style="fill:none;stroke:#191b28;stroke-width:2;stroke-miterlimit:10"/></svg>