<svg xmlns="http://www.w3.org/2000/svg" xml:space="preserve" style="enable-background:new 0 0 35.9 45.58" viewBox="0 0 35.9 45.58"><style>.st1{fill:#dab279}</style><g id="resume_x5F_gold"><path d="M33.94 7.6 27 .77 26.23 0H0v45.58h35.9V9.53L33.94 7.6zm-6.28-3.42 4.95 4.87h-4.95V4.18zm6.28 39.53H1.96V1.87h23.35l.39.38v8.67h8.24v32.79z" class="st1"/><path d="M22.02 13.35h8.95v1.41h-8.95zM22.12 22.48h8.86v1.41h-8.86zM22.63 30.79h8.35v1.41h-8.35zM4.86 22.42h15.43v1.41H4.86zM4.86 30.74h15.43v1.41H4.86zM22.63 39.1h8.35v1.41h-8.35zM4.86 39.05h15.43v1.41H4.86zM13.37 34.81h17.61v1.41H13.37zM4.86 34.7h6.61v1.41H4.86zM4.99 26.55h25.98v1.41H4.99zM22.26 17.48h8.71v1.41h-8.71zM20.17 16.15s-.98-.94-1.35-1.2c-1.33-.94-4.14-1.31-4.45-1.62-.35-.35-.18-1.74-.16-1.96.02-.06.03-.11.05-.17.06.11.12.16.18.16.14 0 .39-.52.39-1.13 0-.6-.07-.83-.21-.83-.03 0-.07.02-.11.06V9.4c0-2.21-1.32-3.47-2.93-3.47-1.56 0-2.85 1.2-2.88 3.31h-.01c-.16.02-.24.42-.18.89.06.42.21.76.36.81.16.82.45 1.53.81 2.08 0 0 .25 1.18.05 1.51-.59.98-3.1 1.52-3.99 2.23-.49.39-.86.88-.86.88l-.02 1.27h15.33l-.02-2.76zm-8.55-9.01c.99 0 1.84 1.08 1.75 2.65-.09 1.63-.81 3.26-1.72 3.24-.99-.01-1.81-1.58-1.83-3.29-.02-1.62.64-2.6 1.8-2.6zm7.3 10.41-12 .02s.07-.38 1.26-.68c1.32-.33 2.32-1.02 2.66-1.81.18-.42.04-.94.13-.87.14.11.32.13.61.15.58.03 1.15-.05 1.67-.87.05-.09.06.58.47.87 1 .71 1.35.06 3.68 1.16.74.35 1.52 1.04 1.52 1.04v.99z" class="st1"/></g></svg>