<svg xmlns="http://www.w3.org/2000/svg" id="menb-case-mobile-approach1" version="1.1" viewBox="0 0 227.05 373.26"><defs><style>.cls-1{stroke-dasharray:0 0 12.24 12.24}.cls-1,.cls-3{fill:none;stroke-miterlimit:10;stroke:#dab279;stroke-width:3px}.cls-7{fill:#fff}.cls-9{fill:#323550}.cls-7,.cls-9{stroke-width:0}</style></defs><text style="fill:#dab279;font-size:21px" transform="translate(39.07 369.36)"><tspan x="0" y="0" style="font-family:Lato-Light,Lato;font-weight:300">SMALL </tspan><tspan x="69.13" y="0" style="font-family:Lato-Black,Lato;font-weight:800">MOBILE</tspan></text><path d="M.5 35.76h226.05v257.67H.5z" style="stroke:#fff;fill:none;stroke-miterlimit:10"/><path d="m23.62 0 .02 6" class="cls-3"/><path d="m23.67 18.24.77 312.03" class="cls-1"/><path d="m24.45 336.39.02 6M203.46 0l.02 6" class="cls-3"/><path d="m203.51 18.24.76 312.03" class="cls-1"/><path d="m204.29 336.39.01 6" class="cls-3"/><path d="M21.77 56.1h183.51v214.97H21.77z" class="cls-7"/><path d="M28.48 61.34h170.08v95.46H28.48z" class="cls-9"/><path d="m37.82 149.6 58.55-66.41 28.38 43.87 33.1-19.38 29.4 41.92H37.82z" class="cls-7"/><circle cx="156.78" cy="88.44" r="12.67" class="cls-7"/><path d="M31.07 173.87h140.67v17.1H31.07zM31.07 200.06h122.66v17.1H31.07zM31.07 226.24h81.77v17.1H31.07z" class="cls-9"/><path d="M63.32 322.78H46.5v2.59l-5.93-3.42 5.93-3.42v2.59h16.82v1.65ZM163.72 321.13h16.82v-2.59l5.93 3.42-5.93 3.42v-2.59h-16.82v-1.65Z" class="cls-7"/><text style="font-size:21px;fill:#fff;font-family:Lato-Light,Lato;font-weight:300" transform="translate(70.82 328.96)"><tspan x="0" y="0">container</tspan></text></svg>