<svg xmlns="http://www.w3.org/2000/svg" id="menb-case-mobile-challenge" version="1.1" viewBox="0 0 632.97 426.25"><defs><filter id="drop-shadow-1" filterUnits="userSpaceOnUse"><feOffset dx="7" dy="7"/><feGaussianBlur result="blur" stdDeviation="5"/><feFlood flood-color="#000" flood-opacity=".5"/><feComposite in2="blur" operator="in"/><feComposite in="SourceGraphic"/></filter><style>.cls-1{stroke-dasharray:0 0 12.24 12.24}.cls-1,.cls-2,.cls-4,.cls-6{stroke-miterlimit:10;fill:none}.cls-1,.cls-4,.cls-6{stroke:#dab279;stroke-width:3px}.cls-2{stroke:#fff}.cls-7{font-family:Lato-Black,Lato;font-weight:800}.cls-8,.cls-9{font-family:Lato-Light,Lato;font-weight:300}.cls-10,.cls-8{fill:#fff}.cls-11,.cls-8{font-size:21px}.cls-11{fill:#dab279}.cls-13{fill:#323550}.cls-10,.cls-13{stroke-width:0}.cls-6{stroke-dasharray:0 0 11.99 11.99}</style></defs><text class="cls-11" transform="translate(39.59 384.9)"><tspan x="0" y="0" class="cls-9">SMALL </tspan><tspan x="69.13" y="0" class="cls-7">MOBILE</tspan></text><path d="M1.02 51.31h226.05v257.67H1.02z" class="cls-2"/><path d="m24.15 15.55.01 6" class="cls-4"/><path d="m24.19 33.79.77 312.03" class="cls-1"/><path d="m24.97 351.94.02 6M203.99 15.55l.01 6" class="cls-4"/><path d="m204.03 33.79.77 312.03" class="cls-1"/><path d="m204.81 351.94.02 6" class="cls-4"/><path d="M22.29 71.64H205.8v214.97H22.29z" class="cls-10"/><path d="M29.01 76.89h170.08v95.46H29.01z" class="cls-13"/><path d="m38.34 165.15 58.55-66.42 28.39 43.88 33.1-19.38 29.4 41.92H38.34z" class="cls-10"/><circle cx="157.31" cy="103.99" r="12.67" class="cls-10"/><path d="M31.6 189.42h140.67v17.1H31.6zM31.6 215.61h122.66v17.1H31.6zM31.6 241.79h81.77v17.1H31.6z" class="cls-13"/><path d="M63.85 338.32H47.03v2.59l-5.93-3.42 5.93-3.42v2.59h16.82v1.65ZM164.25 336.68h16.82v-2.59l5.93 3.42-5.93 3.42v-2.59h-16.82v-1.65Z" class="cls-10"/><text class="cls-8" transform="translate(71.35 344.51)"><tspan x="0" y="0">container</tspan></text><text class="cls-11" transform="translate(388.51 425.1)"><tspan x="0" y="0" class="cls-9">LARGE </tspan><tspan x="69.71" y="0" class="cls-7">MOBILE</tspan></text><path d="M411.28 383.32h-52.82v2.59l-5.93-3.42 5.93-3.42v2.59h52.82v1.65ZM514.77 381.67h52.82v-2.59l5.93 3.42-5.93 3.42v-2.59h-52.82v-1.65Z" class="cls-10"/><text class="cls-8" transform="translate(420.33 389.51)"><tspan x="0" y="0">container</tspan></text><path d="M293.37 35.67h339.31v319.32H293.37z" class="cls-2"/><path d="m314.96-.09.02 6" class="cls-4"/><path d="m315 17.9.78 377.58" class="cls-6"/><path d="m315.79 401.47.02 6M610.11-.09l.01 6" class="cls-4"/><path d="m610.15 17.9.77 377.58" class="cls-6"/><path d="m610.94 401.47.01 6" class="cls-4"/><path d="M313.15 56h299.76v279.84H313.15z" class="cls-10"/><path d="M322.41 243.18h140.67v17.1H322.41zM322.41 269.36h122.66v17.1H322.41zM322.41 295.54h81.77v17.1h-81.77zM319.82 61.25h286.02v160.53H319.82z" class="cls-13"/><path d="m335.53 209.67 98.45-111.68 47.73 73.78 55.67-32.59 49.43 70.49H335.53z" class="cls-10"/><circle cx="535.57" cy="106.83" r="21.31" class="cls-10"/><path d="M629.93 346.82 467.56 193.86 627 43.67l-4.27-4.53-159.71 150.45-159.7-150.45-4.27 4.53 159.44 150.19-162.37 152.96 4.26 4.53 162.64-153.22 162.64 153.22 4.27-4.53z" style="fill:#dab279;stroke-width:2px;stroke:#fff;stroke-miterlimit:10"/><g style="filter:url(#drop-shadow-1)"><path d="M185.47 225.67h106.77v31.67l106.13-61.19-106.13-61.19v31.68H185.47v59.03z" style="fill:#191b28;stroke-width:2px;stroke:#fff;stroke-miterlimit:10"/></g></svg>