<svg xmlns="http://www.w3.org/2000/svg" id="case-skills-menb-mobile" version="1.1" viewBox="0 0 239.47 186.25"><defs><style>.cls-1{fill:#fff;stroke-width:0}</style></defs><path d="M31.36 144.13v4.95c0 3.21-.04 6.41.02 9.62.02 1.04-.24 1.49-1.37 1.42-1.42-.09-2.86-.09-4.28 0-1.17.07-1.56-.26-1.55-1.5.05-7.97.02-15.94.01-23.91 0-6.02.02-12.04-.03-18.06 0-1.16.3-1.64 1.52-1.63 4.37.04 8.77-.31 13.1.08 7.96.71 12.28 5.44 12.63 13.19.36 7.89-3.94 13.61-11.56 15.06-2.7.51-5.49.53-8.48.79Zm.08-14.71h-.01v7c0 .59.08 1.05.82 1 2.1-.14 4.26-.03 6.3-.48 3.88-.85 5.69-3.72 5.55-8.19-.13-3.91-2.21-6.5-6.03-7.13-1.81-.3-3.7-.15-5.55-.24-.87-.04-1.1.35-1.08 1.16.04 2.29.01 4.58.01 6.87ZM55.47 151.87c2.5 1.54 4.94 2.47 7.62 2.6.99.05 1.99 0 2.96-.16 1.27-.21 2.27-.88 2.64-2.2.36-1.31-.06-2.47-1.1-3.24-1.31-.98-2.75-1.78-4.13-2.66-1.64-1.04-3.43-1.9-4.88-3.16-5.05-4.39-3.9-12.57 2.15-15.41 4.18-1.97 8.51-1.57 12.81-.33.36.1.85.61.86.94.08 1.98.04 3.96.04 6.12-.49-.19-.81-.28-1.1-.43-2.17-1.11-4.48-1.58-6.9-1.49-.72.03-1.48.15-2.15.42-2.17.89-2.64 3.3-.84 4.78 1.32 1.09 2.91 1.85 4.36 2.78 1.67 1.06 3.5 1.96 4.97 3.26 5.24 4.62 3.85 13.22-2.58 15.92-4.58 1.93-9.23 1.49-13.8-.23-.68-.26-.99-.69-.96-1.48.06-1.93.02-3.85.02-6.03Z" class="cls-1"/><path d="M82.42 89.53H17.74C7.93 89.53 0 97.38 0 107.1v61.59c0 9.71 7.93 17.57 17.74 17.57h64.69c9.81 0 17.74-7.85 17.74-17.57V107.1c0-9.71-7.93-17.57-17.74-17.57Zm13.52 77.54c.04 8.27-6.7 15.01-15.05 15.05H19.32c-8.35 0-15.15-6.74-15.15-15v-58.45c0-8.27 6.8-15 15.15-15h61.47c8.37 0 15.15 6.72 15.15 15v58.4Z" class="cls-1"/><path d="M135.79 0c.85.05 1.7.1 2.56.16 4.58.32 9.03 1.19 13.24 3.06 3.12 1.39 5.89 3.25 8.04 5.95 1.83 2.3 2.83 4.94 3.2 7.84.69 5.44-.57 10.51-3.11 15.26-4.94 9.22-12.41 15.6-22.17 19.3a58.933 58.933 0 0 1-13.53 3.37c-3.62.46-7.25.56-10.88.18-3.99-.42-7.63-1.69-10.72-4.32-1.41-1.2-2.64-2.54-3.23-4.35a5.5 5.5 0 0 1-.24-1.05c-.05-.34.04-.67.34-.89.3-.23.61-.27.91 0 .24.21.5.41.71.65 1.66 1.91 3.82 3.02 6.18 3.78 3.17 1.01 6.42 1.23 9.71.91 6.18-.59 12.07-2.2 17.65-4.92 5.68-2.77 10.68-6.44 14.67-11.39 2.16-2.68 3.88-5.6 4.78-8.95.63-2.32.77-4.65.08-7-.62-2.11-2-3.59-3.81-4.73-2.08-1.3-4.38-2.03-6.76-2.5-4.01-.78-8.05-.8-12.1-.37-9.36.99-18.07 4.05-26.42 8.26-5.1 2.57-10.04 5.41-14.7 8.73-3.67 2.62-7.11 5.49-10.05 8.93-2.23 2.6-4.1 5.42-5.17 8.69-1.21 3.7-1.43 7.41.04 11.1.98 2.46 2.52 4.55 4.31 6.47 2.51 2.69 5.39 4.95 8.27 7.22 2.81 2.22 5.62 4.45 8.38 6.73 1.15.95 2.18 2.05 3.3 3.12.77-.42 1.59-.86 2.41-1.31 4.41-2.41 8.81-4.82 13.21-7.24.19-.1.36-.27.49-.45 2.72-3.59 5.99-6.53 10.13-8.42 1.45-.66 2.97-1.06 4.59-.88 2.08.22 3.39 1.38 4.05 3.32.53 1.56.56 3.18.43 4.8-.06.69-.16 1.38-.25 2.09.13-.08.28-.14.38-.23 1.09-.99 2.29-.86 3.51-.32 1.3.57 1.76 1.48 1.41 2.84-.89 3.46-1.85 6.91-2.7 10.39-.54 2.19-.99 4.4-1.36 6.63-.16 1-.01 2.05 0 3.07 0 .09.04.18.07.27.01.03.05.06.13.16.19-.23.39-.41.52-.65.74-1.36 1.53-2.7 2.17-4.1 2.94-6.41 5.84-12.83 8.74-19.26 1.19-2.65 2.39-5.31 3.46-8.02.63-1.61 1.05-3.3 1.49-4.98.19-.73.61-1.13 1.27-1.35 1.91-.64 3.87-.77 5.86-.66.51.03 1.04.13 1.53.29.37.12.72.35 1.02.6.38.31.47.72.31 1.23-.55 1.74-1.13 3.48-1.58 5.25-.56 2.19-.33 4.39-.06 6.61.28 2.29 1.34 4.25 2.34 6.31.07-.08.12-.12.15-.17 2.92-4.85 5.74-9.76 8.22-14.86.88-1.81 1.49-3.71 1.93-5.67.19-.87.53-1.71.77-2.57.13-.47.41-.8.85-.93.83-.25 1.66-.52 2.51-.65 1.52-.24 3.06-.37 4.59-.05.56.12 1.1.39 1.58.71.45.29.55.76.37 1.31-.53 1.61-1.06 3.22-1.5 4.86-.59 2.21-.47 4.44-.18 6.69.24 1.84.84 3.52 1.66 5.15.58 1.16 1.17 2.31 1.76 3.49.67-.29 1.31-.59 1.96-.85 4.89-2.01 9.99-2.8 15.26-2.4 4.34.33 8.4 1.53 12.02 4.01 3.19 2.19 5.6 5.03 6.84 8.75.98 2.94 1.15 5.91-.14 8.81-1.25 2.82-3.44 4.69-6.27 5.82-.38.15-.84.18-1.26.18-.19 0-.47-.2-.53-.37-.07-.19-.01-.53.13-.68.26-.28.6-.48.93-.69 1.24-.79 2.33-1.74 3.17-2.97 1.62-2.36 1.74-4.87.77-7.49-1.08-2.93-3.1-5.09-5.72-6.71-2.49-1.54-5.23-2.4-8.1-2.89-3.12-.53-6.27-.68-9.43-.4-2.58.23-5.09.79-7.5 1.75-.12.05-.24.1-.4.17.05.17.1.33.16.49.58 1.59.99 3.21 1.14 4.9.23 2.61-.61 4.88-2.23 6.87-2.35 2.89-5.31 4.94-8.82 6.17-1.09.38-2.19.79-3.33.99-2.25.41-4.19-1.17-4.36-3.45-.17-2.17.42-4.19 1.33-6.12 1.55-3.26 3.82-5.98 6.45-8.41.5-.46 1.02-.9 1.46-1.29-.9-2.13-1.91-4.17-2.64-6.31-.72-2.12-1.17-4.34-1.73-6.49-.02.04-.08.13-.14.23-2.74 5.44-5.76 10.71-9.24 15.7-.15.22-.15.39-.06.62.76 1.8 1.39 3.64 1.61 5.6.52 4.4-.86 8.07-4.38 10.79-3.51 2.71-7.52 4.19-11.97 4.34-.82.03-1.67-.06-2.45-.27-1.52-.4-2.22-1.7-1.75-3.2.2-.62.51-1.25.92-1.76 1.87-2.35 3.8-4.67 5.7-7 1.12-1.38 2.25-2.75 3.36-4.14.55-.7 1.05-1.45 1.59-2.16.14-.18.12-.32.03-.5-.79-1.65-1.62-3.28-2.36-4.96-1.12-2.53-1.69-5.23-2.26-7.92-.05-.22-.09-.43-.15-.75-.1.22-.15.33-.2.45-3.9 9.89-8.5 19.45-13.76 28.69-1 1.76-2.2 3.35-3.77 4.64-.64.53-1.35.98-2.2 1.1-1.5.22-2.71-.29-3.59-1.54-.71-1.01-1.02-2.17-1.21-3.36-.39-2.52-.22-5.04.11-7.55.01-.08.02-.15-.02-.25-.14.33-.28.65-.42.98-1.41 3.38-2.86 6.74-4.69 9.92a15.2 15.2 0 0 1-1.82 2.48c-1.24 1.37-2.86 1.71-4.65 1.55-1.55-.13-2.75-.85-3.69-2.07-1.43-1.86-2.33-3.98-2.99-6.21-.83-2.82-1.25-5.68-1.01-8.63.28-3.47.79-6.9 1.98-10.2.02-.05.02-.1.06-.3-3.07 1.76-6.04 3.47-9.04 5.19.87 1.65 1.37 3.37 1.69 5.15.49 2.78.54 5.58.2 8.39-.42 3.46-1.35 6.77-3.09 9.79-4.16 7.19-10.27 11.73-18.5 13.24-3.17.58-6.34.38-9.45-.47-1.5-.41-2.58-1.43-3.48-2.65-1.92-2.6-2.61-5.56-2.36-8.74.36-4.7 2.43-8.6 5.74-11.9 3.13-3.13 6.69-5.7 10.41-8.06 2.83-1.78 5.74-3.41 8.73-4.91.44-.22.87-.47 1.37-.74-.61-.5-1.17-.99-1.77-1.42-2.74-1.96-5.48-3.91-8.24-5.84-3.79-2.65-7.56-5.33-11.01-8.43-2.98-2.69-5.71-5.6-7.75-9.09-1.25-2.14-2.17-4.4-2.61-6.85l-.12-.58v-2.25c.02-.06.06-.12.07-.18.24-2.47.97-4.81 1.97-7.07 2.04-4.6 4.99-8.58 8.41-12.23 4.03-4.31 8.6-7.98 13.49-11.24C93.55 12.29 101.7 8.3 110.2 5c6.84-2.66 13.88-4.44 21.23-4.85.72-.04 1.44-.08 2.16-.13h2.25ZM97.31 85.81c-.35.21-.62.37-.9.53-4.31 2.51-8.46 5.26-12.28 8.48-2.26 1.9-4.24 4.03-5.57 6.7-.94 1.9-1.58 3.88-1.49 6.04.09 2.37 1.3 3.62 3.66 3.74 1.97.1 3.8-.48 5.56-1.29 6.49-2.97 13.29-11.15 11.54-21.67-.14-.84-.34-1.66-.52-2.54Zm20.03 3.86c.02 1.27.1 2.96.65 4.59.16.47.4.93.69 1.34.32.45.75.49 1.19.15.3-.23.6-.51.8-.83.47-.71.96-1.43 1.3-2.21 1.18-2.72 2.32-5.45 3.43-8.2 1.71-4.23 3.27-8.53 4.41-12.95.26-1.02.43-2.07.55-3.11.1-.92-.35-1.34-1.27-1.22-.54.07-1.1.25-1.59.5-1.62.81-2.93 2.02-3.95 3.51a48.27 48.27 0 0 0-2.41 3.88c-2.46 4.38-3.76 9.08-3.79 14.56Zm64.11-10.02c-.07.05-.11.07-.14.09-.15.13-.3.27-.44.4a19.367 19.367 0 0 0-5.2 8.07c-.22.65-.39 1.33-.48 2.01-.08.64.14.76.72.53 3.15-1.28 5.34-3.39 5.9-6.89.23-1.42.17-2.81-.36-4.21Zm-29.24 16.51c.53.23.92.11 1.23-.09.96-.6 1.93-1.2 2.81-1.9 1.56-1.25 2.85-2.73 3.56-4.65.32-.87.47-1.76.39-2.7-2.42 3.29-5.18 6.27-8 9.33ZM208.02 100.14c1.48.21 2.97.36 4.44.64 6.74 1.32 12.52 4.44 17.36 9.31a32.3 32.3 0 0 1 4.76 6.1c.14.23.29.65.18.8-.15.21-.54.34-.82.34-8.8.02-17.61.07-26.41-.02-3.08-.03-6.02.3-8.78 1.72-4.06 2.09-6.78 5.33-8.21 9.67-.14.42-.38 1.02-.7 1.11-.57.17-.7-.53-.92-.91-2.92-5.03-5.82-10.08-8.75-15.11-.34-.59-.31-.98.13-1.5 4.84-5.76 10.89-9.57 18.23-11.27 1.6-.37 3.26-.51 4.89-.76l.7-.12h3.91Z" class="cls-1"/><path d="M172.66 131.45c.17-1.24.32-2.49.53-3.73.63-3.67 1.88-7.12 3.67-10.38.35-.64.81-.57 1.24.17 2.45 4.25 4.91 8.5 7.36 12.75 2.15 3.75 4.29 7.5 6.43 11.25 3.61 6.34 10.9 9.51 17.98 7.83.19-.05.38-.11.57-.12.47-.04.74.29.59.75-.07.2-.18.39-.29.58-2.93 5.08-5.88 10.15-8.78 15.24-.38.66-.76.84-1.51.69-9.32-1.75-16.72-6.48-22.08-14.3-3.31-4.83-5.13-10.21-5.59-16.05-.02-.21-.07-.42-.11-.63v-4.04Z" class="cls-1"/><path d="M227.26 121c2.98 0 5.96.02 8.94-.01.63 0 .93.23 1.14.8 6.26 16.77-1.71 35.41-18.19 42.49-3.92 1.68-8.02 2.54-12.28 2.63-.29 0-.73-.09-.84-.29-.11-.2.02-.62.16-.88 4.36-7.59 8.7-15.19 13.14-22.73 1.36-2.31 2.53-4.65 2.84-7.34.57-4.91-.74-9.24-4.02-12.96-.24-.28-.52-.53-.73-.83-.28-.4-.1-.78.38-.86.19-.03.39-.02.59-.02h8.87Z" class="cls-1"/><path d="M218.54 133.63c-.13 7.09-5.83 12.45-12.6 12.37-7.02-.08-12.41-5.72-12.36-12.53.05-7.13 5.79-12.46 12.55-12.4 7.11.06 12.41 5.81 12.4 12.57Z" class="cls-1"/></svg>