<svg xmlns="http://www.w3.org/2000/svg" id="case-menb-mobile-approach2" version="1.1" viewBox="0 0 340.31 360.59"><defs><style>.cls-2,.cls-3{fill:none;stroke-miterlimit:10}.cls-2{stroke-dasharray:0 0 11.91 11.91}.cls-2,.cls-3{stroke:#dab279;stroke-width:3px}.cls-7{fill:#fff}.cls-9{fill:#323550}.cls-7,.cls-9{stroke-width:0}</style></defs><text style="fill:#dab279;font-size:21px" transform="translate(96.62 356.68)"><tspan x="0" y="0" style="font-family:Lato-Light,Lato;font-weight:300">LARGE </tspan><tspan x="69.71" y="0" style="font-family:Lato-Black,Lato;font-weight:800">MOBILE</tspan></text><path d="M119.39 314.9H66.57v2.59l-5.93-3.42 5.93-3.42v2.59h52.82v1.65ZM222.88 313.26h52.82v-2.59l5.93 3.42-5.93 3.42v-2.59h-52.82v-1.65Z" class="cls-7"/><text style="font-size:21px;fill:#fff;font-family:Lato-Light,Lato;font-weight:300" transform="translate(128.44 321.09)"><tspan x="0" y="0">container</tspan></text><path d="M.5 35.76h339.31v251.73H.5z" style="fill:none;stroke-miterlimit:10;stroke:#fff"/><path d="m22.1 0 .01 6" class="cls-3"/><path d="m22.14 17.92.77 303.74" class="cls-2"/><path d="m22.92 327.61.02 6M317.24 0l.02 6" class="cls-3"/><path d="m317.29 17.92.76 303.74" class="cls-2"/><path d="m318.07 327.61.01 6" class="cls-3"/><path d="M20.28 56.1h299.76v211.54H20.28z" class="cls-7"/><path d="M26.95 173.24h140.67v17.1H26.95zM26.95 199.42h122.66v17.1H26.95zM26.95 225.61h81.77v17.1H26.95zM26.95 61.34h286.02v95.46H26.95z" class="cls-9"/><path d="m95.25 149.6 58.54-66.41 28.39 43.87 33.1-19.38 29.4 41.92H95.25z" class="cls-7"/><circle cx="204.63" cy="88.45" r="12.67" class="cls-7"/></svg>