<svg xmlns="http://www.w3.org/2000/svg" xml:space="preserve" style="enable-background:new 0 0 60.02 87.72" viewBox="0 0 60.02 87.72"><style>.st0{fill:#fff}</style><g id="vscode"><text class="st0" style="font-size:16.0459px;font-family:&quot;Lato-Light&quot;" transform="translate(.633 84.734)">VS Code</text><path d="M42.17 58.45c-2.12-1.91-4.24-3.82-6.35-5.74-5.68-5.15-11.35-10.31-17.03-15.47-.72-.66-.72-.66-1.52-.05-3.16 2.4-6.33 4.8-9.5 7.2-1.19.9-1.96.84-3.05-.17-1.3-1.21-2.62-2.39-3.93-3.58-.32-.29-.53-.62-.62-1.04-.12-.53.06-.94.45-1.29 2.25-2.05 4.5-4.1 6.76-6.15.87-.79 1.73-1.58 2.61-2.35.28-.24.21-.38-.03-.6-3.11-2.81-6.22-5.64-9.33-8.45-.78-.71-.87-1.46-.1-2.17 1.52-1.42 3.08-2.8 4.65-4.16.72-.62 1.45-.57 2.21.01 3.4 2.58 6.8 5.14 10.19 7.73.38.29.59.27.93-.04 3.4-3.12 6.81-6.22 10.22-9.32L41.74.97c.13-.12.26-.27.46-.32.07 0 .14.02.2 0 1.47-.29 2.65.68 2.65 2.18v12.7c0 .22.03.45-.11.65-2.07 1.58-4.13 3.17-6.2 4.75-3.65 2.79-7.29 5.58-10.95 8.35-.31.24-.37.35-.01.61 3.33 2.5 6.64 5.02 9.96 7.53l7.29 5.49c0 4.61.01 9.22.01 13.84 0 .79-.77 1.58-1.54 1.7-.41.06-.81.06-1.22.08l-.02-.02c-.03-.01-.06-.04-.09-.06z" class="st0"/><path d="M44.94 16.19c.14-.2.11-.43.11-.65V2.84c0-1.5-1.18-2.47-2.65-2.18-.07.01-.14 0-.2 0 1.04-.81 2.18-.82 3.3-.29 2.92 1.38 5.82 2.81 8.73 4.21 1.41.68 2.83 1.33 4.23 2.03 1.02.51 1.56 1.32 1.56 2.51-.01 13.59 0 27.17-.02 40.75 0 1.15-.6 2.12-1.66 2.65-4.51 2.24-9.03 4.46-13.55 6.68-.81.4-1.83.11-2.5-.65.41-.02.81-.02 1.22-.08.77-.12 1.54-.91 1.54-1.7.01-4.61 0-9.22-.01-13.84.01-.12.02-.24.02-.36V16.62c-.01-.16.06-.33-.12-.43zM42.17 58.45c.03.02.06.05.09.07-.03-.02-.06-.05-.09-.07z" class="st0"/></g></svg>