<svg xmlns="http://www.w3.org/2000/svg" xml:space="preserve" style="enable-background:new 0 0 53.73 78.3" viewBox="0 0 53.73 78.3"><style>.st0{fill:#fff}</style><g id="css3"><text class="st0" style="font-size:16.0459px;font-family:&quot;Lato-Light&quot;" transform="translate(8.182 75.317)">CSS3</text><path d="M28.85 53.74h-4.09c-.1-.15-.25-.1-.38-.11-3.3-.32-6.45-1.19-9.42-2.67C4 45.47-1.8 33.71.5 21.65 2.8 9.61 13.44.47 25.7.02c5.32-.19 10.32.98 14.88 3.76 7.18 4.4 11.48 10.78 12.86 19.1.1.63.07 1.28.3 1.89v4.2c-.2.49-.16 1.02-.24 1.53-.91 6.3-3.66 11.65-8.3 16-4.06 3.81-8.87 6.12-14.39 6.96-.66.09-1.33.07-1.96.28zM26.38 23.1V23l.48-.21c4.13-1.76 8.26-3.52 12.4-5.27.34-.14.5-.32.53-.72.12-1.46.27-2.92.44-4.38.09-.78.1-.66-.61-.66h-8.29c-6.33 0-12.67 0-19-.01-.44 0-.6.05-.52.56.23 1.45.41 2.91.54 4.37.05.55.26.64.74.63 4.34-.02 8.68-.01 13.02-.01h.52c-.11.15-.22.2-.33.25-4.28 1.78-8.55 3.56-12.83 5.31-.42.17-.53.36-.48.81.15 1.44.25 2.89.34 4.34.02.41.17.53.57.52 1.57-.02 3.15 0 4.72 0l13.75.03c.29 0 .64-.1.61.44-.15 2.13-.27 4.26-.38 6.39-.02.35-.19.47-.49.55-1.87.51-3.74 1.04-5.6 1.57-.26.07-.51.07-.77 0-1.76-.45-3.52-.9-5.29-1.31-.42-.1-.56-.3-.58-.7-.07-1.17-.19-2.34-.27-3.5-.02-.29-.1-.43-.44-.42-1.66.02-3.32.02-4.99 0-.34 0-.4.12-.37.43.24 2.58.47 5.15.68 7.73.03.38.16.54.52.64 3.62 1.05 7.24 2.12 10.86 3.19.19.05.36.09.56.03 3.67-1.07 7.35-2.14 11.02-3.2.22-.06.35-.16.37-.42.12-1.57.27-3.14.41-4.7.34-3.87.67-7.73 1.02-11.6.04-.44-.02-.6-.52-.6-3.92.02-7.84.01-11.76.01-.21.01-.39.01-.58.01z" class="st0"/></g></svg>