<svg xmlns="http://www.w3.org/2000/svg" xml:space="preserve" style="enable-background:new 0 0 42.96 68.9" viewBox="0 0 42.96 68.9"><style>.st0{fill:#fff}</style><g id="amp"><text class="st0" style="font-size:16.0459px;font-family:&quot;Lato-Light&quot;" transform="translate(4.254 65.912)">AMP</text><path d="M0 21.47C.01 9.55 9.58.03 21.47 0c11.84-.03 21.52 9.68 21.49 21.52-.03 11.86-9.73 21.49-21.52 21.43C9.53 42.9-.01 33.37 0 21.47zm18.08 13.12c1.35.36 1.71.23 2.33-.81 2.81-4.67 5.62-9.33 8.4-14.02.19-.32.29-.8.2-1.14-.13-.5-.65-.5-1.11-.5-1.54.01-3.09 0-4.68 0 .55-3.29 1.09-6.54 1.63-9.77-1.39-.37-1.73-.24-2.37.84-2.71 4.52-5.43 9.04-8.13 13.57-.29.48-.82.95-.45 1.62.38.67 1.04.45 1.61.45 1.36.02 2.72.01 4.16.01-.53 3.31-1.06 6.54-1.59 9.75z" class="st0"/></g></svg>