<svg xmlns="http://www.w3.org/2000/svg" xml:space="preserve" style="enable-background:new 0 0 79.09 57.06" viewBox="0 0 79.09 57.06"><style>.st0{fill:#fff}</style><g id="sitecore"><path d="M57.97 18.76c-.1 9.13-6.67 17-15.41 18.4-9.75 1.55-18.78-4.62-20.96-14.31-2.23-9.9 3.83-19.91 13.51-22.31C45.49-2.03 55.9 4.86 57.62 15.45c.17 1.09.23 2.21.35 3.31zm-31.76-.16c-.01 7.57 6 13.7 13.44 13.73 7.46.03 13.51-6.1 13.54-13.7.02-7.58-6.02-13.76-13.47-13.77-7.46-.01-13.5 6.14-13.51 13.74z" class="st0"/><path d="M31.38 25.94c3.52 1.5 7.07 1.71 10.58.12 3.66-1.65 5.28-4.76 5.72-8.68h4.55c.16 2.35-.29 4.59-1.28 6.83-1.07-.57-2.09-1.12-3.14-1.68-1.98 3.1-4.45 5.47-8.26 5.85-3.04.31-5.74-.65-8.17-2.44z" class="st0"/><path d="M27.82 23.2c2 3.08 4.8 4.99 8.38 5.78 4.84 1.07 8.54-.69 11.4-4.55.14-.19.27-.38.41-.57.01-.02.04-.02.11-.06.73.41 1.48.84 2.24 1.26-1.16 3.33-6.18 6.28-10.68 6.29-6.35.02-10.19-3.99-11.86-8.15z" class="st0"/><path d="M48.97 9.88c1.51 1.91 2.66 3.91 3.02 6.39-1.76.07-3.44.14-5.2.22-.13 3.14-1.07 5.9-3.66 7.87-1.68 1.27-3.62 1.8-5.83 2.01.78-.27 1.43-.45 2.05-.71 3.85-1.62 6.06-5.19 5.75-9.36-.07-.98-.29-1.95-.4-2.92-.02-.21.05-.53.19-.64 1.34-.96 2.68-1.88 4.08-2.86zM59.19 50.9c.01 1.83-.4 3.53-1.87 4.74-1.85 1.52-3.98 1.63-6.15.89-2.02-.69-3.06-2.27-3.39-4.32-.2-1.25-.16-2.49.24-3.7.63-1.91 1.94-3.09 3.9-3.55 1.03-.24 2.07-.24 3.1-.01 2.41.54 3.97 2.43 4.17 5.07.02.3 0 .59 0 .88zm-2.43-.04c-.15-.81-.22-1.64-.47-2.41-.43-1.35-1.45-2.02-2.87-2.02-1.43 0-2.44.66-2.89 2.01a7.583 7.583 0 0 0 0 4.89c.45 1.34 1.46 2 2.9 1.99 1.43-.01 2.45-.68 2.87-2.03.24-.77.31-1.6.46-2.43zM70.8 51.35c-.03 2.37 1.16 3.72 3.42 3.84.83.04 1.67-.07 2.49-.18.74-.1 1.37.44 1.25 1.17-.03.16-.23.37-.39.4-2.32.52-4.61.62-6.78-.58-1.18-.65-1.89-1.71-2.24-3-.37-1.34-.4-2.7-.08-4.06.68-2.89 3.05-4.47 6.12-4.11 2.46.29 3.98 1.77 4.37 4.3.07.42.1.85.12 1.27.03.8-.11.93-.89.94h-6.82c-.17.01-.36.01-.57.01zm5.79-1.6c.14-1.86-1.09-3.38-2.73-3.4-1.7-.03-3.1 1.53-3.03 3.4h5.76zM27.25 51.35c-.04 2.33 1.13 3.7 3.35 3.83.88.05 1.77-.09 2.65-.19.67-.08 1.33.57 1.16 1.23-.04.16-.26.34-.42.38-2.16.49-4.31.58-6.37-.39-1.88-.88-2.66-2.52-2.85-4.49-.13-1.31-.03-2.6.51-3.82.97-2.23 3.13-3.36 5.76-3.05 2.6.31 4.14 1.92 4.45 4.69.04.36.06.72.07 1.07.01.55-.17.74-.73.74-1.04.01-2.08 0-3.13 0h-4.45zm5.78-1.59c.13-1.89-1.1-3.39-2.74-3.41-1.7-.02-3.08 1.53-3.01 3.41h5.75zM4.23 57.06c-1.22-.25-2.44-.46-3.65-.75-.65-.16-.69-.35-.46-.98.02-.05.04-.1.05-.14.28-.77.4-.76 1.17-.58 1.04.25 2.1.43 3.16.55.42.05.89-.07 1.29-.23.98-.4 1.21-1.62.4-2.3-.53-.44-1.18-.73-1.79-1.07-1-.56-2.1-1.01-3.01-1.7-1.26-.95-1.24-2.73-.1-3.83.19-.19.41-.37.65-.5 2.05-1.05 4.15-.93 6.26-.21.15.05.31.42.27.6-.21.93-.45.99-1.38.8-.88-.18-1.78-.27-2.68-.28-.37-.01-.8.21-1.11.44-.59.43-.62 1.25-.08 1.74.34.31.74.55 1.14.76.67.35 1.38.61 2.04.97.6.32 1.21.66 1.71 1.11 1.46 1.28 1.33 3.36-.23 4.51-.83.6-1.78.84-2.79.92-.27.02-.55 0-.82 0-.02.07-.03.12-.04.17zM43.51 56.98c-.67-.08-1.29-.1-1.89-.23-2.4-.52-3.89-2.22-4.22-4.86-.29-2.3.21-4.38 2.13-5.88 1.92-1.49 4.07-1.48 6.29-.78.39.12.52.36.33.79-.41.94-.4.95-1.4.69-.25-.06-.5-.13-.75-.16-2.06-.3-3.41.58-3.92 2.61-.32 1.27-.28 2.55.12 3.79.41 1.27 1.28 2.03 2.61 2.11.86.05 1.73-.06 2.6-.15.66-.07.84.07 1.03 1 .09.45-.06.67-.65.77-.76.13-1.54.2-2.28.3zM19.99 46.47c-.01.22-.03.39-.03.55v5.59c0 .15 0 .31.02.46.11 1.46.71 2.04 2.16 2.11.09 0 .17 0 .26.01 1.01.01 1.25.31.99 1.33-.03.12-.22.3-.32.3-1.05-.06-2.13-.03-3.15-.26-1.51-.34-2.29-1.44-2.3-2.99-.01-3.62 0-7.24-.01-10.87 0-.42.15-.68.57-.78.4-.09.79-.22 1.19-.32.4-.09.61.06.6.51-.02.73 0 1.47 0 2.2v.6c.66 0 1.25.01 1.85-.01.33-.01.45.13.47.45.08 1.08.05 1.11-1.04 1.11-.42.01-.82.01-1.26.01zM61.61 51.98c0-1.25-.01-2.49 0-3.74.02-1.88.94-3.02 2.81-3.32.85-.14 1.73-.11 2.6-.13.11 0 .32.1.32.16.02.44.02.88-.02 1.32-.01.06-.25.14-.38.15-.37.03-.75 0-1.13.03-1.11.09-1.7.66-1.82 1.78-.03.3-.04.61-.04.92v6.97c0 .6-.08.68-.67.69-.36.01-.72 0-1.08 0-.41 0-.61-.17-.6-.62.03-1.41.01-2.81.01-4.21zM14.19 50.73v5.38c0 .59-.08.67-.68.69-.38.01-.75.01-1.13-.01-.36-.01-.54-.17-.54-.58.01-3.45.01-6.91 0-10.36 0-.45.18-.7.61-.8.37-.08.72-.21 1.09-.29.52-.11.64 0 .65.53v5.44z" class="st0"/></g></svg>