<svg xmlns="http://www.w3.org/2000/svg" xml:space="preserve" style="enable-background:new 0 0 53.74 55.82" viewBox="0 0 53.74 55.82"><style>.st0{fill:#fff}</style><g id="dnn"><path d="M41.93 10.41c-.03-.12-.05-.22-.08-.3-1.78-4.4-5.2-7.78-9.71-9.25v9.71h9.84c-.02-.04-.03-.11-.05-.16zM31.12 10.58V.57c-1.17-.29-2.4-.47-3.68-.5C25.48.02 23.53.01 21.57 0v-.01H10.91l.03 15.95c0 1.46 0 2.91-.01 4.37H21.5v-.99h.01c0-.94 0-1.89-.01-2.83v-1.1c0-1.45.01-2.9.01-4.35 0-.15.06-.3.09-.47h8.07c.48.01.97.01 1.45.01zM10.9 31.9h10.6V21.34H10.92c-.01 3.52-.02 7.04-.02 10.56zM32.14 11.6v1.01h-.01c.01 1.37.01 3.07-.02 3.89-.09 2.45-2.9 4.76-5.72 4.83-.33.01-.66 0-.99.01v.01h-2.88V31.9c1.64 0 3.28-.02 4.92-.06 6.71-.18 11.85-4.08 14.27-9.72h.06s1.07-2.7 1.07-6.07c0-1.76-.29-3.33-.57-4.44H32.14zM53.53 45.89c-1.07-4.01-4.09-6.34-8.24-6.34H37.47v16.19h5.26V44.82c.99 0 1.83-.01 2.68 0 1.81.03 2.98 1.18 3.03 2.99.03 1.05.01 2.1.01 3.15v4.84h5.3v-9.35c-.08-.18-.17-.36-.22-.56zM9.23 39.64c-3.03-.23-6.1-.05-9.23-.05v16.17c3.04 0 6 .14 8.94-.03 4.2-.25 7.36-3.75 7.46-7.97.09-4.06-3.06-7.8-7.17-8.12zm-.98 11.01c-.97.04-1.95.01-3 .01V44.7c1.18 0 2.3-.11 3.39.03 1.63.21 2.65 1.56 2.56 3.13-.09 1.54-1.3 2.72-2.95 2.79zM26.56 39.55c-2.31-.01-4.61 0-6.92 0-.36 0-.71.03-1.05.05v16.13h5.21V44.81c1.05 0 1.93-.01 2.81 0 1.77.03 2.92 1.18 2.94 2.94.02 2.2 0 4.4.01 6.6v1.36h5.3c0-2.92.14-5.77-.03-8.6-.3-4.46-3.78-7.54-8.27-7.56z" class="st0"/></g></svg>