<svg xmlns="http://www.w3.org/2000/svg" xml:space="preserve" style="enable-background:new 0 0 43.55 66.19" viewBox="0 0 43.55 66.19"><style>.st0{fill:#fff}</style><g id="liquid"><text class="st0" style="font-size:16.0459px;font-family:&quot;Lato-Light&quot;" transform="translate(.76 63.205)">Liquid</text><path d="M20.87 43.56c-.26-.02-.53-.05-.79-.07-5.15-.42-9.61-2.41-13.34-5.96C3.56 34.51 1.5 30.84.53 26.56c-.27-1.19-.44-2.4-.49-3.62 0-.08-.02-.16-.03-.25v-1.82c.02-.26.05-.53.07-.79.42-5.15 2.41-9.61 5.97-13.35C9.07 3.56 12.74 1.5 17.01.52c1.85-.42 3.72-.59 5.62-.51 3.19.13 6.22.9 9.06 2.36 1.96 1 3.73 2.27 5.31 3.82 2.69 2.64 4.59 5.76 5.67 9.37.51 1.69.81 3.41.87 5.17.23 6.11-1.7 11.44-5.85 15.93-3.03 3.28-6.77 5.38-11.12 6.38-1.23.28-2.47.44-3.73.5-.05 0-.09.02-.14.03-.62-.01-1.22-.01-1.83-.01zm22.21-21.77c0-11.66-9.36-21.11-20.94-21.3C10.22.3.66 9.81.48 21.43.3 33.35 9.83 42.91 21.45 43.08c11.99.18 21.64-9.5 21.63-21.29z" class="st0"/><path d="M3.57 21.77C3.6 11.69 11.73 3.54 21.85 3.58c10.05.04 18.18 8.17 18.14 18.29-.04 10.04-8.18 18.16-18.29 18.12-10.03-.05-18.11-8.15-18.13-18.22zm16.45.18c.18.26.36.51.53.75.3.43.3.42.77.17 1.41-.74 2.81-.73 4.21.03 1.29.7 2.58.72 3.88.02 1.45-.79 2.89-.78 4.34.01 1.3.7 2.6.69 3.89-.04.56-.32 1.16-.52 1.8-.55.12-.01.15-.05.15-.16a17.9 17.9 0 0 0-.31-3.73c-.75-3.81-2.51-7.08-5.38-9.69-4.44-4.04-9.67-5.53-15.56-4.41-4.94.92-8.77 3.6-11.52 7.79-2 3.05-2.91 6.44-2.84 10.09.01.35.03.69.05 1.1.34-.16.63-.29.92-.44 1.42-.79 2.84-.79 4.26 0 1.29.72 2.58.72 3.87.01 1.45-.8 2.88-.79 4.33.01.34.19.72.32 1.09.43.29.08.61.08.91.11.01-.02.01-.04.02-.06-.16-.29-.31-.59-.47-.87-.04-.06-.13-.13-.21-.13a3.84 3.84 0 0 1-1.62-.47c-.46-.25-.93-.49-1.46-.57-.05-.01-.11-.07-.14-.12-.32-.55-.45-1.15-.38-1.78.2-1.63 1.5-2.73 3.14-2.66 1.82.08 3.15 1.87 2.7 3.63-.15.6-.48 1.1-.97 1.53zM4.55 26.33c.11-.06.18-.1.26-.14 1.38-.75 2.78-.77 4.15 0 1.36.75 2.68.75 4.03 0 1.38-.77 2.79-.75 4.17.01 1.31.73 2.62.75 3.93.02.68-.38 1.41-.58 2.18-.57.74.01 1.44.21 2.09.57 1.28.71 2.57.72 3.86.02 1.46-.79 2.9-.79 4.35 0 1.27.69 2.56.69 3.83-.01.52-.28 1.05-.48 1.63-.56.05-.01.13-.07.14-.12.09-.44.17-.88.26-1.33-.11 0-.2-.01-.29 0-.51.06-.99.21-1.44.46-1.45.83-2.91.83-4.38.03-1.27-.69-2.56-.69-3.83 0-1.46.79-2.9.79-4.35 0-1.27-.69-2.56-.69-3.83.01-1.46.8-2.9.79-4.36-.02-1.25-.7-2.53-.69-3.79.01-1.45.81-2.9.83-4.34.01-.85-.49-1.75-.59-2.7-.44-.68.11-1.22.53-1.85.8.09.4.19.81.28 1.25zm34.54-.28c-.11.01-.18.02-.24.03-.42.08-.81.24-1.18.44-1.41.79-2.85.81-4.27.04-1.33-.72-2.64-.72-3.97 0-1.4.76-2.81.76-4.21 0-1.34-.73-2.65-.71-3.99.02-1.4.77-2.81.75-4.2-.03-1.29-.72-2.59-.73-3.88-.01-1.45.8-2.89.8-4.33-.01-1.23-.69-2.48-.69-3.73-.06-.43.22-.43.23-.28.7l.24.69c.04-.01.05-.01.07-.01 1.39-.6 2.72-.5 4.05.25 1.22.68 2.48.66 3.7-.02 1.48-.82 2.93-.83 4.41 0 1.23.68 2.49.7 3.72.02 1.48-.81 2.93-.84 4.42-.04 1.27.69 2.56.69 3.83 0 1.46-.79 2.9-.79 4.35.01 1.27.69 2.55.67 3.83-.01.35-.18.73-.31 1.1-.47.05-.02.13-.07.14-.12.13-.46.27-.92.42-1.42zM5.17 28.24c.16.36.31.7.45 1.05.05.12.11.14.24.11 1.12-.25 2.18-.12 3.18.46 1.28.74 2.59.72 3.88 0 1.43-.79 2.85-.79 4.28 0 1.29.72 2.58.72 3.87.01 1.42-.78 2.85-.8 4.27-.02 1.31.71 2.61.72 3.92.01 1.43-.78 2.86-.77 4.29.01.59.32 1.21.5 1.89.51.81.01 1.55-.23 2.23-.66a.3.3 0 0 0 .12-.15l.63-1.44c.01-.03.01-.08.03-.16-.28.13-.53.24-.77.37-1.45.81-2.9.81-4.35.02-1.27-.69-2.56-.7-3.83-.01-1.46.8-2.91.79-4.37 0-1.28-.69-2.57-.68-3.84.02-1.44.79-2.87.78-4.31-.02-1.28-.71-2.57-.7-3.85.01-1.42.79-2.85.8-4.26.01-.58-.32-1.18-.52-1.84-.53-.65-.02-1.26.08-1.86.4zm.67 1.51c.24.42.45.79.65 1.17.07.13.16.17.3.17.81-.03 1.56.18 2.27.58 1.27.72 2.57.71 3.85 0 1.43-.8 2.86-.8 4.3-.01 1.29.71 2.58.72 3.87.01 1.41-.78 2.83-.8 4.24-.04 1.34.73 2.66.73 4.01 0 1.4-.76 2.81-.74 4.21.02.82.45 1.68.63 2.6.47.09-.02.19-.08.24-.15.33-.5.64-1.01.96-1.52.02-.04.04-.08.07-.15-.05.02-.07.03-.09.03-1.39.62-2.74.52-4.07-.22-.86-.48-1.79-.59-2.76-.36-.46.11-.86.34-1.28.54-1.36.64-2.7.6-4.02-.12-1.29-.7-2.59-.73-3.87-.02-1.46.8-2.9.8-4.36-.02-1.27-.7-2.55-.69-3.82.02-1.43.8-2.86.81-4.28.01-.65-.37-1.33-.56-2.08-.53-.3.04-.6.08-.94.12zm30.11 2.85c-.01-.01-.02-.03-.03-.04h-.09c-.91.06-1.74-.15-2.54-.59-1.28-.7-2.57-.67-3.84.03-1.4.77-2.82.78-4.22.02-1.35-.73-2.67-.72-4.02.02-1.38.76-2.79.74-4.17-.03-1.31-.73-2.62-.74-3.93-.01-1.41.79-2.83.78-4.25 0-.22-.12-.44-.23-.67-.32a3.29 3.29 0 0 0-1.33-.21l.04.08c.34.47.68.94 1.03 1.4.04.05.12.08.18.11.32.15.65.27.95.43 1.28.69 2.56.71 3.84 0 1.45-.81 2.89-.81 4.35 0 1.25.69 2.52.71 3.77.02 1.47-.81 2.93-.83 4.4-.02 1.28.69 2.57.68 3.84-.02 1.43-.78 2.85-.77 4.29-.01.35.18.74.3 1.11.43.05.02.15 0 .19-.04.37-.4.73-.83 1.1-1.25zM4.2 24.67c.06-.02.1-.02.13-.04.17-.09.33-.17.5-.26 1.37-.73 2.76-.76 4.12 0 1.37.76 2.7.76 4.06 0 1.37-.76 2.77-.75 4.13.01 1.32.73 2.63.76 3.95.03 1.41-.77 2.83-.78 4.24-.02 1.32.72 2.63.72 3.96 0 1.4-.76 2.81-.76 4.21-.01 1.34.73 2.67.74 4-.02.47-.27.97-.43 1.5-.5.15-.02.36.01.44-.07.09-.09.06-.3.07-.45.02-.2.03-.4.04-.62-.61.01-1.16.17-1.67.46-1.47.84-2.94.84-4.43.03-1.25-.68-2.53-.68-3.78 0-1.47.8-2.92.8-4.39.01-1.28-.69-2.57-.68-3.84.03-1.44.79-2.87.78-4.31-.02-1.27-.7-2.55-.7-3.82 0-1.45.81-2.89.81-4.35 0-1.19-.66-2.4-.68-3.63-.11-.39.18-.78.36-1.16.54-.04.02-.09.07-.08.11.03.29.07.59.11.9zm4.36 8.98c.66.79 1.4 1.49 2.2 2.11.05.04.13.06.2.06.72.02 1.37-.19 2-.54 1.39-.78 2.8-.78 4.2-.01 1.32.73 2.63.75 3.95.01a4.3 4.3 0 0 1 2.13-.57c.77 0 1.49.21 2.16.59.92.52 1.9.66 2.92.37.33-.09.66-.24.97-.4 1.32-.7 2.65-.75 4-.12.12.06.19.05.28-.04.26-.25.53-.5.79-.75.03-.03.06-.07.06-.08-.44-.21-.87-.42-1.31-.62-1.22-.57-2.43-.55-3.6.09-1.47.81-2.93.8-4.4 0-1.28-.69-2.57-.66-3.84.04-1.42.78-2.84.78-4.26-.01-1.29-.72-2.59-.72-3.88 0-1.43.79-2.85.79-4.28 0-.1-.03-.19-.08-.29-.13zm2.82 2.55c0 .02-.01.03-.01.05.46.3.92.59 1.39.88.04.02.13.01.18-.02 1.45-.8 2.89-.77 4.33.03 1.23.69 2.5.7 3.74.02 1.48-.81 2.94-.83 4.42-.02 1.25.68 2.52.69 3.78.01.77-.42 1.57-.65 2.45-.6.07 0 .15-.04.21-.08l1.02-.75c.08-.06.15-.13.24-.2a.468.468 0 0 1-.06-.05c-.04-.02-.09-.04-.13-.06-1.17-.47-2.31-.41-3.42.2-.18.09-.35.19-.54.27-1.29.52-2.55.43-3.77-.24-1.31-.72-2.62-.71-3.94.01-1.42.78-2.84.76-4.25-.03-1.29-.72-2.58-.72-3.87 0-.38.21-.78.39-1.2.49-.2.03-.39.05-.57.09zm19.71.77c-.01-.02-.01-.03-.02-.05-.57.05-1.11.22-1.61.51-.61.35-1.27.55-1.98.57-.84.03-1.61-.17-2.34-.59-.53-.3-1.1-.47-1.71-.5-.8-.04-1.53.18-2.23.56-1.35.74-2.74.75-4.09.01-.76-.42-1.54-.63-2.39-.57-.53.04-1.03.19-1.51.46.04.03.06.05.08.06.62.29 1.24.59 1.87.88.05.02.12.03.18.03.59.04 1.15.17 1.66.47.33.2.68.3 1.05.38.2.04.39.09.59.11.38.05.75.17 1.15.1.48-.08.91-.26 1.33-.5.86-.49 1.78-.66 2.76-.51.6.09 1.14.31 1.65.62.16.09.31.11.5.06 1.38-.35 2.71-.84 3.97-1.5.37-.19.73-.4 1.09-.6zm-12.96-15.5c.93 0 1.72-.8 1.72-1.73 0-.95-.82-1.78-1.75-1.77-.92.01-1.69.82-1.68 1.76 0 .95.79 1.74 1.71 1.74zm7.06 17.78c-.13-.07-.21-.11-.3-.15-1.46-.66-2.82-.41-4.11.44.5.15 3.26-.02 4.41-.29z" class="st0"/><path d="M31.5 17.85v3.26c0 .14-.04.19-.18.19-.35.01-.7.05-1.08.07v-.17c0-1.33 0-2.66-.01-3.99 0-.21.09-.3.26-.36.06-.02.13-.04.19-.04.69.01 1.39-.02 2.08.04 1.3.11 2.4 1.3 2.47 2.61.06 1.03-.3 1.85-1.12 2.48-.12.09-.2.08-.34.02-.42-.2-.85-.36-1.28-.54-.03-.01-.06-.02-.13-.05.68-.08 1.17-.38 1.43-.98.53-1.21-.24-2.54-1.58-2.54h-.71zM10.2 21.17h1.94c.26 0 .34.08.34.35 0 .16.01.33 0 .49 0 .06-.06.13-.1.15-1.17.44-2.28.26-3.33-.38-.04-.02-.07-.09-.07-.14v-4.53c0-.17.09-.27.27-.28.24-.01.47-.01.71 0 .18.01.25.1.25.3v3.79c-.01.07-.01.14-.01.25zM27.77 22.37v-5.24c0-.29.01-.3.31-.3h.71c.13 0 .2.06.21.19 0 .08.01.16.01.24v4.57c0 .16-.05.24-.19.31-.32.13-.66.21-1.05.23zM24.45 21.46c.04-.01.08-.03.12-.04.45-.16.74-.56.74-1.04v-3.23c0-.28.06-.34.34-.34h.69c.14 0 .2.06.2.2 0 1.2.01 2.39-.01 3.59-.01.52-.16 1.01-.53 1.41-.06.06-.11.12-.21.07-.45-.21-.89-.41-1.34-.62zM14.33 21.31c-.41.13-.81.25-1.22.38 0-.04-.01-.1-.01-.16v-4.28c0-.32.12-.43.44-.43.15 0 .29-.01.44 0 .21.01.36.15.36.35v4.12c0 .01-.01.02-.01.02zM23.47 21.25c-.44.05-.89.11-1.34.16-.04 0-.13-.05-.14-.09-.08-.27-.19-.55-.19-.82-.02-1.14-.01-2.27-.01-3.41 0-.18.08-.26.27-.27h.71c.24 0 .26.02.26.26 0 .94.01 1.89 0 2.83-.02.52-.01 1.02.44 1.34z" class="st0"/></g></svg>