<svg xmlns="http://www.w3.org/2000/svg" xml:space="preserve" style="enable-background:new 0 0 77.65 57.36" viewBox="0 0 77.65 57.36"><style>.st0{fill:#fff}</style><g id="sass"><text class="st0" style="font-size:16.0459px;font-family:&quot;Lato-Light&quot;" transform="translate(0 54.373)">SASS/SCSS</text><path d="M36.89 0c.26.02.52.03.78.05 1.39.1 2.74.36 4.02.93.95.42 1.79.99 2.44 1.81.56.7.86 1.5.97 2.38.21 1.65-.17 3.19-.95 4.64-1.5 2.8-3.77 4.74-6.74 5.86-1.33.5-2.7.85-4.11 1.02-1.1.14-2.2.17-3.31.05-1.21-.13-2.32-.51-3.26-1.31-.43-.36-.8-.77-.98-1.32-.03-.1-.06-.21-.07-.32-.01-.1.01-.2.1-.27.09-.07.18-.08.28 0 .07.06.15.13.21.2.51.58 1.16.92 1.88 1.15.96.31 1.95.37 2.95.28 1.88-.18 3.67-.67 5.36-1.49 1.73-.84 3.24-1.96 4.46-3.46.66-.81 1.18-1.7 1.45-2.72.19-.71.23-1.41.02-2.13-.19-.64-.61-1.09-1.16-1.44-.63-.4-1.33-.62-2.05-.76-1.22-.24-2.45-.24-3.68-.11-2.84.3-5.49 1.23-8.03 2.51-1.55.78-3.05 1.64-4.47 2.65-1.11.8-2.16 1.67-3.05 2.71-.68.79-1.25 1.65-1.57 2.64-.37 1.12-.44 2.25.01 3.37.3.75.77 1.38 1.31 1.97.76.82 1.64 1.5 2.51 2.19.85.67 1.71 1.35 2.55 2.04.35.29.66.62 1 .95.23-.13.48-.26.73-.4 1.34-.73 2.68-1.46 4.01-2.2a.4.4 0 0 0 .15-.14c.83-1.09 1.82-1.99 3.08-2.56.44-.2.9-.32 1.39-.27.63.07 1.03.42 1.23 1.01.16.47.17.97.13 1.46-.02.21-.05.42-.08.64.04-.02.08-.04.12-.07.33-.3.69-.26 1.07-.1.39.17.53.45.43.86-.27 1.05-.56 2.1-.82 3.16-.16.67-.3 1.34-.41 2.01-.05.3 0 .62 0 .93 0 .03.01.06.02.08 0 .01.01.02.04.05.06-.07.12-.13.16-.2.22-.41.46-.82.66-1.25.89-1.95 1.78-3.9 2.65-5.85.36-.81.73-1.61 1.05-2.44.19-.49.32-1 .45-1.51.06-.22.18-.34.39-.41.58-.19 1.18-.23 1.78-.2.16.01.32.04.46.09.11.04.22.11.31.18.12.09.14.22.09.37-.17.53-.34 1.06-.48 1.59-.17.66-.1 1.33-.02 2.01.09.7.41 1.29.71 1.92.02-.03.04-.04.04-.05.89-1.47 1.74-2.97 2.5-4.52.27-.55.45-1.13.59-1.72.06-.26.16-.52.23-.78.04-.14.12-.24.26-.28.25-.08.5-.16.76-.2.46-.07.93-.11 1.39-.01.17.04.33.12.48.21.14.09.17.23.11.4-.16.49-.32.98-.45 1.48-.18.67-.14 1.35-.05 2.03.07.56.25 1.07.5 1.57.18.35.35.7.53 1.06.2-.09.4-.18.59-.26a10.1 10.1 0 0 1 4.64-.73c1.32.1 2.55.46 3.65 1.22.97.67 1.7 1.53 2.08 2.66.3.89.35 1.8-.04 2.68-.38.86-1.04 1.42-1.91 1.77-.12.05-.25.06-.38.05-.06 0-.14-.06-.16-.11-.02-.06 0-.16.04-.21.08-.08.18-.15.28-.21.38-.24.71-.53.96-.9.49-.72.53-1.48.23-2.28-.33-.89-.94-1.55-1.74-2.04-.76-.47-1.59-.73-2.46-.88-.95-.16-1.91-.21-2.86-.12-.78.07-1.55.24-2.28.53-.04.01-.07.03-.12.05.02.05.03.1.05.15.18.48.3.98.35 1.49.07.79-.19 1.48-.68 2.09a5.82 5.82 0 0 1-2.68 1.87c-.33.12-.67.24-1.01.3-.68.12-1.27-.36-1.33-1.05-.05-.66.13-1.27.41-1.86.47-.99 1.16-1.82 1.96-2.56.15-.14.31-.27.44-.39-.27-.65-.58-1.27-.8-1.92-.22-.65-.36-1.32-.53-1.97-.01.01-.03.04-.04.07-.83 1.65-1.75 3.25-2.81 4.77-.05.07-.05.12-.02.19.23.55.42 1.11.49 1.7.16 1.34-.26 2.45-1.33 3.28a6.228 6.228 0 0 1-3.64 1.32c-.25.01-.51-.02-.75-.08-.46-.12-.67-.52-.53-.97.06-.19.15-.38.28-.53.57-.72 1.15-1.42 1.73-2.13l1.02-1.26c.17-.21.32-.44.48-.66.04-.06.04-.1.01-.15-.24-.5-.49-1-.72-1.51-.34-.77-.51-1.59-.69-2.41-.01-.07-.03-.13-.05-.23-.03.07-.05.1-.06.14a68.416 68.416 0 0 1-4.18 8.72c-.3.53-.67 1.02-1.14 1.41-.2.16-.41.3-.67.34-.45.07-.82-.09-1.09-.47-.22-.31-.31-.66-.37-1.02-.12-.77-.07-1.53.03-2.29 0-.02.01-.05-.01-.08-.04.1-.08.2-.13.3-.43 1.03-.87 2.05-1.42 3.01-.15.27-.35.52-.55.75-.38.42-.87.52-1.41.47-.47-.04-.84-.26-1.12-.63-.44-.57-.71-1.21-.91-1.89-.25-.86-.38-1.73-.31-2.62.09-1.05.24-2.1.6-3.1.01-.01.01-.03.02-.09-.93.53-1.84 1.05-2.75 1.58.26.5.42 1.02.51 1.56.15.85.16 1.7.06 2.55-.13 1.05-.41 2.06-.94 2.97-1.26 2.18-3.12 3.56-5.62 4.02-.96.18-1.93.11-2.87-.14-.46-.13-.78-.44-1.06-.8-.58-.79-.79-1.69-.72-2.66.11-1.43.74-2.61 1.74-3.62.95-.95 2.03-1.73 3.16-2.45.86-.54 1.74-1.04 2.65-1.49.13-.07.26-.14.42-.22-.19-.15-.35-.3-.54-.43-.83-.6-1.67-1.19-2.5-1.77-1.15-.81-2.3-1.62-3.34-2.56-.91-.82-1.73-1.7-2.35-2.76-.38-.65-.66-1.34-.79-2.08-.01-.06-.02-.12-.04-.18v-.68c.01-.02.02-.04.02-.06.07-.75.3-1.46.6-2.15.62-1.4 1.52-2.61 2.55-3.72 1.22-1.31 2.61-2.42 4.1-3.42 2.31-1.54 4.78-2.75 7.37-3.76C31.1.66 33.24.12 35.47 0c.3.03.52.01.73 0h.69zm-11.7 26.07c-.11.06-.19.11-.27.16-1.31.76-2.57 1.6-3.73 2.58-.69.58-1.29 1.22-1.69 2.04-.29.58-.48 1.18-.45 1.83.03.72.39 1.1 1.11 1.14.6.03 1.15-.15 1.69-.39 1.97-.9 4.04-3.39 3.51-6.58-.05-.26-.11-.51-.17-.78zm6.09 1.18c.01.38.03.9.2 1.39.05.14.12.28.21.41.1.14.23.15.36.05.09-.07.18-.16.24-.25.14-.22.29-.43.39-.67.36-.83.7-1.66 1.04-2.49.52-1.29.99-2.59 1.34-3.94.08-.31.13-.63.17-.95.03-.28-.11-.41-.39-.37-.17.02-.33.08-.48.15-.49.25-.89.61-1.2 1.07-.26.38-.51.77-.73 1.18-.74 1.32-1.14 2.75-1.15 4.42zm19.48-3.05c-.02.01-.03.02-.04.03-.05.04-.09.08-.14.12-.73.68-1.26 1.5-1.58 2.45-.07.2-.12.4-.15.61-.02.19.04.23.22.16.96-.39 1.62-1.03 1.79-2.09.08-.43.06-.86-.1-1.28zm-8.89 5.02c.16.07.28.03.37-.03.29-.18.59-.36.85-.58.48-.38.87-.83 1.08-1.41.1-.26.14-.53.12-.82-.72 1-1.56 1.91-2.42 2.84z" class="st0"/></g></svg>