<svg xmlns="http://www.w3.org/2000/svg" xml:space="preserve" style="enable-background:new 0 0 66.25 83.01" viewBox="0 0 66.25 83.01"><style>.st0{fill:#fff}</style><g id="bem"><text class="st0" style="font-size:16.0459px;font-family:&quot;Lato-Light&quot;" transform="translate(15.948 80.027)">BEM</text><path d="M39.1 25.49c-.4-.43-.76-.87-1.17-1.25-1.19-1.11-2.66-1.69-4.2-2.1-1.91-.51-3.85-.67-5.82-.69-1.48-.02-2.96-.02-4.44-.02H.02v-4.56c.09-.01.19-.02.28-.02h27.38c1.75 0 3.49.13 5.19.59 1.82.49 3.45 1.31 4.7 2.78.7.82 1.18 1.75 1.51 2.77.01.04.02.09.02.14v2.36zM0 46.81v-4.54h26.47c1.67 0 3.33-.03 4.98-.26 1.69-.24 3.34-.63 4.87-1.43 1.07-.56 1.98-1.31 2.66-2.31.02-.03.05-.05.1-.11.01.11.02.19.02.27 0 .44-.04.89.01 1.32.09.9-.25 1.68-.65 2.43-1.04 1.93-2.68 3.11-4.71 3.81-1.69.58-3.43.83-5.21.83-9.42.01-18.85.01-28.27.01a2.13 2.13 0 0 0-.27-.02zM0 38.36v-4.57h.4c8.2 0 16.4.01 24.59 0 2.26 0 4.53-.03 6.79-.08 1.81-.04 3.62-.15 5.41-.5.63-.12 1.24-.34 1.88-.52 0 .02.02.09.02.15 0 .54.01 1.09 0 1.63 0 .12-.04.25-.09.37-.48 1.02-1.33 1.65-2.3 2.13-1.28.63-2.65.92-4.05 1.11-1.8.25-3.61.28-5.42.28H0zM39.1 30.98c-.73-.19-1.44-.45-2.17-.55-1.3-.18-2.61-.35-3.92-.39-3.31-.09-6.62-.13-9.93-.14-7.55-.02-15.11-.01-22.66-.01h-.4v-4.55c.07-.01.14-.02.21-.02 9.49 0 18.97 0 28.46.01 1.93 0 3.86.15 5.75.6 1.24.3 2.45.7 3.45 1.53.31.25.58.57.83.88.28.35.43.75.4 1.22-.05.49-.02.97-.02 1.42zM39.02 49.52c.98 1.29 2.35 1.78 3.82 2.08 1.27.26 2.56.3 3.85.3h19.56v2.8H45.63c-1.47 0-2.91-.19-4.23-.87-1.1-.56-1.88-1.43-2.29-2.61-.05-.14-.07-.3-.08-.46-.01-.4-.01-.82-.01-1.24zM39.02 46.07c1.64.63 3.32.65 4.99.66 7.28.03 14.56.02 21.83.03h.4v2.82H45.87c-1.52 0-3.04-.07-4.51-.5-.71-.21-1.37-.53-1.89-1.09-.3-.32-.51-.66-.46-1.13.04-.25.01-.5.01-.79zM15.49 0v4.53H.01V0h15.48zM15.49 8.47V13H.01V8.47h15.48z" class="st0"/></g></svg>