<svg xmlns="http://www.w3.org/2000/svg" xml:space="preserve" style="enable-background:new 0 0 87.12 28.1" viewBox="0 0 87.12 28.1"><style>.st0{fill:#323550}</style><g id="dribbble"><path d="M86.67 15.62c-.52-.81-.56-.74-1.25-.09-.81.77-1.66 1.57-2.6 2.06-1.26.66-2.75.11-3.29-.94-.31-.61-.15-.96.45-1 .28-.02.57-.01.85-.03 2.1-.17 3.97-1.79 4.47-3.87.64-2.67-.92-5.13-3.14-4.94-1.29.11-2.4.7-3.3 1.77-1.14 1.36-1.82 3.01-1.97 4.88-.15 1.93-1.16 3.18-2.36 4.29-.26.24-.79.34-1.07.19-.21-.11-.32-.73-.3-1.1.07-.84.2-1.69.39-2.5 1.07-4.43 2.17-8.85 3.25-13.27.22-.91.11-1.1-.69-1.07-.28.01-.57.03-.85.03-.43 0-.66.22-.78.71-.84 3.44-1.73 6.87-2.53 10.32-.19.82-.57 1.25-1.2 1.51-1.26.52-1.61.27-1.76-1.21-.19-2.34-1.5-3.7-3.28-3.36-.5.1-.96.44-1.45.63-.2.08-.51.16-.63.05-.13-.12-.15-.49-.1-.72.17-.77.4-1.53.61-2.3.35-1.29.71-2.57 1.06-3.86.24-.88.11-1.06-.71-1.04-.29.01-.58.04-.86.04-.43 0-.65.22-.77.72-.81 3.4-1.68 6.78-2.45 10.18-.23 1.03-.77 1.5-1.58 1.74-1.11.33-1.35.14-1.44-1.15-.23-3.14-2.31-4.47-4.65-2.98-.22.14-.5.12-.76.18-.02-.32-.12-.67-.05-.96.53-2.01 1.09-4.01 1.64-6.01.21-.79.06-1.02-.65-1-.28.01-.57.05-.85.04-.53-.02-.75.27-.89.85-.79 3.35-1.66 6.68-2.41 10.04-.3 1.36-1.02 1.66-1.82 1.8-1.01.18-1.16 0-1.21-1.1-.14-3.25-2.26-4.56-4.74-3.01-.18.11-.56.19-.62.09-.13-.19-.18-.55-.12-.78.47-1.82.97-3.63 1.46-5.44.49-1.8.46-1.82-1.21-1.69-.57.04-.83.28-.98.92-.92 3.91-1.91 7.79-2.79 11.71-.44 1.96-1.35 3.55-2.52 5-.23.29-.54.52-.84.69-.62.34-1.04.06-1.08-.72-.03-.49-.03-1.02.07-1.49.46-2.08.91-4.17 1.45-6.22.54-2.04.38-1.87-1.31-1.79-.47.02-.69.27-.81.78-.35 1.5-.77 2.97-1.08 4.48-.42 1.97-1.41 3.52-2.6 4.93-.15.18-.34.32-.53.43-.57.33-1.03.09-1.09-.63-.05-.56-.03-1.17.11-1.7.56-2.13 1.18-4.23 1.78-6.35.21-.75.08-.94-.6-.96-1.07-.03-2.13-.08-3.2-.12-.45-.02-.81-.11-.82-.79 0-.18-.3-.44-.5-.51-.24-.07-.52.06-.78.04-.53-.02-.75.22-.85.84-.65 3.85-1.78 7.52-3.43 10.96-.54 1.13-.56 1.12.36 1.88.64.53.77.51 1.16-.26 1.29-2.54 2.24-5.25 3.01-8.04.52-1.87.51-1.86 2.21-1.61.52.07.63.36.48.87-.18.59-.43 1.16-.55 1.76-.3 1.48-.65 2.95-.79 4.46-.1 1.11.32 2.13 1.25 2.7.94.58 1.87.37 2.71-.3.48-.38.9-.86 1.32-1.33.47-.51.69-.49.95.17.36.89.96 1.31 1.8 1.36.82.05 1.58-.19 2.19-.8.59-.59 1.11-1.27 1.64-1.92.39-.47.65-.48.89.11.89 2.21 3.28 2.7 5 1.67 1.65-1 2.67-2.64 3.29-4.58.31-.96.64-1.59 1.63-1.41.2.04.43-.07.64-.13.45-.11.66.1.67.62.01.5 0 1 .04 1.5.22 2.45 1.77 3.97 3.89 3.69.72-.1 1.48-.45 2.1-.92 1.44-1.08 2.29-2.73 2.83-4.56.21-.72.49-1.03 1.16-.95.5.06 1.21-.23 1.45.05.28.33.16 1.12.2 1.71.19 2.65 1.8 4.28 4.05 3.89.8-.14 1.6-.64 2.28-1.18 1.06-.85 1.79-2.08 2.21-3.47.36-1.2.8-2.06 2.06-1.81.04.01.08-.02.13-.04.52-.16.75.07.69.69-.06.65-.12 1.29-.15 1.63-.02 2.81.95 3.9 2.85 3.44.45-.11.92-.36 1.28-.69.57-.53 1.08-1.16 1.58-1.78.44-.55.61-.57 1 .04.67 1.03 1.56 1.65 2.67 1.85 2.52.46 4.56-.62 6.29-2.64.72-.84.7-.91.09-1.87zm-43.39-.47c-.15 1.47-.64 2.81-1.46 3.95-.28.4-.64.76-1.03 1.02-.94.63-1.86.12-2.08-1.1-.06-.36-.06-.74-.08-.98.11-1.79.47-3.36 1.4-4.66.36-.5.86-.94 1.37-1.22.85-.47 1.66.01 1.85 1.07.12.61.09 1.29.03 1.92zm9.97 3.47c-.22.27-.47.53-.75.71-1.04.67-2.03.14-2.15-1.23-.19-2.21.33-4.21 1.63-5.9.07-.09.15-.18.23-.26.58-.53 1.22-.96 1.97-.57s.8 1.24.85 2.06c-.12 1.94-.62 3.72-1.78 5.19zm11.03-.15c-1.1.82-2.16.25-2.31-1.26-.02-.25-.02-.5-.03-.75.08-1.66.43-3.23 1.34-4.54.37-.53.87-.99 1.4-1.29.87-.5 1.65.01 1.9 1.1.45 2.01-.77 5.61-2.3 6.74zm15.05-5.66c.25-1.22.69-2.32 1.59-3.1.7-.6 1.48-.67 1.93-.2.47.48.49 1.56.05 2.37-.54 1-1.78 1.77-2.94 1.83-.62.03-.78-.18-.63-.9zM17.96 8.94c-1.03-4.04-3.34-6.47-7.03-7.01-2.58-.37-4.96.41-7.19 1.88-1.61 1.05-1.59 1.07-.61 2.86.3.54.56.66 1.03.22 1.08-1 2.33-1.64 3.68-2.01 3.92-1.07 7.09 1.08 7.74 5.55.75 5.11-.63 9.49-4.08 12.9-1.38 1.36-3.04 2.03-4.87 2.06-.73.01-.87-.17-.69-.97.47-2.13.93-4.26 1.44-6.38.66-2.8 1.36-5.58 2.03-8.37.2-.79.08-.97-.61-.95-.3 0-.61.05-.91.03-.56-.03-.85.23-1 .89-1.09 4.73-2.22 9.45-3.33 14.18-.26 1.11-.32 1.15-1.24.73-1.5-.68-1.48-.68-2.19 1.02-.26.61-.15.95.38 1.24 1.69.92 3.47 1.27 5.04 1.29 2.74.01 5.02-.71 7.07-2.29 4.44-3.43 6.84-10.97 5.34-16.87z" class="st0"/><path d="M33.53 8.41c.94.02 1.87-1.19 1.9-2.45.02-.96-.45-1.59-1.2-1.6-.97-.02-1.85 1.1-1.89 2.43-.03.95.45 1.61 1.19 1.62z" class="st0"/></g></svg>