<svg xmlns="http://www.w3.org/2000/svg" xml:space="preserve" style="enable-background:new 0 0 33.09 89.3" viewBox="0 0 33.09 89.3"><style>.st0{fill:#fff}</style><g id="gulp"><text class="st0" style="font-size:16.0459px;font-family:&quot;Lato-Light&quot;" transform="translate(0 86.32)">Gulp</text><path d="M14.49 66.62c-1.15-.17-2.32-.3-3.46-.54-.69-.14-1.39-.38-2-.72-.31-.17-.6-.65-.63-1.01-.26-3.24-.46-6.49-.69-9.73-.02-.24-.12-.5-.25-.72-.52-.9-1.06-1.79-1.68-2.81 7.14 1.96 14.15 2.01 21.26-.09-.51.87-.99 1.66-1.43 2.46-.17.31-.28.68-.31 1.03-.21 3.22-.4 6.45-.56 9.68-.04.75-.38 1.23-1.04 1.39-1.4.35-2.82.62-4.24.92-.27.06-.55.09-.82.13-1.38.01-2.77.01-4.15.01z" class="st0"/><path d="M25.43 38.35c.28-.31.44-.5.61-.69.57-.65 1.19-1.27 1.7-1.96.27-.37.47-.84.54-1.3.14-.87-.42-1.42-1.27-1.23-.62.14-1.19.49-1.77.77-.23.11-.41.3-.69.5 0-.23.05-.42-.01-.54-.09-.17-.24-.4-.4-.43-.15-.03-.43.14-.5.29-.21.45-.35.93-.51 1.4-.57 1.7-1.77 2.65-3.65 3.04.07-.45.06-.84.2-1.18.79-2.04 1.64-4.06 2.42-6.1.26-.68.46-1.4.6-2.11.04-.23-.2-.51-.31-.76-.22.15-.47.26-.65.45-.17.19-.29.44-.38.68-.99 2.59-1.99 5.17-2.92 7.78-.23.65-.63 1.02-1.21 1.24-.6.23-.95-.04-.86-.69.07-.47.21-.93.37-1.38.24-.67.53-1.33.77-2 .1-.29.1-.61.15-.91-.07-.04-.14-.09-.2-.13-.23.18-.53.32-.68.56-.36.57-.68 1.16-.95 1.77-.47 1.07-1.22 1.89-2.11 2.6-.2.16-.54.16-.82.23-.04-.26-.17-.56-.09-.78.29-.88.65-1.74.98-2.61.14-.36.33-.72.41-1.09.04-.19-.13-.41-.2-.62-.18.09-.42.12-.54.26-.93 1.15-1.48 2.48-1.82 3.91-.07.29-.11.6-.12.9-.03 1.1.7 1.73 1.73 1.32.75-.3 1.37-.9 1.98-1.33.09.2.16.71.45.91.32.22.85.25 1.27.2.41-.05.79-.32 1.19-.5.67.71 1.07.8 2.02.34.54-.26 1.05-.6 1.69-.97-.27.65-.49 1.21-.72 1.76-.33.78-.68 1.55-.99 2.33-.12.3-.16.63-.18.95-.01.15.1.4.2.43.15.04.41-.01.51-.12.26-.28.52-.6.68-.94.61-1.32 1.13-2.67 1.76-3.98.5-1.03 1.02-2.07 1.71-2.97.4-.53 1.13-.82 1.72-1.19.09-.06.27.03.4.05-.03.16 0 .36-.09.46-.49.55-1.05 1.04-1.51 1.62-.42.54-.85 1.11-1.09 1.74-.31.82.21 1.42 1.08 1.37 1.06-.06 1.93-.59 2.78-1.17.21-.14.41-.28.73-.5-.12 1.15-.22 2.18-.34 3.2-.29 2.63-.6 5.26-.87 7.89-.05.54-.26.86-.75 1.08-2.32 1.06-4.8 1.48-7.31 1.68-3.89.3-7.77.22-11.57-.77-.96-.25-1.87-.66-2.79-1.05-.21-.09-.44-.39-.46-.61-.34-3.08-.64-6.17-.94-9.26-.02-.17 0-.34 0-.58 1.97.7 3.13-.6 4.46-1.69-.15.53-.32 1.05-.46 1.58-.13.5-.26 1.01-.31 1.52-.02.19.16.55.28.57.2.02.45-.14.64-.28.12-.1.19-.29.24-.45l2.22-7.47c.01-.04.02-.08.03-.13.05-.41.15-.93-.37-1.02-.22-.04-.58.39-.78.68-.19.28-.27.64-.35.97-.43 1.76-1.64 2.92-3.04 3.91-.4.28-.94.64-1.36.25-.31-.29-.49-.86-.51-1.31-.02-.59.12-1.21.29-1.78.55-1.84 1.42-3.55 2.6-5.06.42-.54 1.04-.98 1.65-1.32.7-.38 1.16-.18 1.59.49.15.24.29.49.44.72.23.34.57.48.89.23.19-.15.33-.52.29-.76-.26-1.52-2.12-2.61-3.59-2.15-1.18.37-2.06 1.17-2.67 2.18-.85 1.42-1.56 2.94-2.32 4.42-.1.19-.17.39-.36.57-.56-5.33-1.11-10.68-1.66-16.05 3.58 1.24 7.25 1.33 10.91 1.45 4.66.16 9.33.12 13.97-.47 1.54-.2 3.05-.58 4.64-.89-.1.95-.21 2.01-.32 3.08-.5 4.5-1.04 9.01-1.47 13.52-.1 1.03-.47 1.75-1.31 2.3-.77.51-1.52 1-2.64 1.13z" class="st0"/><path d="M22.71 14.78c2.07.27 4.05.5 6.01.81.78.12 1.54.41 2.3.68.21.07.47.35.47.54 0 .18-.28.47-.48.52-1.36.36-2.71.79-4.09.97-6.18.8-12.38.78-18.57.24-1.78-.15-3.55-.55-5.31-.87-.37-.07-.74-.25-1.08-.44-.48-.28-.5-.65 0-.87.75-.33 1.53-.61 2.33-.76 4.06-.79 8.18-.91 12.31-.93h3.49c.39-1.58.82-3.14 1.16-4.73.22-1.05.67-1.9 1.43-2.68 2.2-2.24 4.35-4.55 6.48-6.86.46-.5.85-.51 1.34-.15.21.15.42.31.6.5.55.56.54.85-.01 1.42-2.21 2.33-4.43 4.65-6.62 6.99-.27.28-.47.67-.58 1.05-.43 1.52-.79 3.05-1.18 4.57z" class="st0"/></g></svg>