<svg xmlns="http://www.w3.org/2000/svg" xml:space="preserve" style="enable-background:new 0 0 34.77 88.89" viewBox="0 0 34.77 88.89"><style>.st0{fill:#fff}</style><g id="git"><text class="st0" style="font-size:16.0459px;font-family:&quot;Lato-Light&quot;" transform="translate(6.613 85.907)">Git</text><path d="M10.75 4.48c1.06 1.06 2.12 2.11 3.16 3.17.04.04.06.14.04.19-.35 1.1.08 2.18 1.1 2.73.12.07.16.14.16.27v7.53c0 .14-.05.21-.17.28-.83.47-1.25 1.18-1.19 2.13.06.91.54 1.56 1.36 1.92 1.36.6 2.93-.32 3.09-1.81.1-.94-.27-1.67-1.06-2.18-.1-.07-.15-.13-.15-.26v-7.61c.06.06.1.09.14.13l2.64 2.64c.11.11.13.21.09.36-.37 1.21.37 2.51 1.6 2.82 1.24.31 2.49-.48 2.75-1.73a2.23 2.23 0 0 0-2.66-2.64c-.2.04-.32 0-.47-.14-.94-.95-1.88-1.89-2.83-2.83-.11-.11-.13-.19-.1-.34a2.237 2.237 0 0 0-2.74-2.7c-.07.02-.17 0-.21-.04l-3.15-3.15c-.01-.01-.02-.03-.05-.07.05-.05.09-.11.15-.16.79-.79 1.57-1.58 2.36-2.36.83-.83 1.93-.83 2.75 0 4.15 4.15 8.3 8.32 12.47 12.46.76.76.79 1.82.28 2.5-.15.19-.32.36-.49.53-4.06 4.07-8.13 8.13-12.19 12.2-.38.38-.82.6-1.34.61-.54.01-1-.21-1.39-.6-.8-.81-1.61-1.61-2.42-2.42-3.38-3.37-6.74-6.73-10.1-10.1-.83-.83-.83-1.93 0-2.76 2.8-2.81 5.61-5.61 8.41-8.42.05-.04.1-.09.16-.15zM1.52 54.33c-.16-.1-.31-.17-.44-.26-.85-.59-1.06-1.8-.42-2.69.37-.51.84-.95 1.28-1.41.27-.28.57-.54.87-.82-.2-.13-.4-.24-.58-.37-.94-.69-1.48-1.62-1.69-2.75-.23-1.28-.09-2.51.51-3.66.64-1.22 1.69-1.94 2.98-2.34 1.18-.37 2.39-.44 3.6-.35.55.04 1.09.16 1.64.24.07.01.15.01.23.01h5.17v2.32c-.83.06-1.66.13-2.53.19.11.17.21.3.3.44 1.32 1.92.86 5.07-1.59 6.4-.92.5-1.91.73-2.95.81-.9.06-1.79 0-2.68-.19-.06-.01-.16.02-.19.06-.29.45-.56.9-.87 1.39.33.03.63.05.93.07 1.25.08 2.51.17 3.76.25.99.06 1.98.17 2.94.43.58.15 1.13.37 1.6.76.71.58.98 1.36 1.06 2.24.12 1.41-.22 2.67-1.28 3.68-.68.65-1.5 1.04-2.39 1.32-1.17.36-2.37.49-3.59.51-1.36.02-2.71-.04-4.04-.34-.82-.19-1.61-.46-2.26-1.02-.65-.6-.9-1.34-.89-2.2.01-.89.41-1.6 1.02-2.22l.5-.5zm5.5-12c0 .01 0 .02-.01.03-.13.01-.26.01-.39.02-1.08.1-1.92.62-2.18 1.74-.07.32-.1.66-.09.98.05 1.11.62 1.8 1.68 2.03.37.08.75.1 1.13.09 1-.05 1.93-.52 2.25-1.57.2-.65.16-1.31-.09-1.95-.24-.61-.69-1.01-1.32-1.19-.31-.09-.65-.12-.98-.18zM6.7 57.97c.3 0 .61.02.91 0 .61-.04 1.21-.1 1.78-.32.35-.14.65-.33.85-.66.35-.61.14-1.2-.52-1.42-.16-.05-.33-.1-.5-.12-.99-.08-1.98-.16-2.97-.23-.71-.05-1.42-.1-2.13-.14-.08 0-.19.03-.23.09-.17.23-.36.47-.49.73-.36.71-.12 1.36.6 1.7.07.03.14.06.21.08.81.29 1.65.3 2.49.29zM27.33 35.17h2.6v3.84c0 .33.02.35.36.35h3.74v2.75h-4.1v.25c0 2.09-.01 4.17.01 6.26 0 .41.03.83.11 1.23.14.68.54 1.01 1.22 1.11.88.12 1.73-.05 2.56-.32.07-.02.13-.04.22-.07.11.36.23.71.33 1.06.12.4.23.79.36 1.19.04.12.02.17-.1.22-1.05.47-2.13.8-3.27.95-.94.12-1.87.11-2.8-.08-1.53-.31-2.44-1.25-2.68-2.8-.08-.54-.12-1.09-.12-1.63-.01-2.29-.01-4.59-.01-6.88v-.25c.01-.19-.07-.25-.26-.25-.59.01-1.17.01-1.76.01-.03 0-.07-.01-.12-.01v-2.42c.27-.05.54-.1.81-.16 1.29-.3 2.12-1.1 2.49-2.35.17-.59.26-1.21.38-1.82.02-.06.02-.11.03-.18zM16.02 41.88c.05-.39.09-.76.14-1.14.04-.31.09-.61.13-.92.01-.12.05-.17.18-.17h5.43c.03 0 .05.01.11.02v11.36c0 .58.02.6.58.68.42.06.83.12 1.26.18v2.14h-7.82v-2.14c.39-.05.78-.12 1.18-.16.6-.07.64-.11.64-.71v-7.96c0-.44-.07-.54-.48-.69-.44-.17-.89-.33-1.35-.49zM17.06 34.93c.05-.3.07-.61.15-.89.24-.85.94-1.38 1.85-1.49.52-.06 1.03-.04 1.54.12.7.22 1.15.69 1.35 1.39.17.6.16 1.2-.01 1.8-.24.82-.81 1.29-1.63 1.48-.59.13-1.18.11-1.76-.08-.86-.29-1.4-1.04-1.45-2-.01-.11 0-.22 0-.33h-.04z" class="st0"/></g></svg>