<svg xmlns="http://www.w3.org/2000/svg" xml:space="preserve" style="enable-background:new 0 0 132.82 52.83" viewBox="0 0 132.82 52.83"><style>.st0{fill:#fff}.st1{font-family:&quot;Lato-Light&quot;}.st2{font-size:16.0459px}</style><g id="illustrator"><text transform="translate(64.553 22.144)"><tspan x="0" y="0" class="st0 st1 st2">Adobe </tspan><tspan x="0" y="19.25" class="st0 st1 st2">Illustrator</tspan></text><path d="M33.04 39.27c-1.31 0-2.56.03-3.81-.03-.19-.01-.47-.34-.53-.58-.47-1.63-.91-3.27-1.33-4.92-.39-1.53-.37-1.54-1.94-1.53-1.77 0-3.54.02-5.32-.01-.46-.01-.63.15-.74.58-.51 2.02-1.06 4.03-1.58 6.05-.09.36-.27.47-.63.46-.91-.02-1.82-.04-2.72-.01-.65.02-.58-.31-.45-.74.76-2.63 1.51-5.27 2.26-7.9 1.38-4.83 2.76-9.66 4.12-14.49.12-.41.19-.84.23-1.27.04-.43.15-.65.66-.63 1.32.04 2.64.02 3.95 0 .35 0 .55.09.65.45 1.87 6.46 3.75 12.93 5.63 19.39.51 1.69 1.02 3.38 1.55 5.18zM23.3 18.22c-.04 0-.09-.01-.13-.01-.84 3.39-1.69 6.78-2.54 10.2h5.38c-.92-3.45-1.82-6.82-2.71-10.19zM40.36 39.28h-3.37c-.53 0-.47-.38-.47-.73 0-3.69 0-7.39.01-11.08 0-1.99.01-3.97-.01-5.96-.01-.5.13-.7.66-.68.93.04 1.86.02 2.79.01.34 0 .52.1.52.48l-.03 17.75c-.02.03-.05.07-.1.21zM36.31 15.9c-.01-1.38.91-2.35 2.26-2.37 1.27-.02 2.22 1 2.23 2.4 0 1.34-.86 2.2-2.23 2.22-1.38.01-2.25-.86-2.26-2.25z" class="st0"/><path d="M45.02 0H9.69C4.33 0 0 4.29 0 9.59v33.64c0 5.31 4.33 9.59 9.69 9.59h35.33c5.36 0 9.69-4.29 9.69-9.59V9.59c0-5.3-4.34-9.59-9.69-9.59zm7.38 42.35c.02 4.52-3.66 8.2-8.22 8.22H10.55c-4.56 0-8.27-3.68-8.27-8.2V10.45c0-4.52 3.72-8.2 8.27-8.2h33.58c4.57 0 8.27 3.67 8.27 8.2v31.9z" class="st0"/></g></svg>