<svg xmlns="http://www.w3.org/2000/svg" xml:space="preserve" style="enable-background:new 0 0 71.84 22.3" viewBox="0 0 71.84 22.3"><style>.st0{fill:#DAB279}</style><g id="github"><path d="M13.84 9.55H7.8c-.16 0-.28.15-.28.32v3.39c0 .18.13.32.28.32h2.35v4.21s-.53.21-1.99.21c-1.72 0-4.13-.72-4.13-6.81 0-6.08 2.51-6.88 4.86-6.88 2.04 0 2.92.41 3.48.61.18.06.34-.14.34-.32l.67-3.27c0-.08-.02-.18-.11-.25C13.05.89 11.66 0 8.16 0 4.13 0 0 1.97 0 11.43 0 20.89 4.73 22.3 8.72 22.3c3.3 0 5.31-1.62 5.31-1.62.08-.05.09-.18.09-.25V9.87c0-.18-.13-.32-.28-.32zM44.95 1.13c0-.18-.12-.33-.28-.33h-3.4c-.16 0-.28.15-.28.33v7.54h-5.3V1.13c0-.18-.13-.33-.28-.33h-3.4c-.15 0-.28.15-.28.33v20.42c0 .18.13.33.28.33h3.4c.16 0 .28-.15.28-.33v-8.73h5.3l-.01 8.73c0 .18.13.33.28.33h3.41c.16 0 .28-.15.28-.33V1.13zM20.25 3.81c0-1.41-.98-2.54-2.19-2.54s-2.19 1.14-2.19 2.54c0 1.4.98 2.54 2.19 2.54 1.21.01 2.19-1.13 2.19-2.54zM20.01 17.25V7.82c0-.18-.13-.33-.28-.33h-3.39c-.16 0-.29.18-.29.36v13.5c0 .4.22.51.49.51h3.05c.33 0 .42-.19.42-.52v-4.09zM57.86 7.53h-3.37c-.15 0-.28.15-.28.33v10.01s-.86.72-2.07.72c-1.22 0-1.54-.63-1.54-2V7.86c0-.18-.13-.33-.28-.33H46.9c-.15 0-.28.15-.28.33v9.39c0 4.06 1.97 5.05 4.68 5.05 2.22 0 4.02-1.41 4.02-1.41s.09.74.12.83c.04.09.14.18.25.18l2.18-.01c.15 0 .28-.15.28-.33V7.85c-.01-.18-.13-.32-.29-.32zM67.08 7.07c-1.92 0-3.22.98-3.22.98V1.13c0-.18-.13-.33-.28-.33h-3.41c-.16 0-.28.15-.28.33v20.42c0 .18.13.33.28.33h2.36c.11 0 .19-.06.25-.17.06-.11.14-.94.14-.94s1.39 1.52 4.03 1.52c3.1 0 4.87-1.8 4.87-8.1.02-6.3-2.82-7.12-4.74-7.12zm-1.33 11.5c-1.17-.04-1.96-.65-1.96-.65v-6.47s.78-.55 1.74-.65c1.21-.12 2.38.3 2.38 3.62.01 3.52-.52 4.21-2.16 4.15zM29.78 7.49h-2.55V3.62c0-.15-.07-.22-.21-.22h-3.47c-.14 0-.21.07-.21.22v4s-1.74.48-1.86.52c-.12.04-.2.16-.2.31v2.51c0 .18.13.33.28.33h1.78v6.04c0 4.49 2.74 4.93 4.59 4.93.85 0 1.86-.31 2.02-.38.1-.04.16-.16.16-.29v-2.76c0-.18-.13-.33-.28-.33-.15 0-.53.07-.92.07-1.25 0-1.68-.67-1.68-1.53V11.3h2.55c.16 0 .28-.15.28-.33V7.82c0-.18-.13-.33-.28-.33z" class="st0"/></g></svg>