<svg xmlns="http://www.w3.org/2000/svg" xml:space="preserve" style="enable-background:new 0 0 78.48 85.18" viewBox="0 0 78.48 85.18"><style>.st0{fill:#fff}</style><g id="sourcetree"><path d="M32.32 49.88c0-1.77-.01-3.54.01-5.31.01-.41-.1-.61-.51-.76-8.11-3.06-13.1-8.85-14.76-17.34-1.94-9.91 3.54-20.25 12.77-24.4C38.89-2 49.13.02 55.86 7.31c4.2 4.55 6.14 10 5.93 16.2-.32 9.07-6.33 17.23-14.96 20.26-.48.17-.66.37-.65.9.03 3.42.02 6.84.01 10.26 0 1.37-.58 1.95-1.95 1.95H34.23c-1.33 0-1.9-.58-1.9-1.93-.01-1.69-.01-3.38-.01-5.07zm6.85-19.81c4.45.04 7.69-3.04 7.74-7.37.05-4.48-3.05-7.65-7.54-7.71-4.46-.06-7.68 3.08-7.73 7.52-.04 4.38 3.08 7.52 7.53 7.56z" class="st0"/><text class="st0" style="font-size:16.0459px;font-family:&quot;Lato-Light&quot;" transform="translate(0 82.196)">SourceTree</text></g></svg>