<svg xmlns="http://www.w3.org/2000/svg" xml:space="preserve" style="enable-background:new 0 0 68.35 62.98" viewBox="0 0 68.35 62.98"><style>.st0{fill:#fff}</style><g id="bootstrap"><text class="st0" style="font-size:16.0459px;font-family:&quot;Lato-Light&quot;" transform="translate(0 59.994)">Bootstrap</text><path d="M34.08 40.41c-4.8 0-9.6-.08-14.39.03-3 .07-5.38-2.41-5.32-5.44.06-3.14.03-6.27-1.05-9.28-.48-1.35-1.11-2.6-2.36-3.41-.23-.15-.48-.3-.74-.41-.43-.18-1.16-.24-1.25-.51-.2-.65-.13-1.39-.1-2.09.01-.17.26-.45.44-.48 1.96-.38 3.03-1.72 3.75-3.44 1.33-3.15 1.32-6.48 1.35-9.82.01-.95.24-1.98.65-2.83C15.91.97 17.42.01 19.4.01c9.85-.02 19.7-.01 29.55 0 2.82 0 4.98 2.35 5.06 5.29.06 2.31.15 4.62.4 6.91.18 1.71.77 3.35 1.8 4.78.67.92 1.54 1.58 2.68 1.78.5.09.68.32.62.79a.7.7 0 0 0 0 .25c.16 1.1-.04 1.77-1.35 2.14-1.73.49-2.51 2.09-3.08 3.69-1.07 2.98-1.16 6.07-1.08 9.19.07 2.51-1.27 4.58-3.5 5.33-.52.18-1.11.22-1.66.22-4.94.04-9.85.03-14.76.03zm4.43-20.51c.32-.14.46-.21.6-.25 3.18-1 4.85-4.18 3.77-7.32-.92-2.67-3.04-3.95-5.67-4.11-3.6-.22-7.22-.11-10.83-.18-.77-.02-1.01.18-1 .98.03 7.76.02 15.52.02 23.28 0 .29.04.59.05.87 4.01 0 7.9.07 11.79-.04 1.14-.03 2.33-.44 3.4-.9 2.74-1.21 4.12-3.79 3.81-6.8-.28-2.66-2.07-4.56-4.98-5.27-.26-.08-.52-.15-.96-.26z" class="st0"/><path d="M29.24 25.91c0-1.18-.02-2.37.02-3.55.01-.22.28-.63.42-.63 2.55.06 5.13-.01 7.65.34 2.21.31 3.19 1.84 3.14 4.03-.05 1.96-1.25 3.51-3.33 3.74-2.45.28-4.94.24-7.41.29-.16 0-.45-.44-.47-.68-.04-1.18-.01-2.36-.02-3.54zM29.24 14.95c0-1.04.01-2.09 0-3.13-.01-.44.11-.68.61-.68 1.95.03 3.9-.05 5.84.07 2.76.17 4.29 2.48 3.38 4.99-.59 1.64-1.98 2.31-3.56 2.46-1.88.18-3.77.13-5.66.19-.5.02-.62-.24-.61-.68.01-1.07 0-2.15 0-3.22z" class="st0"/></g></svg>