<svg xmlns="http://www.w3.org/2000/svg" xml:space="preserve" style="enable-background:new 0 0 123.36 31.3" viewBox="0 0 123.36 31.3"><style>.st0{fill:#fff}</style><g id="linkedin"><path d="M13.38 22.18c-2.64.01-5.27.01-7.91.01-.58 0-.58 0-.58-.56 0-5.52 0-11.05.01-16.57 0-.39-.09-.49-.49-.49-1.46.03-2.94.02-4.41.02v22.05c.04 0 .09.01.13.01 4.45 0 8.89 0 13.34.01.31 0 .36-.12.36-.39-.01-1.22-.02-2.44 0-3.66.01-.36-.12-.43-.45-.43zM123.34 3.88c0-.54.01-1.09 0-1.63C123.32 1 122.35 0 121.16 0H94.28c-.33 0-.64.06-.93.21-.93.48-1.32 1.26-1.32 2.29.01 4.37 0 8.73 0 13.1v4.28c0 2.95.02 5.91-.01 8.86-.02 1.63 1.17 2.56 2.6 2.56 8.72-.02 17.45-.02 26.17 0 1.5 0 2.57-1.07 2.56-2.55-.02-8.29-.01-16.58-.01-24.87zm-22.03 22.36c0 .31-.09.4-.4.39-1.27-.02-2.53-.02-3.8 0-.32 0-.39-.1-.39-.4.01-2.35.01-4.7.01-7.05 0-2.35.01-4.7-.01-7.05 0-.33.08-.42.42-.42 1.25.02 2.5.02 3.75 0 .34-.01.41.1.41.42.01 4.71.01 9.41.01 14.11zM99 9.6c-1.31.15-2.7-1.3-2.63-2.66.07-1.42 1.22-2.63 2.66-2.61 1.4.02 2.63 1.06 2.65 2.62.03 1.68-1.45 2.78-2.68 2.65zm19.29 17.03c-1.28-.02-2.56-.02-3.84 0-.32 0-.39-.1-.39-.4.01-2.62.01-5.23.01-7.85 0-.63-.09-1.25-.35-1.84-.5-1.09-1.54-1.33-2.68-1.15-1.45.23-2.05 1.33-2.13 2.94-.14 2.61-.03 5.22-.06 7.84 0 .37-.1.47-.47.46-1.22-.02-2.45-.02-3.67 0-.38.01-.46-.12-.45-.47.02-2.34.01-4.67.01-7.01s.01-4.67-.01-7.01c0-.36.11-.44.45-.43 1.19.02 2.39.02 3.58 0 .3 0 .38.09.37.37-.02.44-.01.88 0 1.32 0 .09-.05.23.09.26.12.03.17-.1.22-.18.82-1.24 2-1.95 3.45-2.1 1.67-.17 3.29.02 4.61 1.23.81.74 1.19 1.72 1.39 2.77.22 1.12.29 2.26.29 3.4.01 2.47 0 4.94.01 7.41-.02.33-.08.45-.43.44zM87.06 4.58c-1.28.01-2.56.02-3.84 0-.35-.01-.44.1-.44.44.01 2.51.01 5.03.01 7.54 0 .15.04.31-.06.47-.4-.31-.67-.7-1.08-.94-1.34-.79-2.81-1-4.33-.87s-2.86.74-3.89 1.84c-2.09 2.24-2.67 4.97-2.16 7.91.5 2.9 2.12 4.94 5.05 5.76 1.43.4 2.87.43 4.28-.11.97-.38 1.79-.98 2.53-1.89 0 .62.01 1.1-.01 1.58-.01.27.07.35.35.35 1.21-.01 2.42-.01 3.62 0 .28 0 .37-.07.37-.37-.01-7.11-.01-14.22 0-21.34.01-.32-.11-.37-.4-.37zm-5.68 17.85c-1.31.68-2.7.68-3.96-.09-1.32-.8-1.71-2.13-1.6-3.61.06-.81.29-1.58.84-2.21 1-1.14 2.3-1.39 3.69-1.11 1.85.37 2.78 1.7 2.78 3.76.01 1.4-.46 2.59-1.75 3.26zM49.63 18.9c-.17-.22-.14-.35.04-.55.53-.58 1.02-1.21 1.55-1.8.95-1.08 1.91-2.14 2.86-3.21.47-.53.92-1.07 1.4-1.64-.1-.03-.13-.05-.17-.05-1.78 0-3.57 0-5.35-.01-.15 0-.23.05-.33.16-.74.87-1.49 1.72-2.24 2.58-.91 1.05-1.82 2.1-2.82 3.25v-.61c0-4 0-8 .01-11.99 0-.33-.06-.46-.43-.45-1.3.02-2.59.02-3.89 0-.3 0-.4.07-.4.39.01 7.1.01 14.2 0 21.3 0 .3.07.4.39.4 1.3-.02 2.59-.02 3.89 0 .35.01.44-.09.44-.44-.02-2.13-.01-4.26 0-6.39 0-.12-.06-.26.06-.37.06.08.12.14.16.21 1.48 2.22 2.97 4.44 4.45 6.66.14.21.28.33.56.33 1.72-.01 3.45-.01 5.17-.01.1 0 .24.06.32-.12-.96-1.29-1.92-2.6-2.89-3.9-.92-1.26-1.85-2.51-2.78-3.74z" class="st0"/><path d="M66.43 12.1c-1.94-1.08-4.03-1.13-6.15-.58-1.61.42-2.98 1.21-4.07 2.48-1.67 1.95-2.05 4.24-1.65 6.67.42 2.57 1.91 4.39 4.24 5.51 1.33.64 2.76.84 4.24.82 2.33-.04 4.25-.97 5.85-2.62.27-.28.2-.43-.08-.63-.9-.63-1.79-1.27-2.67-1.94-.23-.18-.33-.12-.48.08-.55.73-1.27 1.2-2.16 1.44-1.88.5-3.76-.52-4.29-2.31-.1-.34-.02-.39.3-.39 1.65.01 3.3.01 4.95.01h4.99c.19 0 .38.05.38-.27 0-1.49.03-2.98-.44-4.44-.52-1.64-1.45-2.99-2.96-3.83zm-1.63 5.28c-.88-.02-1.77-.01-2.65-.01-.88 0-1.77-.01-2.65.01-.3.01-.4-.07-.33-.37.32-1.3 1.16-2.12 2.44-2.37 1.23-.25 2.32.1 3.09 1.19.24.35.35.74.44 1.14.07.29 0 .42-.34.41zM37.24 14.93c-.4-1.51-1.19-2.7-2.73-3.25-.91-.33-1.85-.42-2.82-.39-1.06.03-2 .37-2.85 1.01-.46.35-.81.79-1.25 1.31 0-.59-.02-1.06.01-1.53.02-.33-.06-.46-.43-.45-1.22.03-2.45.02-3.67 0-.34-.01-.41.11-.41.43.01 4.73.01 9.46 0 14.2 0 .35.12.41.43.4 1.28-.02 2.56-.02 3.85 0 .33 0 .42-.08.42-.41-.01-2.4 0-4.79-.01-7.19 0-.47.03-.94.13-1.4.12-.57.3-1.13.74-1.56.6-.59 1.32-.72 2.11-.67.82.05 1.43.41 1.77 1.17.31.7.38 1.43.38 2.18 0 2.48.01 4.97-.01 7.45 0 .32.07.43.41.42 1.28-.02 2.56-.02 3.85 0 .35.01.44-.1.44-.44-.01-2.82 0-5.64-.01-8.46-.02-.95-.11-1.89-.35-2.82zM20.6 19.14c0-2.35-.01-4.7.01-7.05 0-.32-.05-.46-.42-.45-1.3.03-2.59.02-3.89 0-.35-.01-.41.11-.41.43.01 4.72.01 9.43 0 14.15 0 .32.05.46.42.45 1.3-.02 2.59-.02 3.89 0 .35.01.41-.11.41-.43-.02-2.37-.01-4.74-.01-7.1zM18.23 4.26c-1.5 0-2.7 1.12-2.73 2.69-.03 1.52 1.19 2.72 2.73 2.72 1.53 0 2.71-1.17 2.71-2.68 0-1.49-1.1-2.73-2.71-2.73z" class="st0"/></g></svg>