<svg xmlns="http://www.w3.org/2000/svg" xml:space="preserve" style="enable-background:new 0 0 138.83 52.83" viewBox="0 0 138.83 52.83"><style>.st0{fill:#fff}.st1{font-family:&quot;Lato-Light&quot;}.st2{font-size:16.0459px}</style><g id="photoshop"><text transform="matrix(1 .00423 -.00423 1 64.646 21.988)"><tspan x="0" y="0" class="st0 st1 st2">Adobe </tspan><tspan x="0" y="19.25" class="st0 st1 st2">Photoshop</tspan></text><path d="M17.13 29.82v2.7c0 1.75-.02 3.5.01 5.25.01.57-.13.81-.75.77-.78-.05-1.56-.05-2.34 0-.64.04-.85-.14-.85-.82.03-4.35.01-8.71.01-13.06 0-3.29.01-6.58-.02-9.87-.01-.63.16-.9.83-.89 2.39.02 4.79-.17 7.16.04 4.35.39 6.71 2.97 6.9 7.21.2 4.31-2.15 7.43-6.32 8.22-1.47.3-2.99.31-4.63.45zm.04-8.03c-.01 1.27 0 2.55-.01 3.82 0 .32.04.57.45.55 1.15-.08 2.33-.02 3.44-.26 2.12-.47 3.11-2.03 3.03-4.48-.07-2.14-1.21-3.55-3.3-3.89-.99-.16-2.02-.08-3.03-.13-.47-.02-.6.19-.59.64.03 1.24.01 2.49.01 3.75zM30.3 34.05c1.37.84 2.7 1.35 4.16 1.42.54.03 1.09 0 1.62-.09.69-.11 1.24-.48 1.44-1.2.2-.71-.03-1.35-.6-1.77-.72-.53-1.5-.97-2.26-1.45-.89-.57-1.88-1.04-2.67-1.73-2.76-2.4-2.13-6.86 1.17-8.42 2.28-1.07 4.65-.86 7-.18.2.06.46.33.47.51.04 1.08.02 2.16.02 3.34-.27-.1-.44-.15-.6-.23-1.18-.61-2.45-.86-3.77-.81-.39.01-.81.08-1.17.23-1.18.48-1.44 1.8-.46 2.61.72.59 1.59 1.01 2.38 1.52.91.58 1.91 1.07 2.72 1.78 2.86 2.53 2.1 7.22-1.41 8.7-2.5 1.05-5.04.81-7.54-.13-.37-.14-.54-.38-.53-.81.05-1.05.03-2.1.03-3.29z" class="st0"/><path d="M45.02 0H9.69C4.33 0 0 4.29 0 9.59v33.64c0 5.31 4.33 9.59 9.69 9.59h35.33c5.36 0 9.69-4.29 9.69-9.59V9.59c0-5.3-4.34-9.59-9.69-9.59zm7.38 42.35c.02 4.52-3.66 8.2-8.22 8.22H10.55c-4.56 0-8.27-3.68-8.27-8.2V10.45c0-4.52 3.72-8.2 8.27-8.2h33.58c4.57 0 8.27 3.67 8.27 8.2v31.9z" class="st0"/></g></svg>