<svg xmlns="http://www.w3.org/2000/svg" xml:space="preserve" style="enable-background:new 0 0 83.19 50.63" viewBox="0 0 83.19 50.63"><style>.st0{fill:#fff}</style><g id="figma"><text class="st0" style="font-size:16.0459px;font-family:&quot;Lato-Light&quot;" transform="translate(41.532 30.67)">Figma</text><path d="M33.82 9.33V7.5c0-4.14-3.36-7.5-7.5-7.5H7.5C3.36 0 0 3.36 0 7.5v1.83c0 4.14 3.36 7.5 7.5 7.5h16.95a8.451 8.451 0 0 0-7.53 8.4c0 4.67 3.79 8.46 8.46 8.46s8.46-3.79 8.46-8.46c0-4.36-3.3-7.94-7.53-8.4h.04c4.12-.01 7.47-3.36 7.47-7.5z" class="st0"/><path d="M7.5 16.86c-4.14 0-7.5 3.36-7.5 7.5v1.83c0 4.14 3.36 7.5 7.5 7.5h9.41V16.86H7.5zM16.8 33.71H8.05v.02C3.57 33.95 0 37.64 0 42.17c0 4.67 3.79 8.46 8.46 8.46s8.46-3.79 8.46-8.46c0-.44-.04-.87-.11-1.29v-7.17z" class="st0"/></g></svg>