<svg xmlns="http://www.w3.org/2000/svg" xml:space="preserve" style="enable-background:new 0 0 51.98 64.14" viewBox="0 0 51.98 64.14"><style>.st0{fill:#fff}</style><g id="bootstrap"><text class="st0" style="font-size:16.0459px;font-family:&quot;Lato-Light&quot;" transform="translate(6.415 61.159)">React</text><path d="M51.31 20.74c-.4-.7-.93-1.31-1.52-1.86-1.03-.96-2.2-1.71-3.45-2.36-1.6-.84-3.29-1.47-5.02-1.98-.08-.02-.16-.05-.22-.07-.01-.04-.01-.06-.01-.07.01-.04.01-.08.02-.11.44-1.87.73-3.75.78-5.67.04-1.45-.06-2.88-.44-4.29-.24-.91-.6-1.77-1.17-2.52C39.39.62 38.19.05 36.72.01c-.7-.02-1.38.09-2.06.26-1.21.31-2.34.83-3.42 1.45-1.7.98-3.23 2.18-4.67 3.51-.18.17-.36.34-.56.52-.07-.07-.13-.12-.19-.17-1.11-1.04-2.28-2.01-3.54-2.86C21 1.85 19.66 1.1 18.19.59 17.05.2 15.89-.04 14.67.1c-.83.1-1.59.38-2.24.9-.73.58-1.22 1.34-1.58 2.19-.41.98-.62 2-.72 3.05-.15 1.49-.09 2.97.1 4.46.15 1.19.37 2.38.66 3.54.02.06.02.13.03.2-.08.02-.14.04-.19.06-1.82.53-3.6 1.19-5.28 2.09-1.21.64-2.35 1.39-3.34 2.34-.66.63-1.22 1.32-1.62 2.15-.3.62-.48 1.27-.49 1.96-.01.83.22 1.6.61 2.32.41.76.95 1.42 1.57 2.02 1.19 1.15 2.57 2.02 4.03 2.75 1.41.71 2.87 1.27 4.38 1.72.1.03.2.07.3.1-.02.08-.02.14-.04.2-.43 1.78-.73 3.58-.8 5.41-.06 1.41.03 2.81.36 4.18.22.89.54 1.74 1.07 2.5.9 1.31 2.17 1.95 3.74 2 .86.03 1.7-.11 2.53-.35 1.42-.41 2.73-1.06 3.97-1.84 1.48-.93 2.84-2.02 4.11-3.22.08-.07.16-.14.25-.23.19.18.36.34.54.5 1.46 1.35 3.02 2.57 4.76 3.54 1.38.77 2.82 1.38 4.41 1.57.66.08 1.32.06 1.98-.09 1.2-.28 2.09-.98 2.76-1.99.44-.67.74-1.4.96-2.17.36-1.24.48-2.51.49-3.8.01-1.99-.25-3.95-.7-5.89-.03-.15-.07-.3-.1-.43.03-.02.04-.04.05-.04l.18-.06c1.59-.49 3.15-1.09 4.63-1.85 1.31-.68 2.56-1.46 3.65-2.47.73-.68 1.37-1.44 1.81-2.35.24-.51.4-1.03.46-1.59.1-.99-.16-1.89-.65-2.74zM27.69 7.2c1.42-1.36 2.94-2.59 4.65-3.57.93-.54 1.9-.99 2.95-1.25.47-.12.94-.18 1.42-.17.78.02 1.4.33 1.85.97.42.59.66 1.25.82 1.95.28 1.18.35 2.38.3 3.59-.06 1.65-.31 3.27-.68 4.87-.02.08-.04.16-.06.25 0 .01-.02.03-.04.06a1.18 1.18 0 0 1-.2-.04c-1.42-.31-2.85-.58-4.3-.76-.73-.09-1.45-.18-2.18-.26-.19-.02-.3-.1-.41-.24-.75-1-1.49-2.01-2.27-2.99-.59-.74-1.22-1.43-1.84-2.14-.04-.05-.08-.09-.12-.15.04-.04.07-.09.11-.12zm-12.3 18.64c.94 1.79 1.95 3.53 3.07 5.28-1.64-.18-3.21-.42-4.81-.77a46.72 46.72 0 0 1 1.67-4.56c.04.02.07.03.07.05zm-1.69-9.82c1.54-.35 3.09-.61 4.71-.81a68.733 68.733 0 0 0-3.05 5.29c-.26-.4-1.54-3.85-1.66-4.48zm4.43 10.24c-.52-.95-1-1.93-1.51-2.89-.08-.16-.09-.28-.01-.45 1.32-2.69 2.81-5.28 4.48-7.77.12-.17.25-.24.45-.25 1.48-.09 2.96-.16 4.44-.18 1.3.05 2.6.09 3.91.14.21.01.42.04.62.04.17 0 .26.07.35.21 1.1 1.65 2.14 3.34 3.09 5.08.5.91.96 1.83 1.45 2.74.07.13.07.23 0 .36a74.995 74.995 0 0 1-4.52 7.88c-.09.13-.18.19-.34.2-.65.03-1.29.08-1.94.1-1.8.07-3.59.06-5.39 0-.59-.02-1.17-.06-1.76-.08-.15-.01-.23-.08-.31-.2-1.07-1.6-2.08-3.24-3.01-4.93zm18.55-.6c.67 1.52 1.25 3.02 1.74 4.56-.47.21-4.4.88-4.83.82 1.1-1.75 2.12-3.52 3.09-5.38zm-.02-5.12c-.97-1.82-1.97-3.57-3.06-5.28.06-.01.09-.03.13-.03 1.51.2 3.02.45 4.5.79.02 0 .04.02.09.05-.47 1.51-1.02 2.97-1.66 4.47zM26 8.91c.44.36 2.7 3.1 3.04 3.67-.69.02-1.36-.05-2.03-.04-.67.01-1.34-.01-2.01 0-.67.01-1.35.03-2.08.05 1-1.3 2-2.51 3.08-3.68zM12.58 5.03c.1-.41.26-.81.41-1.2.07-.19.19-.37.3-.54.44-.68 1.08-.99 1.87-1.02.8-.03 1.56.14 2.31.4 1.23.42 2.35 1.05 3.42 1.76 1.22.81 2.35 1.74 3.42 2.75.04.04.1.07.16.11-.06.08-.1.13-.14.18-1.5 1.62-2.87 3.34-4.15 5.14-.11.15-.22.22-.41.23-2.16.21-4.3.52-6.41 1-.08.02-.16.03-.28.05-.09-.42-.19-.82-.27-1.22-.24-1.13-.41-2.28-.49-3.43-.1-1.42-.09-2.83.26-4.21zm-1 24.56c-.02.06-.05.13-.08.22-.41-.13-.79-.24-1.17-.37-1.61-.54-3.16-1.22-4.61-2.12-.89-.56-1.72-1.18-2.42-1.97-.31-.35-.59-.73-.8-1.15-.39-.77-.38-1.52.03-2.28.28-.52.66-.97 1.08-1.38.83-.8 1.79-1.43 2.81-1.98 1.6-.86 3.28-1.48 5.02-1.98.02-.01.04-.01.09-.01.03.07.06.13.08.2.65 2.09 1.45 4.13 2.36 6.12.07.16.08.29.01.45-.93 2.04-1.74 4.12-2.4 6.25zm12.87 9.52c-1.42 1.36-2.95 2.57-4.67 3.53-.94.53-1.93.97-2.98 1.22-.52.13-1.04.19-1.58.17-.81-.03-1.45-.36-1.91-1.04-.39-.59-.62-1.24-.78-1.92-.26-1.17-.32-2.35-.26-3.54.08-1.61.34-3.2.72-4.77.02-.08.04-.16.07-.27.36.07.69.14 1.02.2 1.16.23 2.33.42 3.51.55.76.09 1.52.16 2.28.23.13.01.23.05.31.17 1.32 1.85 2.73 3.62 4.27 5.28.03.03.05.06.08.1-.03.03-.05.06-.08.09zm1.63-1.68a50.32 50.32 0 0 1-3.09-3.69c.01-.02.01-.03.01-.04 0-.01.01-.02.01-.02 2.02.04 4.04.08 6.08 0-.93 1.31-1.92 2.55-3.01 3.75zm13.71.77c-.01 1.17-.13 2.32-.5 3.44-.14.43-.33.85-.57 1.24-.54.88-1.35 1.22-2.35 1.17-1.04-.06-2.01-.39-2.94-.83-1.37-.64-2.62-1.47-3.78-2.43-.63-.52-1.23-1.07-1.85-1.61-.06-.05-.11-.11-.17-.17.05-.06.08-.11.12-.15 1.48-1.63 2.82-3.37 4.07-5.18.11-.15.22-.23.41-.24.63-.06 1.26-.12 1.88-.21.98-.14 1.95-.28 2.92-.45.62-.11 1.24-.25 1.86-.38.04-.01.08-.01.13-.01.02.06.05.11.06.17.45 1.86.73 3.73.71 5.64zm9.7-14.02c-.33.63-.79 1.16-1.31 1.64-.92.85-1.97 1.51-3.08 2.08-1.39.72-2.85 1.28-4.35 1.73-.05.02-.1.03-.18.04-.15-.45-.29-.87-.44-1.29-.61-1.73-1.31-3.41-2.1-5.06a.452.452 0 0 1 0-.45 51.21 51.21 0 0 0 2.38-6.09c.02-.05.04-.1.06-.16.04 0 .08-.01.12 0 2.02.6 3.97 1.34 5.77 2.44.85.52 1.65 1.11 2.34 1.84.29.32.55.66.76 1.04.41.75.41 1.49.03 2.24z" class="st0"/><path d="M25.99 27.72c2.56 0 4.63-2.07 4.63-4.64a4.62 4.62 0 0 0-4.63-4.63c-2.56 0-4.63 2.07-4.63 4.63 0 2.57 2.07 4.64 4.63 4.64z" class="st0"/></g></svg>