<svg xmlns="http://www.w3.org/2000/svg" xml:space="preserve" style="enable-background:new 0 0 83.88 53.35" viewBox="0 0 83.88 53.35"><style>.st0{fill:#fff}</style><g id="wordpress"><path d="M41.33 45.88c-.81-.62-1.76-.9-2.75-.93-1.64-.05-3.27-.04-4.91-.05-.05 0-.1.02-.14.03v.39c.09.01.15.02.21.02 1.03.1 1.27.32 1.31 1.35.04 1.1.03 2.2.03 3.3 0 .46-.01.92-.04 1.38-.05.74-.34 1.01-1.08 1.11-.69.09-1.29-.14-1.84-.52-.95-.66-1.63-1.59-2.42-2.39.44-.2.89-.34 1.26-.58 1.37-.89 1.33-2.77-.1-3.56-.46-.26-1.02-.44-1.55-.46-1.56-.07-3.12-.05-4.69-.06-.05 0-.1.02-.16.03-.01.07-.02.13-.02.2 0 .06.01.12.02.19.1.01.18.02.27.03.97.1 1.2.3 1.25 1.27.05.94.04 1.88.04 2.82 0 .65-.01 1.3-.05 1.96-.05.72-.34 1-1.06 1.08-.16.02-.31.04-.48.06.01.15.01.26.02.39h4.76v-.39c-.23-.02-.43-.04-.63-.07-.42-.06-.75-.28-.8-.71-.09-.71-.11-1.42-.15-2.12.35-.11.51 0 .67.19.76.97 1.54 1.92 2.3 2.89.13.17.27.24.48.24 2.2-.01 4.41 0 6.61-.01.91 0 1.82-.09 2.67-.44 1.32-.55 2.15-1.51 2.34-2.93.21-1.48-.14-2.77-1.37-3.71zM27.7 48.82v-3.19c.58-.02 1.16-.11 1.72.14.64.29.93.95.82 1.78-.09.68-.53 1.17-1.21 1.26-.43.05-.87.01-1.33.01zm13.05 1.33c-.3 1.25-1.21 1.98-2.5 2.05-.26.01-.51.01-.77 0-.45-.02-.66-.22-.71-.67-.03-.28-.04-.55-.04-.83V45.61c.83 0 1.61-.08 2.37.17.92.3 1.44.97 1.66 1.88.19.83.18 1.67-.01 2.49zM68.65 50.99c-.13.75-.57 1.15-1.34 1.18-.58.02-1.15.04-1.73.02-.39-.01-.74-.17-.86-.59-.24-.83-.1-1.67-.15-2.57.52.05.98.08 1.43.15.36.06.55.3.59.67.02.21.05.42.07.62.32.1.42.01.42-.31-.02-.76-.01-1.52-.01-2.28v-.93h-.41c-.03.23-.04.45-.07.66-.04.27-.17.52-.44.58-.5.1-1.02.15-1.55.22v-2.82c.84.04 1.66.06 2.48.12.55.04.89.38 1.03.91.03.1.07.2.08.31.03.25.17.29.42.21-.06-.74-.11-1.46-.17-2.2h-7.06v.39c.06.01.11.02.15.02.96.05 1.33.17 1.39 1.52V50.72c0 .23-.01.47-.05.7-.13.89-.67 1.24-1.55 1.01-.56-.15-1.06-.43-1.47-.83-.61-.6-1.19-1.23-1.78-1.85-.06-.07-.11-.14-.13-.16.48-.24.98-.41 1.39-.72 1.15-.86 1.09-2.51-.08-3.34-.51-.36-1.1-.56-1.71-.57-1.52-.04-3.04-.04-4.56-.05-.35 0-.36.02-.28.42.18.02.38.04.57.06.51.06.78.28.88.79.06.31.09.64.09.96.01 1.19.01 2.37 0 3.56 0 .28-.03.56-.06.83-.08.61-.36.88-.98.95l-.52.06c0 .19-.13.42.22.41h4.4c.04 0 .08-.02.14-.03v-.39c-.22-.02-.42-.04-.62-.07-.38-.06-.67-.23-.79-.61-.22-.74-.11-1.5-.14-2.23.3-.1.46 0 .62.2.76.97 1.54 1.92 2.3 2.89.14.18.29.24.51.24 3.08-.01 6.17 0 9.25-.01.11 0 .23-.01.36-.02.05-.76.09-1.49.14-2.2-.32-.12-.39.07-.42.27zm-12.41-2.13c-.1 0-.21-.01-.33-.02v-3.26c.52.04 1.04.02 1.53.13.68.15 1.08.84 1.03 1.62-.05.81-.49 1.37-1.21 1.48-.33.05-.68.03-1.02.05zM15.86 42.92v-.4H11.4v.4c.23.03.43.04.63.07.75.11.99.42.8 1.14-.24.89-.55 1.77-.85 2.65-.32.96-.65 1.92-1 2.95-.07-.18-.12-.3-.16-.42-.72-2.17-1.43-4.34-2.15-6.51-.05-.15-.06-.32-.32-.32s-.29.16-.35.33c-.43 1.29-.86 2.57-1.3 3.86-.33.99-.67 1.98-1 2.97-.03 0-.05.01-.08.01-.31-.94-.62-1.88-.92-2.82-.29-.93-.6-1.85-.85-2.79-.16-.59.13-.94.73-1.04.24-.04.48-.06.73-.09v-.4H0c.01.11 0 .17 0 .23s.02.12.03.19c.07.01.12.02.17.02.93-.01 1.54.43 1.85 1.3.21.58.42 1.17.61 1.75.77 2.36 1.54 4.73 2.31 7.1.03.1.15.17.22.25.08-.08.15-.17.23-.25.02-.02.03-.06.04-.09.75-2.27 1.51-4.54 2.26-6.81l.15-.41c.06.19.1.29.13.39.75 2.28 1.49 4.57 2.24 6.85.04.12.16.21.24.32.09-.1.21-.19.25-.3.87-2.57 1.72-5.14 2.58-7.71.16-.48.36-.96.57-1.42.25-.54.7-.85 1.3-.91.24-.03.46-.06.68-.09zM50.54 42.99c-.6-.31-1.24-.47-1.91-.48-1.71-.02-3.42-.01-5.14-.01-.07 0-.14.02-.23.02v.4c.24.03.45.04.66.07.64.09.94.35 1.07.97.07.34.12.7.12 1.05.01 1.69.01 3.38.01 5.07 0 .26 0 .51-.03.77-.16 1.28-.37 1.47-1.66 1.62-.08.01-.18.12-.2.2-.06.25.11.27.3.27h4.85c.39 0 .4-.02.31-.46-.09 0-.16-.01-.24-.01-1.07-.04-1.46-.38-1.55-1.46-.07-.78-.05-1.56-.07-2.34 0-.07.02-.14.03-.23h1.2c.84-.01 1.67-.09 2.43-.49.99-.52 1.56-1.32 1.57-2.46.03-1.14-.52-1.97-1.52-2.5zm-.39 3.04c-.19.93-.74 1.44-1.69 1.52-.52.05-1.04.01-1.6.01V43.3c.68.04 1.34.02 1.99.13.76.14 1.28.83 1.35 1.68.02.3.01.62-.05.92zM19.34 44.6c-1.24 0-2.24.31-3.13.93-2.22 1.54-2.47 4.44-.55 6.33 1.95 1.91 5.37 1.83 7.23-.18 1.43-1.54 1.5-3.75.15-5.34-.99-1.19-2.31-1.71-3.7-1.74zm2.41 6.37c-.52 1.06-1.43 1.54-2.58 1.53-1.15-.01-2.01-.53-2.53-1.56-.32-.64-.46-1.33-.45-2.05 0-.72.14-1.4.47-2.04.53-1.01 1.38-1.52 2.52-1.53 1.15-.01 2.04.48 2.56 1.51.68 1.37.68 2.77.01 4.14zM83.3 49.28c-.27-.29-.62-.53-.97-.72-.65-.35-1.32-.65-1.98-.99-.27-.14-.54-.31-.77-.52-.51-.47-.41-1.19.21-1.49.28-.14.64-.21.95-.19.98.06 1.59.66 1.86 1.74.09.37.12.39.52.27v-2.74c-.59-.22-.43.44-.74.57-.03-.02-.08-.03-.12-.06-.6-.4-1.26-.58-1.98-.52-.99.08-1.8.48-2.21 1.44-.39.91 0 2.01.97 2.64.55.36 1.17.61 1.76.92.4.22.82.42 1.19.69.51.37.67.85.5 1.34-.15.46-.63.77-1.21.8-1.35.07-2.41-.69-2.78-1.99-.05-.17-.09-.34-.13-.51h-.44v3c0 .08.01.17.02.25.25.08.41.06.49-.23.05-.19.18-.37.29-.56.15.1.24.17.34.23 1.23.81 2.8.78 3.87-.07 1.09-.85 1.26-2.32.36-3.3zM75.02 48.55c-.66-.33-1.33-.64-1.98-.98-.27-.14-.54-.31-.77-.52-.51-.47-.42-1.19.2-1.49.28-.14.64-.22.95-.2.98.06 1.6.66 1.87 1.74.09.38.12.39.52.28v-2.74c-.59-.22-.43.44-.74.58-1-.57-1.68-.71-2.58-.52-1.19.25-1.97 1.19-1.86 2.29.09.91.64 1.52 1.41 1.94.6.33 1.24.59 1.84.91.33.17.65.38.93.62.35.29.51.69.37 1.15-.13.44-.45.69-.88.8-1.22.34-2.59-.42-3.05-1.69-.09-.24-.14-.49-.21-.75h-.43v2.96c0 .09.01.19.02.28.28.1.43.04.51-.25.05-.18.18-.35.28-.53.14.1.23.16.33.23 1.34.88 3.09.76 4.11-.28.69-.7.89-1.73.49-2.54-.27-.6-.74-1.01-1.33-1.29zM41.94 0c10.28-.01 18.58 8.27 18.61 18.56.02 10.3-8.28 18.62-18.59 18.62-10.3 0-18.63-8.32-18.61-18.61C23.36 8.28 31.64.01 41.94 0zM24.41 18.54c-.1 9.6 7.72 17.47 17.44 17.57 9.64.1 17.5-7.66 17.62-17.38.12-9.66-7.64-17.53-17.4-17.65C32.4.95 24.51 8.76 24.41 18.54z" class="st0"/><path d="m49.65 27.78.13.03c.79-2.66 1.64-5.31 2.35-7.99.25-.97.24-2.03.18-3.04-.07-1.32-.74-2.46-1.38-3.6-.46-.82-.95-1.67-1.21-2.56-.44-1.48.45-3.01 1.83-3.4.21-.06.44-.09.77-.16-4.25-3.56-8.97-4.75-14.24-3.46-3.8.93-6.77 3.12-9.06 6.45.63 0 1.1.02 1.58 0 1.15-.04 2.31-.13 3.46-.14.24 0 .56.23.7.45.08.13-.05.51-.21.65-.17.15-.46.18-.71.22-.43.06-.87.08-1.36.13 1.87 5.55 3.71 11.04 5.59 16.63.09-.18.12-.24.14-.31 1.05-3.14 2.1-6.27 3.13-9.41.08-.23.03-.54-.06-.79-.56-1.59-1.21-3.14-1.7-4.75-.31-1.04-.75-1.63-1.93-1.53-.58.05-.85-.29-.79-.74.07-.53.44-.59.89-.57 1.65.06 3.29.12 4.94.13 1.01.01 2.01-.1 3.02-.13.49-.02.81.32.73.73-.08.41-.38.56-.76.59-.5.05-1.01.09-1.57.14 1.87 5.52 3.7 10.98 5.54 16.43zm-7.43-7.77c-1.56 4.54-3.09 8.97-4.63 13.45 3.21.89 6.32.85 9.45-.25-1.61-4.4-3.2-8.74-4.82-13.2zM35.1 32.44c-2.44-6.69-4.87-13.33-7.33-20.06-3.4 7.65.09 16.68 7.33 20.06zm20.53-20.99c.23 2.09-.13 4.07-.8 6-1.6 4.59-3.19 9.18-4.79 13.77-.07.19-.12.39-.21.66 7.79-4.57 9.36-14.29 5.8-20.43z" class="st0"/><path d="M49.65 27.78c-1.83-5.45-3.67-10.9-5.52-16.42.56-.05 1.07-.09 1.57-.14.37-.04.68-.18.76-.59.08-.41-.25-.75-.73-.73-1.01.04-2.01.14-3.02.13-1.65-.01-3.29-.08-4.94-.13-.45-.02-.82.04-.89.57-.06.45.21.79.79.74 1.18-.1 1.62.49 1.93 1.53.48 1.61 1.14 3.16 1.7 4.75.09.24.13.55.06.79-1.03 3.14-2.08 6.28-3.13 9.41-.02.07-.06.13-.14.31-1.88-5.6-3.73-11.08-5.59-16.63.49-.04.93-.07 1.36-.13.25-.03.55-.07.71-.22.15-.14.29-.52.21-.65-.14-.22-.45-.45-.7-.45-1.15 0-2.3.09-3.46.14-.47.02-.95 0-1.58 0 2.29-3.33 5.27-5.52 9.06-6.45 5.27-1.29 9.99-.1 14.24 3.46-.33.07-.55.1-.77.16-1.38.39-2.27 1.92-1.83 3.4.26.9.75 1.74 1.21 2.56.64 1.14 1.31 2.28 1.38 3.6.06 1.01.07 2.08-.18 3.04-.7 2.68-1.55 5.33-2.35 7.99a4.06 4.06 0 0 0-.15-.04z" class="st0"/><path d="M42.22 20.01c1.63 4.46 3.21 8.8 4.82 13.2-3.13 1.09-6.24 1.14-9.45.25 1.54-4.48 3.06-8.91 4.63-13.45zM35.1 32.44c-7.24-3.38-10.73-12.41-7.33-20.06 2.46 6.73 4.89 13.36 7.33 20.06zM55.63 11.45c3.56 6.14 2 15.86-5.79 20.44.09-.27.14-.47.21-.66 1.6-4.59 3.19-9.18 4.79-13.77.66-1.94 1.02-3.92.79-6.01z" class="st0"/></g></svg>