<svg xmlns="http://www.w3.org/2000/svg" xml:space="preserve" style="enable-background:new 0 0 88.48 85.39" viewBox="0 0 88.48 85.39"><style>.st0{fill:#fff}</style><g id="visualstudio"><path d="M72.13 5.63v44.53c-.75.31-1.49.61-2.24.92-3.92 1.6-7.85 3.19-11.77 4.79-.21.09-.21.09-.38-.08L46.41 44.43c-3.34-3.34-6.67-6.69-10.01-10.03-.21-.21-.21-.21-.45-.03-2.89 2.25-5.78 4.51-8.68 6.76-1.58 1.23-3.17 2.47-4.75 3.71-.12.1-.22.13-.37.05-1.86-.94-3.73-1.87-5.6-2.79-.16-.08-.21-.18-.21-.34.01-.86 0-1.72 0-2.58 0-8.31 0-16.63-.01-24.94 0-.24.07-.35.29-.46 1.82-.91 3.63-1.82 5.44-2.74.18-.09.29-.08.45.04 4.44 3.5 8.89 7 13.34 10.5.06.05.12.09.2.14.09-.08.17-.15.25-.23 4.12-4.13 8.24-8.25 12.36-12.38 2.98-2.98 5.96-5.97 8.94-8.96.16-.16.28-.2.5-.11 1.42.58 2.85 1.14 4.27 1.71 3.27 1.3 6.52 2.59 9.76 3.88zM57.4 17.87c-.2.08-12.9 9.91-13.04 10.1.08.07.16.14.24.2 3.11 2.4 6.22 4.81 9.33 7.21 1.08.83 2.16 1.67 3.24 2.5.07.05.15.09.25.16.01-.11.03-.18.03-.24.05-1.85.01-19.69-.05-19.93zm-34.58 3.48c-.06.32-.04 12.88.01 13.04.01 0 .02.01.02 0 .02-.01.05-.01.06-.03 2.21-2.01 4.42-4.01 6.63-6.02.05-.04.08-.09.12-.14 0-.01.01-.01.01-.02v-.02c-2.22-2.27-4.47-4.5-6.72-6.73-.02-.03-.07-.05-.13-.08z" class="st0"/><text class="st0" style="font-size:16.0459px;font-family:&quot;Lato-Light&quot;" transform="translate(0 82.41)">Visual Studio</text></g></svg>