<svg xmlns="http://www.w3.org/2000/svg" xml:space="preserve" style="enable-background:new 0 0 59.79 60.32" viewBox="0 0 59.79 60.32"><style>.st0{fill:#fff}</style><g id="jquery"><path d="M18.82 53.72c.39 0 .72.01 1.05 0 .31-.01.4.1.31.42-.17.58-.32 1.18-.46 1.77-.06.26-.21.38-.48.38-2.29 0-4.59.01-6.88-.01-.47 0-.95-.1-1.41-.23-1.64-.46-2.64-1.66-2.76-3.49-.16-2.5.48-4.82 2.03-6.82 1.3-1.68 3.11-2.32 5.18-2.26.71.02 1.44.14 2.1.37 1.85.63 2.93 2.33 2.89 4.38-.02 1.01-.33 1.95-.64 2.89-.24.73-.52 1.44-.78 2.15l-.15.45zm-4.49-.09c.43 0 .86-.01 1.29.01.33.02.47-.12.55-.42.31-1.16.67-2.31.96-3.48.13-.54.2-1.11.2-1.66-.01-.91-.53-1.6-1.35-1.82-1.34-.36-2.97-.08-3.81 1.5-.67 1.26-.99 2.61-.9 4.04.07 1.15.77 1.8 1.93 1.84.37 0 .75-.01 1.13-.01zM34.03 52.2c-.18 1.01.17 1.53 1.14 1.57 1.44.06 2.89.04 4.34.06.53.01.54.01.44.52-.11.55-.24 1.1-.34 1.65-.05.24-.16.36-.41.36-1.7-.02-3.39-.03-5.09-.07-.29-.01-.59-.09-.88-.17-1.35-.39-2.08-1.27-2.09-2.69-.01-1.78.38-3.49 1.25-5.06.79-1.42 2.09-2.11 3.66-2.26.86-.08 1.75-.06 2.6.07 1.52.23 2.31 1.21 2.36 2.74.04 1.03-.19 2.02-.43 3-.07.28-.29.27-.51.27h-5.59c-.15.01-.29.01-.45.01zm.44-2.22c.06.04.08.06.1.06 1.11.01 2.22.02 3.33.01.09 0 .22-.11.25-.2.16-.47-.08-1.06-.55-1.22-.85-.3-1.7-.27-2.45.28-.37.26-.6.63-.68 1.07zM26.27 56.27c-.97-.04-1.94 0-2.9-.13-1.26-.17-1.97-1.04-2.09-2.32-.12-1.18.15-2.31.39-3.44.25-1.23.52-2.45.77-3.68.11-.51.13-.54.66-.54h1.61c.52 0 .54.03.45.52-.34 1.7-.69 3.39-1.02 5.09-.07.34-.11.69-.11 1.03.01.58.33.92.91.95.6.03 1.19.01 1.79.02.27 0 .33-.17.37-.39.47-2.19.95-4.39 1.42-6.58.14-.65.13-.65.79-.65.54 0 1.08.01 1.61 0 .3-.01.37.12.31.4l-1.98 9.28c-.06.29-.2.4-.49.39-.84-.01-1.67 0-2.51 0 .02.03.02.04.02.05zM52.11 50.98c.13-.18.22-.29.3-.4 1.24-1.81 2.48-3.63 3.71-5.45.2-.3.43-.43.79-.42.8.02 1.6 0 2.4 0h.47c-.12.19-.19.32-.27.44-2.03 2.7-4.06 5.41-6.1 8.1-.3.39-.51.8-.61 1.27-.1.45-.24.9-.34 1.35-.06.27-.21.37-.48.37-.75-.01-1.51-.01-2.26 0-.3 0-.38-.12-.31-.39.14-.53.3-1.06.41-1.59.05-.28.06-.6-.01-.87-.32-1.21-.68-2.41-1.03-3.61-.13-.44-.1-.48.35-.48.73 0 1.46.01 2.19 0 .29 0 .44.09.5.39.07.39.18.79.29 1.29z" class="st0"/><path d="M48.5 48.69c-.86 0-1.72.01-2.58-.01-.36-.01-.53.1-.6.48-.43 2.17-.89 4.33-1.34 6.49-.11.54-.16.58-.71.58h-1.54c-.54 0-.59-.05-.47-.58.31-1.48.64-2.96.95-4.45.32-1.52.65-3.03.96-4.55.07-.33.21-.47.55-.46 1.84.01 3.68.01 5.52.02.19 0 .38.01.57.03.85.09 1.32.49 1.53 1.32.06.23.11.46.16.7.09.41.06.44-.34.44-.9 0-1.78-.01-2.66-.01zM1.43 60.31H.28c-.24 0-.32-.1-.26-.34.16-.62.31-1.25.45-1.88.05-.24.18-.33.43-.34 1.18-.03 1.59-.34 1.88-1.51.27-1.09.48-2.19.72-3.29s.49-2.19.73-3.28c.06-.3.21-.42.52-.42.69.01 1.39 0 2.08 0 .26 0 .37.09.31.37-.54 2.46-1.06 4.92-1.63 7.37-.15.63-.41 1.25-.71 1.83-.5.97-1.34 1.46-2.44 1.48-.31.02-.62.02-.93.01 0 .01 0 .01 0 0zM16.58 5.7c-.93 2.58-1.4 4.99-1.19 7.5.53 6.48 3.58 11.61 8.65 15.5 6.45 4.95 13.61 6.27 21.37 3.56 2.17-.76 3.99-2.1 5.71-3.69-.17.32-.32.66-.52.96-3.33 5.31-8.12 8.16-14.36 8.84-11.78 1.29-21.62-7.55-23.86-16.84-1.43-5.93-.3-11.19 4.2-15.83z" class="st0"/><path d="M26.75 2.45c-1.42 8.1 1.21 14.04 7.79 17.71 5.44 3.04 12.49 3.23 17.63-1.99-.21.49-.28.74-.4.95-2.51 4.21-6.28 6.18-11.11 6.54-7.94.59-14-4.94-16-10.19-1.77-4.68-1.24-9 2.09-13.02zM5.95 48.61H4.84c-.24 0-.32-.1-.27-.34.14-.62.27-1.24.43-1.85.03-.11.2-.26.31-.27.76-.02 1.53-.01 2.29-.01.2 0 .28.09.24.3-.14.62-.25 1.24-.42 1.85-.04.13-.25.28-.4.3-.35.05-.72.02-1.07.02z" class="st0"/><path d="M50.81 10.88c-2.14 3.18-5.11 3.98-8.45 3.45-3.91-.63-6.63-2.94-8.02-6.64-1-2.67-.6-5.19 1.26-7.69-.95 4.76.79 8.23 4.51 10.62 3.31 2.13 6.9 2.67 10.7.26z" class="st0"/></g></svg>