<svg xmlns="http://www.w3.org/2000/svg" xml:space="preserve" style="enable-background:new 0 0 56.71 83.27" viewBox="0 0 56.71 83.27"><style>.st0{fill:#fff}</style><g id="html5"><text class="st0" style="font-size:16.0459px;font-family:&quot;Lato-Light&quot;" transform="translate(0 80.286)">HTML 5</text><path d="M28.28 60.93c-.57-.17-1.14-.35-1.72-.51-5.22-1.45-10.44-2.89-15.65-4.33-.16-.04-.22-.11-.24-.29-.1-1.25-.22-2.51-.33-3.76l-.27-3.08c-.11-1.25-.23-2.49-.34-3.74l-.27-3.08c-.09-1.06-.19-2.12-.29-3.18-.07-.83-.15-1.67-.22-2.5-.1-1.07-.19-2.14-.29-3.21l-.27-3.03c-.1-1.09-.2-2.17-.29-3.26l-.27-3.11c-.09-1.05-.19-2.1-.29-3.15l-.27-3.06c-.09-1.07-.19-2.14-.29-3.21-.07-.81-.14-1.61-.21-2.44 14.38.01 28.74.01 43.11.02-.05.63-.1 1.24-.16 1.86l-.24 2.57c-.1 1.08-.2 2.15-.29 3.23-.08.85-.15 1.7-.22 2.55-.09 1.04-.19 2.09-.29 3.13l-.27 3.11c-.09 1.05-.19 2.1-.29 3.15l-.27 3.11c-.09 1.05-.19 2.1-.28 3.15-.08.84-.15 1.68-.22 2.52-.1 1.06-.19 2.12-.29 3.18l-.27 3.11c-.09 1.05-.19 2.1-.29 3.15l-.27 3.11c-.09.98-.17 1.95-.27 2.93-.01.07-.15.17-.24.19-1.24.35-2.49.69-3.73 1.04-4.46 1.23-8.93 2.47-13.39 3.71-.1.03-.18.07-.28.11 0 .01-.02.01-.04.01zm-7.54-34.52h.35c2.51 0 5.03.01 7.54.01 4.12 0 8.24 0 12.36.01.08 0 .16.02.23-.01.08-.03.18-.1.19-.17.05-.35.08-.7.11-1.06.1-1.05.2-2.1.29-3.15.03-.35.05-.7.08-1.06-9.05 0-18.06-.01-27.1-.01.01.16.01.31.02.45.06.69.12 1.38.19 2.07l.27 3 .33 3.69.27 3.06c.11 1.24.23 2.47.33 3.71.03.38.02.38.41.38 6 .01 12 .01 17.99.02h.32c0 .12.01.22 0 .31-.05.62-.11 1.24-.16 1.87l-.24 2.62c-.06.63-.11 1.26-.17 1.89-.02.18-.07.31-.29.37-1.87.49-3.73.99-5.6 1.49a.57.57 0 0 1-.29 0c-1.89-.5-3.78-1.01-5.67-1.52-.13-.03-.18-.08-.19-.22-.11-1.29-.24-2.57-.34-3.86-.02-.23-.08-.3-.31-.3-1.63.01-3.27 0-4.9 0-.08 0-.16.01-.28.02.04.5.09.98.13 1.45l.27 3.11c.11 1.23.23 2.46.33 3.69.02.19.08.28.26.33 3.53.98 7.06 1.97 10.59 2.95.16.04.35.04.51 0 1.47-.4 2.93-.8 4.39-1.21 2.07-.57 4.14-1.15 6.22-1.72.16-.05.25-.11.26-.31.02-.42.07-.84.11-1.26l.24-2.65c.07-.82.14-1.63.22-2.45l.24-2.65c.07-.82.14-1.63.22-2.45l.24-2.67c.06-.63.1-1.26.17-1.89.04-.4.06-.4-.34-.4-4.22 0-8.44.01-12.66.01h-6.09c-.13 0-.26.02-.38-.01-.07-.02-.17-.1-.19-.17-.04-.21-.04-.42-.06-.63-.11-1.25-.23-2.51-.34-3.76-.04-.3-.06-.59-.08-.92zM38.05.01c-.01.11-.02.22-.02.33v7.87H35.3V4.25c-.02-.01-.04-.01-.06-.02-.61.94-1.23 1.89-1.87 2.87-.63-.97-1.25-1.92-1.87-2.87-.01 0-.03.01-.04.01V8.2h-2.7V.01h2.89c.57.96 1.15 1.91 1.74 2.9.61-1 1.18-1.95 1.76-2.9h2.9zM18.81 0c-.01.11-.02.22-.02.33v7.88h-2.73V5.5h-2.51v2.71h-2.76V.01h2.74v2.7h2.54V.01C16.99 0 17.9 0 18.81 0zM27.6.01c-.01.77-.02 1.54-.02 2.31v.43h-2.42v5.46h-2.73V2.77h-2.45V.02C22.52 0 25.06.01 27.6.01zM42.12.01v5.48h3.87v2.72h-6.6V.32c0-.1-.01-.2-.01-.3.91-.01 1.82-.01 2.74-.01z" class="st0"/></g></svg>