<svg xmlns="http://www.w3.org/2000/svg" xml:space="preserve" style="enable-background:new 0 0 99.57 33.36" viewBox="0 0 99.57 33.36"><style>.st0{fill:#fff}</style><g id="invision"><path d="M30.79 0c2.06.77 2.56 2.36 2.47 4.39-.09 2.13-.02 4.27-.02 6.41 0 .64-.11 1.3.85 1.42.21.03.41.49.52.78.98 2.64 1.93 5.28 2.9 7.92.14.39.34.76.63 1.4.31-.68.54-1.12.71-1.58.91-2.43 1.89-4.85 2.69-7.32.34-1.06.85-1.44 1.9-1.3.46.06.93.01 1.59.01-.92 2.3-1.78 4.47-2.65 6.63-.81 2.02-1.7 4.01-2.42 6.06-.39 1.12-1.15 1.02-2.01 1.04-.82.03-1.28-.16-1.59-1.04-.82-2.26-1.81-4.46-3-6.64-.04.31-.1.62-.1.92-.01 3.29-.07 6.58.02 9.87.05 2.02-.43 3.61-2.48 4.38H2.57C1.38 32.83.51 31.99 0 30.79V2.56C.53 1.38 1.37.52 2.57 0h28.22zM15.56 15.21c-.45 1.88-.79 3.65-1.32 5.36-.23.73-.72 1.53-1.33 1.96-.63.44-1.54.46-2.33.66-.03-.69-.21-1.41-.06-2.06.65-2.9 1.4-5.79 2.16-8.86-1.93 0-3.72-.02-5.5.02-.22 0-.55.27-.62.49-.23.72-.37 1.46-.56 2.29.8.07 1.46.12 2.16.18-.05.33-.06.59-.12.83-.44 1.82-.94 3.64-1.33 5.47-.29 1.34-.26 2.73.93 3.65 1.18.91 2.55.93 3.87.23.6-.32 1.16-.72 1.82-1.14-.08.49-.13.85-.22 1.39.94 0 1.78-.05 2.62.01.77.06 1.06-.31 1.21-.99.26-1.21.53-2.42.86-3.61.44-1.6.84-3.22 1.47-4.74.49-1.18 1.69-1.62 2.61-1.26.99.39 1.29 1.28.9 2.72-.38 1.4-.85 2.78-1.13 4.2-.52 2.65 1.69 4.53 4.25 3.66 1.83-.62 2.54-2.12 3-3.95-.52-.2-.98-.37-1.48-.55-.29.56-.46 1.07-.77 1.45-.24.29-.66.42-1 .63-.11-.37-.38-.78-.31-1.12.25-1.21.7-2.38.9-3.59.2-1.24.41-2.55.23-3.77-.32-2.19-2.49-3.37-4.55-2.55-1.03.41-1.92 1.18-2.78 1.73.05-.4.12-.97.21-1.68-1.67 0-3.2-.02-4.73.02-.26.01-.65.27-.74.51-.26.7-.39 1.45-.61 2.31.83.03 1.5.06 2.29.1zm-4.47-4.63c1.25.03 2.24-.88 2.26-2.08.02-1.18-.99-2.17-2.19-2.17-1.15 0-2.14.92-2.19 2.04-.07 1.22.87 2.19 2.12 2.21zM99.57 25.66c-3.02.08-3.02.08-3.02-2.87 0-1.58.02-3.16-.01-4.74-.03-2.25-1.22-3.63-3.1-3.65-1.88-.02-3.31 1.44-3.38 3.61a97.55 97.55 0 0 0 0 6.4c.03 1.05-.39 1.31-1.35 1.3-.93-.01-1.53-.09-1.51-1.29.06-3.54.02-7.09.02-10.63 0-1.68.01-1.68 1.71-1.65.29.01.59.04.96.06.09.59.17 1.15.27 1.88.3-.23.51-.35.67-.51 3.05-3.09 7.26-2.01 8.46 2.17.04.15.17.29.26.43.02 3.16.02 6.33.02 9.49zM84.93 18.9c.01 4.06-3.12 7.17-7.24 7.2-3.99.03-7.28-3.14-7.31-7.04-.03-4.06 3.19-7.22 7.37-7.21 4.14.01 7.16 2.98 7.18 7.05zm-11.61-.03c-.02 2.59 1.92 4.72 4.34 4.76 2.47.04 4.41-2 4.43-4.64.02-2.57-1.96-4.67-4.42-4.68-2.44-.01-4.33 1.96-4.35 4.56zM52.23 24.07c.82-1.19 1.52-1.36 2.78-.98 1.04.32 2.14.47 3.23.58.91.09 1.75-.42 1.76-1.29 0-.58-.62-1.38-1.18-1.68-1.08-.57-2.32-.82-3.48-1.26-2.09-.8-2.83-1.92-2.67-3.97.13-1.64 1.35-2.92 3.2-3.37 2.3-.56 4.36.05 6.43 1.22-.76 1.21-1.74 1.47-3 1.16-.82-.2-1.7-.42-2.5-.29-.55.09-1.3.7-1.41 1.2-.1.44.45 1.28.93 1.53 1.08.58 2.29.9 3.45 1.34 2.12.82 3.14 2.15 2.97 3.83-.23 2.14-1.43 3.36-3.72 3.77-2.37.43-5.16-.31-6.79-1.79zM47.03 18.81c0-1.84.05-3.67-.02-5.5-.04-1.02.39-1.26 1.28-1.17.75.08 1.66-.29 1.64 1.09-.05 3.8-.05 7.6 0 11.39.01 1.25-.8 1.05-1.56 1.07-.79.03-1.41-.02-1.37-1.12.08-1.92.03-3.84.03-5.76zM67.97 19c0 1.83-.05 3.67.02 5.5.04 1.01-.41 1.25-1.3 1.2-.77-.05-1.57.12-1.56-1.1.03-3.83.02-7.67.01-11.5 0-1.31.95-.89 1.64-.96.72-.07 1.23.03 1.21.98-.06 1.95-.02 3.92-.02 5.88z" class="st0"/></g></svg>