<svg xmlns="http://www.w3.org/2000/svg" xml:space="preserve" style="enable-background:new 0 0 112.39 52.83" viewBox="0 0 112.39 52.83"><style>.st0{fill:#fff}.st1{font-family:&quot;Lato-Light&quot;}.st2{font-size:16.0459px}</style><g id="xd"><text transform="translate(64.551 20.842)"><tspan x="0" y="0" class="st0 st1 st2">Adobe </tspan><tspan x="0" y="19.25" class="st0 st1 st2">XD</tspan></text><path d="M45.02 0H9.69C4.33 0 0 4.29 0 9.59v33.64c0 5.31 4.33 9.59 9.69 9.59h35.33c5.36 0 9.69-4.29 9.69-9.59V9.59c0-5.3-4.34-9.59-9.69-9.59zm7.38 42.35c.02 4.52-3.66 8.2-8.22 8.22H10.55c-4.56 0-8.27-3.68-8.27-8.2V10.45c0-4.52 3.72-8.2 8.27-8.2h33.58c4.57 0 8.27 3.67 8.27 8.2v31.9zM21.63 24.72l6.38 12.15c.11.18.05.36-.14.36H23.9c-.25 0-.36-.07-.48-.29-1.46-2.98-2.94-5.96-4.47-9.17h-.05c-1.37 3.03-2.87 6.21-4.33 9.19-.11.18-.23.25-.41.25H10.4c-.23 0-.25-.18-.14-.32l6.25-11.78-6.04-11.92c-.14-.18 0-.32.14-.32h3.92c.23 0 .32.05.41.25 1.44 2.98 2.89 6.05 4.26 9.05h.05c1.32-2.98 2.78-6.07 4.19-9.03.11-.18.18-.29.41-.29h3.67c.18 0 .25.14.14.32l-6.03 11.55zm7.5 3.68c0-5.26 3.53-9.37 9.14-9.37.48 0 .73 0 1.19.05V13.1c0-.14.11-.23.23-.23h3.6c.18 0 .23.07.23.18v20.72c0 .61 0 1.38.11 2.21 0 .14-.05.18-.18.25-1.91.9-3.92 1.31-5.84 1.31-4.95.03-8.48-3-8.48-9.14zm10.33-5.78c-.32-.14-.77-.23-1.32-.23-2.87 0-4.88 2.19-4.88 5.82 0 4.15 2.05 5.82 4.63 5.82.55 0 1.14-.07 1.57-.25V22.62z" class="st0"/></g></svg>