<svg xmlns="http://www.w3.org/2000/svg" xml:space="preserve" style="enable-background:new 0 0 125.77 26.43" viewBox="0 0 125.77 26.43"><style>.st0{fill:#DAB279}</style><g id="codepen"><path d="M41.18 13.24c0 1.27-.01 2.54 0 3.81.01.6-.19 1.03-.63 1.36-3.34 2.52-6.68 5.06-10.01 7.6-.75.57-1.06.57-1.81 0-3.34-2.53-6.67-5.07-10.01-7.6-.44-.33-.64-.76-.64-1.36.01-2.56.01-5.11 0-7.67 0-.6.19-1.03.63-1.36 3.34-2.52 6.68-5.06 10.01-7.6.75-.57 1.06-.57 1.81 0 3.34 2.53 6.67 5.07 10.01 7.6.44.33.64.76.64 1.36-.01 1.29 0 2.57 0 3.86zm-20.03 4c2.48 1.88 4.89 3.71 7.29 5.54.05-.08.08-.11.08-.14.01-1.52.02-3.05 0-4.57 0-.14-.11-.34-.23-.42-1.21-.93-2.42-1.86-3.64-2.77-.1-.07-.31-.09-.41-.02-1.01.76-2.01 1.55-3.09 2.38zm9.58 5.6c2.51-1.91 4.92-3.74 7.38-5.6-1.08-.83-2.1-1.62-3.13-2.39-.09-.07-.3-.03-.41.05-1.19.89-2.38 1.79-3.56 2.7-.12.09-.27.26-.27.4-.02 1.57-.01 3.14-.01 4.84zm-6.3-11.16c1.31-1.01 2.62-2 3.9-3.02.12-.1.19-.36.19-.55.02-1.34.01-2.68.01-4.02 0-.13-.03-.26-.06-.45-2.46 1.87-4.86 3.69-7.32 5.56 1.15.86 2.21 1.66 3.28 2.48zm6.35-8.04c-.03.13-.06.19-.06.26 0 1.45-.01 2.9.01 4.35 0 .18.17.41.32.52.92.73 1.86 1.44 2.79 2.16.98.75.98.75 1.95.01.74-.57 1.49-1.13 2.29-1.75-2.45-1.88-4.86-3.7-7.3-5.55zm-4.36 9.54 1.57 1.2c.54.41 1.09 1.13 1.62 1.12.56-.01 1.12-.72 1.67-1.13.51-.38 1.01-.77 1.56-1.19-1.04-.81-2.02-1.57-3.01-2.31-.09-.07-.28-.08-.37-.02-1 .75-1.99 1.52-3.04 2.33zm-6.12-1.62v3.29c.75-.58 1.43-1.1 2.15-1.66-.73-.56-1.4-1.06-2.15-1.63zm18.64 3.29v-3.28c-.74.56-1.41 1.07-2.14 1.63.74.56 1.41 1.08 2.14 1.65zM46.59 13.17V5.88c0-1.08.39-1.53 1.32-1.53 1.76.01 3.52-.05 5.27.05 3.69.22 6.73 3.72 6.96 7.94.21 3.77-.99 6.72-3.89 8.65-1.14.76-2.41 1.07-3.73 1.08-1.54.01-3.07.01-4.61 0-.94 0-1.32-.45-1.32-1.52v-7.38zm2.21 6.37c1.43 0 2.82.08 4.21-.02 2.89-.21 4.98-2.9 4.99-6.3 0-3.39-2.09-6.11-4.97-6.32-1.34-.1-2.69-.04-4.03-.04-.06 0-.12.04-.19.06-.01 4.2-.01 8.38-.01 12.62zM115.32 9.46V20.6c0 .79-.24 1.24-.73 1.43-.68.25-1.34-.22-1.44-1.03-.02-.14-.01-.29-.01-.43V5.89c0-.51.06-.98.47-1.29.5-.39 1.15-.26 1.56.34 2.31 3.36 4.62 6.73 6.92 10.09.46.68.93 1.35 1.51 1.99V5.85c0-.82.28-1.29.85-1.43.65-.16 1.22.29 1.32 1.03.02.16.02.33.02.49 0 4.88.01 9.75-.01 14.63 0 .35-.06.74-.22 1.03-.39.73-1.3.68-1.81-.06-1.96-2.85-3.91-5.7-5.87-8.55l-2.43-3.54c-.05-.02-.09-.01-.13.01zM66.87 6.85v5.11h4.45c.64 0 1.03.3 1.18.87.22.86-.28 1.61-1.13 1.62-1.3.02-2.6 0-3.9 0h-.59v5.11H74c.19 0 .38 0 .57.05.51.12.84.63.83 1.22-.01.58-.33 1.06-.82 1.18-.17.04-.35.05-.52.05h-8.08c-.93 0-1.32-.45-1.32-1.52V5.86c0-1.08.39-1.52 1.32-1.52 2.72 0 5.45-.01 8.17 0 .89 0 1.41.72 1.2 1.6-.14.59-.54.89-1.21.9h-6.65c-.19.01-.38.01-.62.01zM99.18 6.85v5.08c.18.01.36.03.54.03h3.99c.44 0 .8.19 1.01.66.19.44.17.88-.06 1.29-.24.42-.61.55-1.03.54h-4.45v5.11h.55c2.25 0 4.5-.01 6.75 0 .85 0 1.35.67 1.18 1.53-.12.63-.52.97-1.2.97-1.57.01-3.14 0-4.7 0h-3.52c-.88 0-1.28-.46-1.28-1.46V5.81c0-1.01.4-1.48 1.26-1.48 2.74-.01 5.48 0 8.22 0 .77 0 1.23.46 1.25 1.22.02.78-.46 1.28-1.24 1.28-2.2.01-4.4 0-6.6 0-.2.02-.4.02-.67.02zM83 15.6v3.29c0 .6.01 1.2 0 1.79-.01.87-.43 1.4-1.09 1.4-.66 0-1.09-.53-1.09-1.4V7.9c0-.76-.01-1.52.01-2.28.02-.74.4-1.24 1.02-1.25 2.06-.02 4.12-.1 6.17.04 2.64.18 4.61 2.79 4.49 5.74-.12 3.06-2.22 5.39-4.91 5.41-1.43.01-2.85 0-4.28.01-.08-.01-.16.01-.32.03zm.03-2.55c1.52 0 2.97.01 4.43 0 1.64-.01 2.88-1.36 2.86-3.12-.01-1.75-1.23-3.07-2.85-3.08-1.33-.01-2.66 0-3.99 0-.15 0-.3.02-.45.03v6.17zM0 13.24c.14-3.73 1.49-6.63 4.55-8.11 3.08-1.49 6.01-1 8.58 1.57.51.51.62 1.18.32 1.75-.25.48-.81.72-1.29.5-.23-.11-.43-.31-.61-.5-2.28-2.37-6.15-2.07-8.09.64-2.01 2.8-1.55 7.18.96 9.29 2.09 1.76 5.08 1.57 7.16-.45.14-.14.29-.29.45-.39.49-.29 1.1-.1 1.39.4.31.53.24 1.23-.2 1.68-1.71 1.74-3.7 2.63-6 2.42-3.79-.33-6.44-3.08-7.1-7.36-.07-.47-.08-.96-.12-1.44z" class="st0"/></g></svg>