<svg xmlns="http://www.w3.org/2000/svg" xml:space="preserve" style="enable-background:new 0 0 51.45 91.09" viewBox="0 0 51.45 91.09"><style>.st0{fill:#fff}</style><g id="jenkins"><text class="st0" style="font-size:16.0459px;font-family:&quot;Lato-Light&quot;" transform="translate(0 88.11)">Jenkins</text><path d="M31.98 24.15c.04.04.11.06.18.07 1.18.11 2.33-.04 3.44-.45 1.01-.37 1.93-.91 2.83-1.48.14-.09.25-.18.26-.37.01-.15.08-.31.13-.46.08-.25.17-.5.23-.76.07-.32.01-.61-.27-.83-.21-.17-.42-.34-.6-.54-1.11-1.21-2.18-2.45-3.06-3.84-.37-.58-.74-1.16-.87-1.85-.02-.11-.09-.21-.15-.3-.07-.1-.17-.1-.28-.06-.1.04-.12.11-.12.21.03.27.03.55.08.82.14.89.51 1.69.98 2.45.7 1.11 1.55 2.11 2.41 3.1.17.19.34.39.48.61.2.31.19.64.09.98-.09.32-.27.55-.6.62-.01 0-.01 0-.01.01-.68.31-1.35.64-2.04.92-.67.28-1.37.45-2.11.39-.49-.04-.74-.23-.88-.7-.05-.17-.08-.34-.13-.51-.04-.16-.09-.31-.15-.48-.04.03-.05.04-.06.05-.51.66-.39 1.85.22 2.4zM35.52 28.1c-.7.01-1.41.03-2.11.04-1.02 0-2.04-.04-3.03-.32-1.08-.3-1.94-.86-2.41-1.93-.01-.03-.06-.08-.09-.08-.16.02-.33.04-.48.08-.12.04-.15.15-.09.26.06.1.13.21.22.29.33.3.6.65.84 1.01.15.22.31.43.47.64.49.64 1.12 1.06 1.92 1.21.76.14 1.52.16 2.28.09.61-.05 1.22-.14 1.81-.35.44-.16.68-.5.88-.93-.09-.01-.15-.01-.21-.01zM30.15 26.03c1.47.61 3.02.74 4.59.68.01 0 .03-.01.07-.03l-.09-1.55h-.25c-.81-.01-1.62 0-2.42-.04-.91-.04-1.81-.14-2.69-.39-.37-.1-.74-.24-1.12-.37.06.12.11.24.18.34.42.67 1.04 1.07 1.73 1.36zM26.54 16.11c-.23.24-.24.71.02.93.18.16.41.29.63.37.6.21 1.22.2 1.84.15.51-.04.92-.27 1.27-.63.17-.17.24-.37.27-.6.05-.45-.16-.79-.48-1.06-.52-.43-.86-.98-1.11-1.6-.16-.39-.33-.77-.5-1.15-.03-.06-.06-.12-.1-.18-.02 0-.04.01-.06.01-.01.22-.04.45-.02.67.05.62.29 1.19.56 1.75.21.42.44.82.68 1.26-.14.08-.28.17-.44.23-.32.12-.65.1-.98.05-.48-.07-.95-.15-1.43-.22-.04-.02-.12-.02-.15.02zM22.69 12.15c.03-.07.06-.14.1-.2.21-.37.4-.76.65-1.11.87-1.23 2.05-1.72 3.53-1.41.12.02.18 0 .23-.12.15-.36.03-.73-.34-.99-.47-.34-1.01-.42-1.56-.25-1.32.41-2.25 1.26-2.82 2.51-.12.26-.17.56-.21.84-.06.39.09.63.42.73zM39.49 23.42l-1.08.57c-.92.5-1.86.92-2.92 1.03-.11.01-.13.08-.13.15v1.44c.55-.01 1.05-.1 1.52-.29 1.41-.56 2.19-1.73 2.87-2.99a.138.138 0 0 1-.03-.04c-.07.06-.15.09-.23.13zM38.34 16.88c.94.09 1.73-.24 2.41-.88.05-.05.09-.11.13-.17.08-.09.08-.17 0-.28a4.23 4.23 0 0 1-.33-.53c-.42-.84-.82-1.69-1.23-2.53-.02-.04-.04-.09-.07-.13-.02-.03-.06-.05-.1-.07-.02.03-.05.06-.06.1-.01.06-.01.13-.01.2 0 .75.22 1.44.51 2.12.09.21.17.43.26.66-.15.05-.27.12-.4.14-.31.05-.62.07-.93.1-.32.04-.64.09-.96.13-.08.01-.13.06-.12.16.02.53.35.92.9.98zM13.68 17.85c-.89-.2-1.72.47-1.71 1.4.31-.22.52-.69 1.03-.45-.25.55-.3 1.11-.27 1.69.03.45.11.89.33 1.28.05.1.13.19.2.28.04-.06.04-.11.04-.15 0-.45-.01-.9 0-1.35.01-.35.05-.71.21-1.03.21-.41.64-.46.92-.1.12.16.21.34.31.52.12.23.23.46.36.69.06.11.16.19.28.33.09-.44.1-.82.03-1.2-.16-.93-.87-1.71-1.73-1.91zM45.1 48.24c-1.36.08-2.66.33-3.55 1.52.11.01.22.01.33 0 .45-.05.85-.25 1.24-.47.64-.38 1.25-.84 1.98-1.05zM43 51.83c-.29.03-.57.12-.81.36 1.34.1 2.65.12 3.99.1a.468.468 0 0 1-.06-.05c-1.01-.36-2.04-.54-3.12-.41zM42.75 50.24c-.19.07-.36.18-.5.37 1.2.08 2.36-.07 3.51-.22a6.22 6.22 0 0 0-1.91-.32c-.38 0-.75.03-1.1.17zM33.7 40.5a.5.5 0 0 0-.5-.49.5.5 0 0 0-.49.5c0 .27.22.49.5.48.28 0 .5-.22.49-.49zM34.2 42.81c0-.27-.23-.49-.49-.5-.27 0-.49.23-.49.49 0 .27.22.49.49.49.26.01.49-.21.49-.48z" class="st0"/><path d="M50.15 33.26c.05-1.95-.12-3.88-.52-5.79a25.15 25.15 0 0 0-2.79-7.39 25.493 25.493 0 0 0-4.38-5.64.307.307 0 0 1-.09-.19c-.04-.36-.06-.72-.1-1.08-.13-1.27-.35-2.53-.71-3.75-.34-1.13-.77-2.21-1.48-3.17-.78-1.05-1.68-2-2.63-2.89-1.14-1.08-2.4-1.94-3.89-2.46a16.53 16.53 0 0 0-4.17-.85c-1.5-.11-2.99-.04-4.47.19-1.66.27-3.23.85-4.76 1.52-.8.35-1.56.81-2.33 1.24-.97.53-1.95 1.06-2.83 1.75-1.08.84-1.89 1.87-2.25 3.21a.39.39 0 0 1-.23.27c-.14.06-.27.15-.39.24-.7.5-1.13 1.19-1.41 1.99-.31.86-.44 1.76-.47 2.67-.01.14-.04.25-.16.35a24.42 24.42 0 0 0-3.94 4.25c-3.08 4.26-4.68 9.03-4.83 14.28-.06 2.17.16 4.31.65 6.42.79 3.39 2.22 6.48 4.28 9.28 1.05 1.42 2.23 2.71 3.55 3.87.05.05.11.12.11.19.04.55.08 1.11.11 1.66.03.66.05 1.32.07 1.98.02.67.32 1.14.96 1.38.06.02.12.05.18.08.44.18.9.34 1.33.54 1.1.51 2.18 1.06 3.3 1.55 1.32.58 2.7.87 4.15.74.12-.01.14.05.16.13L20.8 62c.45 1.55.91 3.09 1.51 4.59.04.1.09.16.2.19.27.07.52.16.79.23 1.51.39 3.06.51 4.61.55 1.87.04 3.74-.07 5.6-.29.57-.07 1.12-.25 1.58-.61.4-.32.65-.69.53-1.25-.08-.39-.06-.8-.09-1.2.2-.04.36-.07.52-.11.48-.1.96-.21 1.39-.46.4-.24.65-.58.71-1.05.05-.42.02-.83-.06-1.23-.14-.71-.31-1.41-.46-2.11-.11-.52-.17-1.05-.12-1.59.02-.26.08-.45.38-.5.11-.01.21-.08.3-.12.3-.15.5-.39.48-.73-.01-.28.13-.37.34-.44.02-.01.04-.02.06-.02.85-.34 1.74-.41 2.64-.4.22 0 .37.04.48.26.19.38.49.61.94.61.03 0 .05.01.08.01 1.19.18 2.37.2 3.56-.01.93-.17 1.58-.66 2.01-1.49.35-.68.57-1.39.69-2.14.1-.63.15-1.26.01-1.89-.31-1.34-.75-2.64-1.29-3.91-.28-.67-.7-1.21-1.39-1.52.03-.06.05-.1.08-.14 2.07-3.72 3.16-7.71 3.27-11.97zM14.77 6.52c.9-1.03 2.01-1.81 3.2-2.46.98-.54 2.01-.98 3.08-1.28.09-.02.2-.03.28.01.24.12.26.26.05.46-.09.08-.23.1-.34.16-.13.07-.25.15-.37.23-.11.07-.21.16-.33.2-1.39.57-2.68 1.31-3.77 2.35-.35.34-.66.72-.99 1.08-.07.08-.16.15-.26.18-.43.15-.88.28-1.32.42-.04.01-.07.01-.13.02.23-.52.54-.96.9-1.37zm-3.03 5.93c.14-1.28.78-2.22 1.81-2.95 1.02-.73 2.16-1.12 3.4-1.23.04 0 .12.03.14.07.05.11.09.24.12.36.03.09.04.19.07.3-.32.07-.64.12-.94.2-.95.24-1.85.61-2.61 1.25-.92.78-1.44 1.78-1.62 2.95-.12.73-.1 1.46.01 2.18.01.05-.04.12-.08.17-.05.05-.12.07-.18.11h-.05c-.11-1.14-.19-2.27-.07-3.41zM15.35 31c-.49.39-1.05.67-1.58.98-1.71 1-3.45 1.94-5.06 3.1-.45.32-.97.5-1.44.77-.42.24-.77.54-.88 1.03-.09.4-.01.79.08 1.17.19.79.51 1.54.77 2.31.46 1.35 1.03 2.67 1.48 4.02.32.95.5 1.94.67 2.94.12.73.21 1.46.29 2.19 0 .02 0 .03-.01.1-4.05-4.16-6.4-9.09-6.84-14.85-.58-7.62 1.97-14.09 7.45-19.42.1.34.19.66.14 1a.79.79 0 0 1-.21.44c-.43.49-.57 1.1-.65 1.72-.26 1.92.15 3.71 1.15 5.35.72 1.18 1.78 1.92 3.14 2.19.11.02.16.06.17.17.06.76.28 1.49.58 2.19.18.42.47.78.69 1.18.16.29.3.57.3.91 0 .21-.08.38-.24.51zm2.06.17c-.93-1.65-1.63-3.38-1.98-5.25-.08-.43.01-.76.32-1.06.17-.16.33-.34.48-.52.19-.24.22-.51.11-.79-.04-.1-.09-.15-.2-.12-.2.07-.4.13-.6.22-.12.05-.22.15-.32.23-.64.59-1.36.57-2.1.23-.62-.29-1.07-.77-1.44-1.33-.58-.89-.94-1.86-.99-2.93-.06-1.44.93-2.79 2.3-3.13.37-.09.74-.11 1.11-.04.6.11.99.5 1.27 1.01s.43 1.07.55 1.64c.02.12.07.16.19.16.45 0 .9-.01 1.34-.15.06-.02.12-.04.17-.06.48-.25.59-.33.49-.83-.12-.58-.21-1.17-.38-1.74-.32-1.08-.29-2.15-.07-3.23.18-.88.37-1.76.52-2.65.16-.98.1-1.94-.27-2.87a.307.307 0 0 1 .02-.21c.38-.81.93-1.49 1.56-2.12 1.09-1.07 2.34-1.92 3.66-2.66.61-.34 1.22-.68 1.86-.96 1.02-.44 2.1-.55 3.2-.52 2.46.08 4.75.77 6.91 1.93.88.48 1.59 1.16 2.22 1.92.58.7 1.13 1.43 1.7 2.15.01.01.01.03.03.06-.18-.03-.34-.07-.51-.09-.54-.06-1.07 0-1.54.3-.5.32-.74.89-.61 1.43.01 0 .03 0 .04-.01.67-.55 1.43-.57 2.2-.3 1.32.47 2.12 1.4 2.41 2.78.17.83.24 1.67.28 2.51.04.91.1 1.81.1 2.72 0 2.74-.41 5.41-1.37 7.99a15.84 15.84 0 0 1-1.79 3.5c-.22.32-.44.64-.65.97-.54.86-1.24 1.54-2.12 2.06-1.19.7-2.43 1.26-3.78 1.56-1.61.36-3.15.17-4.65-.51-1.66-.76-3.03-1.87-4.17-3.27-.67-.83-1.29-1.7-1.94-2.55l-.11-.14c-.02 0-.03.01-.05.01.03.21.06.42.1.62.15.61.43 1.17.8 1.67.92 1.25 1.95 2.39 3.15 3.37.36.3.78.53 1.14.78-.17-.02-.38-.05-.59-.07-.46-.04-.91-.03-1.36.11-.3.1-.56.26-.73.53-.02.03-.08.07-.11.07-1.28-.09-2.56-.17-3.77-.64-.88-.32-1.55-.93-2.03-1.78zm12.37 8.97c1.54 2 2.38 4.31 3.36 6.6-2.39-.74-4.6-1.79-6.74-2.99.07-.38.23-.72.42-1.05.33-.54.77-.99 1.28-1.37.55-.41 1.11-.79 1.68-1.19zm-.61-5.87v-.06c.07 0 .14-.03.2-.01.6.22 1.22.23 1.84.12.78-.14 1.56-.33 2.33-.49.14-.03.28-.04.43-.03-.13.1-.26.19-.39.29-.41.32-.82.65-1.23.97-.04.03-.09.07-.14.07-.64.03-1.29.03-1.9-.2-.42-.15-.79-.38-1.14-.66zm2.76 7.33a9.68 9.68 0 0 0-1.29-2.07c-.02-.02-.03-.04-.05-.08.14-.17.28-.34.43-.5.02-.03.09-.04.12-.03.28.09.54.04.8-.08.15-.07.29-.14.43-.2.29-.13.57-.12.84.04.12.07.24.15.36.23.61.43.63.44 1.33.56-.15 2.31-.05 4.65-.77 6.92-.22-.45-.44-.89-.65-1.35-.51-1.13-1.01-2.29-1.55-3.44zm-12.29-7.81c.64.38 1.36.39 2.07.46.38.03.76.07 1.13.1.15.01.2.08.17.22l-.06.29c-.07.28-.14.55-.21.86-.2-.04-.41-.07-.62-.13-.62-.16-1.22-.37-1.78-.69-.24-.14-.47-.31-.67-.5-.22-.2-.21-.41-.03-.61zm12.7 32.13c-1.4.23-2.81.28-4.23.2a21.9 21.9 0 0 1-4.95-.83c-.1-.03-.14-.08-.17-.17-.87-2.7-1.57-5.45-2.09-8.24-.39-2.09-.69-4.2-.95-6.31-.04-.33-.07-.65-.11-1 .37-.07.73-.14 1.1-.19 1.29-.18 2.58-.38 3.87-.51 1.87-.2 3.75-.29 5.64-.17.89.06 1.77.21 2.65.31.11.01.16.06.17.17.08 1.01.19 2.03.24 3.04.08 1.48.14 2.96.28 4.43.09.92.11 1.86.15 2.79.06 1.26.09 2.52.18 3.78.05.7.18 1.38.27 2.08.01.05.01.1.03.2-.7.14-1.39.3-2.08.42zm4.54-3.62c0 .06-.04.15-.08.17-.59.22-1.19.43-1.84.42h-.15c-.08-1.74-.25-3.46-.21-5.17.42-.09.83-.2 1.24-.28.26-.05.27-.02.32.24.16.84.33 1.67.5 2.5.15.71.24 1.41.22 2.12zM35.1 46.1c-.13.18-.26.35-.39.53.35-1.25.55-2.51.66-3.78.1-1.05.16-2.1.23-3.16.01-.1.04-.16.13-.19.69-.27 1.34-.21 1.97.19.31.2.57.45.77.76.03.04.03.13.01.17-1.08 1.85-2.11 3.74-3.38 5.48zm4.95 8.38c0 .04-.01.09-.01.14-.53.12-1 .45-1.55.4-.31-2.11-.61-4.22-.93-6.37.46 0 .88-.01 1.3.01.07 0 .16.08.2.15.35.65.55 1.35.69 2.07.24 1.19.3 2.39.3 3.6zm7.11-6.77c.31.75.5 1.53.69 2.32.13.58.28 1.17.38 1.76.14.91-.03 1.77-.55 2.53-.38.55-.89.91-1.55 1.04-.83.16-1.67.24-2.51.12-.19-.03-.38-.08-.57-.13 0-.02 0-.04-.01-.06.17-.07.34-.16.53-.2.59-.13 1.18-.25 1.77-.37.21-.04.41-.1.62-.14v-.07c-.28-.06-.56-.17-.84-.17-.68-.02-1.36-.01-2.04.01-.64.02-1.27.05-1.91.08-.05 0-.11-.01-.18-.01-.04-.38-.07-.76-.11-1.14-.14-1.46-.26-2.91-.63-4.34-.1-.38-.1-.38.22-.61.55-.4 1.19-.61 1.82-.84.7-.26 1.4-.53 2.09-.79.1-.04.2-.1.29-.16.4-.27.82-.27 1.24-.08.59.25 1.01.66 1.25 1.25zm-1.24-3.83c-.22.42-.46.82-.7 1.24-.03.06-.07.1-.15.11-.9.06-1.75.31-2.58.62-.65.25-1.29.54-1.92.84l-.15.06-.01-.01c.16-.44.32-.89.48-1.33.91-2.53 1.7-5.1 2.47-7.67.18-.59.4-1.18.53-1.78.06-.24.09-.49.12-.73.08-.64-.21-1.14-.63-1.58-.41-.43-.88-.8-1.32-1.2-.71-.65-1.47-1.24-2.17-1.9-.19-.18-.37-.38-.53-.59a.615.615 0 0 1-.11-.57c.1-.37.27-.71.48-1.03.7-1.06 1.1-2.25 1.44-3.45.37-1.3.66-2.62.85-3.96.13-.88.22-1.75.28-2.64.03-.55.07-1.1.06-1.65.07 0 .09.05.12.08 1.26 1.39 2.34 2.9 3.24 4.54 1.09 1.99 1.88 4.09 2.36 6.31.21.97.36 1.95.46 2.94.11 1.09.12 2.19.08 3.28-.04 1.15-.18 2.3-.39 3.43a23.39 23.39 0 0 1-2.31 6.64z" class="st0"/></g></svg>