<svg xmlns="http://www.w3.org/2000/svg" xml:space="preserve" style="enable-background:new 0 0 97.1 100.38" viewBox="0 0 97.1 100.38"><style>.st0{fill:#fff}.st1{font-family:&quot;Lato-Light&quot;}.st2{font-size:16.0459px}</style><g id="dreamweaver"><text transform="translate(0 78.141)"><tspan x="0" y="0" class="st0 st1 st2">Adobe </tspan><tspan x="0" y="19.25" class="st0 st1 st2">Dreamweaver</tspan></text><path d="M45.02 0H9.69C4.33 0 0 4.29 0 9.59v33.64c0 5.31 4.33 9.59 9.69 9.59h35.33c5.36 0 9.69-4.29 9.69-9.59V9.59c0-5.3-4.34-9.59-9.69-9.59zm7.38 42.35c.02 4.52-3.66 8.2-8.22 8.22H10.55c-4.56 0-8.27-3.68-8.27-8.2V10.45c0-4.52 3.72-8.2 8.27-8.2h33.58c4.57 0 8.27 3.67 8.27 8.2v31.9z" class="st0"/><path d="M13.39 35.62c-.92-.02-1.84-.03-2.76-.05-.11 0-.21-.02-.32-.02-.11 0-.17-.07-.18-.17-.01-.1-.01-.2-.01-.3V17.49c.01-.14.07-.2.21-.21.14-.01.29-.03.44-.03 1.68-.02 3.35-.05 5.03-.05 1.2 0 2.38.15 3.52.52 1.99.64 3.53 1.84 4.55 3.67.49.88.78 1.82.94 2.81.16.96.19 1.93.12 2.91-.15 1.82-.68 3.5-1.81 4.96-1.19 1.53-2.74 2.55-4.59 3.11-.98.29-1.99.43-3.02.43-.72.01-1.42 0-2.12.01zm.39-3.49c.04.01.06.02.09.02.59.02 1.19.07 1.78.07.86 0 1.68-.19 2.46-.54 1.37-.63 2.22-1.71 2.68-3.12.19-.57.29-1.17.34-1.77.08-.95.02-1.88-.26-2.79-.43-1.45-1.33-2.48-2.74-3.04-.75-.3-1.54-.45-2.35-.45-.62 0-1.23.02-1.85.04-.06 0-.11.02-.17.02.02 3.86.02 7.71.02 11.56zM34.99 25.53c-.06.25-.12.5-.17.75-.6 2.95-1.35 5.86-2.08 8.78-.01.05-.03.1-.04.15-.04.1-.11.16-.22.17h-3.22c-.28 0-.36-.06-.43-.34-.36-1.41-.71-2.82-1.07-4.23l-2.25-8.92c-.02-.06-.04-.13-.05-.19-.02-.12.01-.17.14-.19.05-.01.11-.01.16-.01h3.16c.21.01.26.04.3.24.11.46.22.93.31 1.39.33 1.58.67 3.16.97 4.74.23 1.17.41 2.36.62 3.54.01.05.03.11.08.16.02-.05.04-.09.04-.14.11-.62.22-1.25.34-1.87.36-1.75.72-3.5 1.1-5.24.17-.78.38-1.55.58-2.33l.09-.35c.03-.1.08-.16.2-.15h3.36c.19 0 .21.02.25.21.34 1.54.68 3.07 1 4.61.19.93.37 1.85.54 2.78.13.73.24 1.47.37 2.21.02.12-.01.25.09.39.03-.09.05-.15.06-.21.09-.51.17-1.02.26-1.52.18-.99.37-1.98.55-2.96.32-1.75.73-3.48 1.12-5.22.01-.05.03-.1.04-.15.03-.11.11-.16.22-.16H44.33c.26 0 .31.07.24.31-.2.73-.41 1.47-.61 2.2L40.87 35c-.01.03-.02.06-.03.1-.09.27-.12.29-.41.29h-2.98c-.31 0-.37-.04-.44-.34-.24-1.05-.49-2.1-.71-3.15-.36-1.74-.7-3.49-1.05-5.23-.07-.34-.12-.69-.18-1.04a.292.292 0 0 1-.02-.09c-.03 0-.04-.01-.06-.01z" class="st0"/></g></svg>