<svg xmlns="http://www.w3.org/2000/svg" xml:space="preserve" style="enable-background:new 0 0 63.97 61.54" viewBox="0 0 63.97 61.54"><style>.st0{fill:#fff}</style><g id="vanillajs"><text class="st0" style="font-size:16.0459px;font-family:&quot;Lato-Light&quot;" transform="translate(-.433 58.556)">Vanilla JS</text><path d="M13.4 37.17V0h37.17v37.17H13.4zm22.08-6.51c.57 1.1 1.34 1.98 2.4 2.57 2.11 1.18 4.33 1.3 6.6.56 1.1-.36 1.98-1.04 2.55-2.06.47-.84.61-1.74.57-2.69-.06-1.44-.61-2.63-1.75-3.54-.81-.65-1.72-1.1-2.66-1.52-.66-.29-1.32-.57-1.96-.89-.31-.15-.6-.36-.85-.59-.65-.6-.66-2.13.65-2.51.42-.12.84-.11 1.26 0 .59.14 1 .53 1.33 1.02.09.12.16.25.25.39.91-.58 1.8-1.16 2.7-1.73-.01-.03-.01-.05-.02-.06-.58-1.01-1.34-1.84-2.44-2.29-1.34-.55-2.73-.6-4.12-.25-2.11.53-3.43 2.2-3.47 4.34-.03 1.81.67 3.26 2.19 4.25.57.38 1.19.68 1.81.98.7.34 1.43.61 2.12.96.36.18.72.41 1.02.69.43.38.53.91.41 1.46-.14.63-.58 1.01-1.17 1.19-1.45.43-2.76.18-3.84-.94-.28-.29-.51-.63-.77-.97-.92.54-1.86 1.08-2.81 1.63zm-12.32.37c.02.04.02.07.04.1.57 1.16 1.41 2.06 2.6 2.58 1.55.67 3.15.7 4.74.18 1.36-.44 2.26-1.37 2.72-2.73.26-.76.33-1.54.33-2.33V17.28c0-.07-.01-.14-.01-.2H30.1V28.79c0 .31-.02.61-.07.91-.07.48-.24.94-.7 1.16-.74.36-1.49.37-2.2-.09-.36-.23-.6-.58-.82-.94-.11-.17-.2-.34-.31-.52-.96.59-1.9 1.15-2.84 1.72z" class="st0"/></g></svg>