<svg xmlns="http://www.w3.org/2000/svg" xml:space="preserve" style="enable-background:new 0 0 136.48 55.19" viewBox="0 0 136.48 55.19"><style>.st0{fill:#fff}.st1{font-family:&quot;Lato-Light&quot;}.st2{font-size:16.0459px}</style><g id="aem"><text transform="translate(57.172 13.7)"><tspan x="0" y="0" class="st0 st1 st2">Adobe </tspan><tspan x="0" y="19.25" class="st0 st1 st2">Experience </tspan><tspan x="0" y="38.51" class="st0 st1 st2">Manager</tspan></text><path d="M38.06 23.51c-.7-.56-.78-1.04-.62-1.85.8-4.13-2.79-7.65-6.83-6.69-.74.17-1.13.07-1.62-.57-2.24-2.93-6.41-2.9-8.55.06-.44.61-.79.6-1.43.46-3.78-.85-7.43 2.17-7.13 5.87.05.61.21 1.21.33 1.91-2.2 1.12-3.23 2.85-2.95 5.25.19 1.63.9 3.06 2.14 4.15.47.41.58.73.47 1.37-.77 4.37 2.83 7.85 7.15 6.9.67-.15.94.05 1.3.53 1.04 1.38 2.43 2.08 4.19 2.09 2.2.01 3.91-.8 4.93-2.76 5.7 1.23 8.37-1.5 7.78-7.87.3-.23.62-.45.92-.7 2.51-2.18 2.51-6.1-.08-8.15zm-7.24-7.12c2.75-.78 5.25 1.23 5.25 4.23 0 1.82-.28 2.05-2.04 1.65-2.36-.54-3.86-2.26-4.09-4.62-.05-.7.21-1.07.88-1.26zm-9.77-1.59c.86-1.39 2.14-2.08 3.79-1.99 1.81.1 3.07 1.05 4.06 2.65-.48.42-.85.75-1.23 1.08-2.39 2.11-4.86 1.25-6.67-.56-.2-.19-.13-.87.05-1.18zm-3.47 1.33c1.89 0 2.27.48 1.86 2.29-.55 2.38-2.59 4.03-5.06 3.98-.35-.01-.9-.44-1.02-.8-.89-2.6 1.36-5.47 4.22-5.47zm-5.3 15.76c-1.59-1.18-2.33-2.83-2.33-4.75 0-1.72.86-3 2.57-3.7 3.11 3.48 3.06 5.49-.24 8.45zm5.75 7.4c-2.37.31-4.5-1.62-4.68-4.24-.01-.19 0-.39 0-.68-.2-1.05.38-1.3 1.4-1.23 2.67.18 4.36 1.76 4.65 4.45.12 1.11-.24 1.55-1.37 1.7zm6.4 3.16c-1.73-.02-3.07-.91-3.87-2.5 2.44-3.13 5.53-3.15 8.24-.04-.97 1.67-2.48 2.56-4.37 2.54zm4.68-4.41c-2.92-2.58-5.88-2.69-8.8-.11-1.08-4.11-1.26-4.28-6.28-5.67 2.63-2.86 3.24-5.85.51-8.67 1.4-.73 2.94-1.17 3.94-2.15 1.01-.99 1.5-2.52 2.24-3.87 2.62 2.41 5.49 1.99 8.47-.32.21 3.86 2.4 5.46 6.09 5.75-3.02 3.03-2.4 6.06-.21 9.16-3.96.78-5.41 2.19-5.96 5.88zm2.49 1.08c-1.74-.02-2.19-.67-1.43-2.21.92-1.88 2.07-3.51 4.31-4.05.93-.22 1.27.17 1.49.94.78 2.65-1.44 5.36-4.37 5.32zm5.34-7.33c-3.12-2.31-3.1-5.66.07-8.32 1.56.89 2.43 2.28 2.45 4.05.02 1.88-.9 3.32-2.52 4.27z" class="st0"/><path d="M48.6 22.17C46.27 12.05 38.04 4.56 27.78 3.2l-1.53-.21h-3.28l-1.53.21C7.95 4.98-1.55 17.32.21 30.8 1.95 44.2 14.4 53.76 27.78 51.99c10.05-1.34 18.2-8.57 20.69-18.41.35-1.37.51-2.78.76-4.18v-3.61c-.22-1.21-.36-2.43-.63-3.62zM24.62 49.64c-12.2 0-22.07-9.84-22.07-22.04C2.54 15.41 12.4 5.56 24.6 5.55c12.2-.01 22.06 9.84 22.07 22.03.01 12.19-9.85 22.05-22.05 22.06z" class="st0"/></g></svg>