<svg xmlns="http://www.w3.org/2000/svg" xml:space="preserve" style="enable-background:new 0 0 60.63 57.6" viewBox="0 0 60.63 57.6"><style>.st0{fill:#fff}</style><g id="zeplin"><path d="M28.23 6.51c.27-1.37.48-2.67.79-3.94.15-.62.43-1.23.77-1.77.6-.95 1.57-1.1 2.25-.21.7.91 1.18 1.99 1.69 3.02.25.51.36 1.1.53 1.65-.07.03-.13.06-.2.09-.08-.13-.2-.25-.25-.39-.32-.82-.59-1.66-.94-2.46-.22-.49-.5-.97-.83-1.4-.78-.99-1.67-.94-2.15.21-.45 1.08-.82 2.25-.95 3.42-.56 4.73-.41 9.47 0 14.21.02.27.12.57.27.79 1.41 1.92 2.85 3.83 4.27 5.75.3.4.6.47 1.06.3 4.75-1.67 9.28-3.78 13.22-6.96 1.1-.89 2.1-1.93 3.05-2.98.92-1.03 1.55-2.26 1.69-3.89.42 1.95.02 3.57-.66 5.13-1.38 3.17-3.74 5.51-6.45 7.53-.85.64-1.75 1.21-2.66 1.76-.42.26-.46.49-.3.94.39 1.09.75 2.2 1.02 3.33.12.48.05 1.03-.06 1.53-.18.82-.88 1.21-1.72 1.03-1.53-.33-2.67-1.33-3.82-2.3-.33-.27-.65-.55-1.04-.88-.22 1.26-.35 2.41-.62 3.53-.18.74-.46 1.49-.85 2.15-.65 1.1-1.8 1.26-2.56.25-.78-1.04-1.38-2.24-1.87-3.45-.7-1.69-.62-1.66-2.44-1.47-3.52.36-6.99.09-10.3-1.27-1.59-.65-2.93-1.66-3.93-3.08-.07-.09-.1-.21-.18-.39 3.94 2.59 8.18 2.01 12.4 1.51.77-.09 1.53-.28 2.29-.42.46-.08.63-.29.56-.81-.32-2.2-.58-4.42-.89-6.62-.05-.34-.25-.67-.43-.97-1.45-2.45-2.99-4.86-4.36-7.36-1.1-2.02-1.98-4.16-2.37-6.46a4.02 4.02 0 0 1-.06-.69c.03-1.39.87-2.02 2.17-1.51.74.29 1.44.72 2.07 1.2.96.7 1.82 1.52 2.79 2.35zm.06 11.69c0-.35.01-.64 0-.92-.08-2.46-.48-4.97-.15-7.37.36-2.53-.72-3.96-2.54-5.19-.83-.56-1.69-1.1-2.6-1.5-.78-.33-1.42.15-1.39 1.01.02.79.1 1.62.37 2.36 1.47 4.13 3.71 7.85 6.11 11.5.01.03.07.04.2.11zm8.12 11.17c-2 .52-3.8.98-5.85 1.51.76 1.59 1.35 3.14 2.2 4.53.74 1.2 1.87 1.07 2.42-.22.45-1.05.69-2.2.94-3.33.18-.79.2-1.61.29-2.49zm.29-.11c1.45 1.43 2.79 2.84 4.68 3.49 1.02.35 1.72-.12 1.75-1.17.05-1.67-.61-3.16-1.26-4.63-1.73.77-3.37 1.51-5.17 2.31zm-3.49-3.07c-1.41-1.86-2.69-3.55-4.07-5.39.13 1.08.22 1.97.34 2.86.13.92.26 1.84.45 2.75.04.21.35.54.47.52.91-.19 1.79-.46 2.81-.74zM58.05 52.9v-5.66h2.58V57.6c-.81 0-1.58.03-2.34-.02-.2-.01-.44-.24-.56-.43-.98-1.49-1.94-3.01-2.9-4.51-.15-.24-.31-.47-.62-.67v5.57h-2.6V47.21c.79 0 1.58-.03 2.37.02.19.01.41.28.53.48.98 1.52 1.94 3.06 2.91 4.59.14.21.28.42.42.64.07-.02.14-.03.21-.04zM3.95 55.13h4.51v2.41H.09c-.2-1.38-.14-2.56.98-3.63 1.32-1.26 2.45-2.73 3.77-4.24H.09v-2.43h8.39c.11 1.3.21 2.51-.89 3.57-1.09 1.06-2 2.32-2.98 3.49-.2.23-.38.48-.66.83zM12.03 57.55V47.24h7.76v2.39h-4c-1.12 0-1.14.04-.89 1.31h2.96v2.45c-.83 0-1.63.04-2.42-.01-.85-.05-.62.54-.66.99-.04.51.03.83.69.8 1.42-.05 2.84-.01 4.32-.01v2.39h-7.76zM25.98 54.19v3.34h-2.86V47.27c.14-.02.31-.08.48-.08 1.58-.01 3.16-.02 4.74 0 1.83.03 3.32 1.49 3.39 3.28.07 1.97-1.2 3.54-3.08 3.71-.85.08-1.7.01-2.67.01zm1.06-2.17c.26 0 .52.02.78 0 .76-.06 1.29-.58 1.31-1.27.02-.7-.46-1.25-1.24-1.33-.54-.06-1.08-.01-1.63-.03-.43-.01-.62.16-.59.6.02.23 0 .47 0 .7.02 1.56-.17 1.31 1.37 1.33zM34.82 47.23h2.79v7.89h4.53v2.42h-7.32V47.23zM48.01 57.56h-2.68v-10.3h2.68v10.3z" class="st0"/><path d="M29.94 9.65c9.5-3.4 18.78-2.52 22.6 1.74-.07-.35-.16-.7-.28-1.04-2.22-6.2-12.78-8.1-23.58-4.23S10.91 18.15 13.13 24.35c.12.34.27.67.44.99.25-5.72 6.87-12.29 16.37-15.69z" class="st0"/><path d="M19.42 30.2c-2.79-1.03-4.82-2.76-5.66-5.11-.85-2.38-.35-5.04 1.19-7.64L6.34 20.6l4.87 5.49-.1 7.14 8.31-3.03zm-7.78-4.12 1.17-.3 4.74 4.68-5.91 2.08v-6.46z" class="st0"/><path d="m52.62 11.64-38.88 14.1-.14-.4 38.87-14.1z" class="st0"/></g></svg>