<svg xmlns="http://www.w3.org/2000/svg" xml:space="preserve" style="enable-background:new 0 0 53.78 65.19" viewBox="0 0 53.78 65.19"><style>.st0{fill:#fff}</style><g id="angular"><text class="st0" style="font-size:16.0459px;font-family:&quot;Lato-Light&quot;" transform="translate(0 62.208)">Angular</text><path d="M26.89 42.8c-.79-.44-1.58-.87-2.36-1.31-4.76-2.64-9.52-5.28-14.29-7.91-.19-.1-.27-.22-.29-.44-.1-1-.23-1.99-.34-2.99-.11-.98-.22-1.96-.34-2.93-.11-.99-.23-1.97-.34-2.96-.11-.98-.22-1.96-.34-2.93-.11-.99-.23-1.97-.34-2.96-.11-.98-.22-1.96-.34-2.93-.11-.99-.23-1.97-.34-2.96l-.33-2.91L7 7.49c-.02-.13-.02-.26-.04-.41.09-.03.16-.07.24-.1C13.69 4.66 20.18 2.35 26.67.03c.16-.06.3-.05.45.01 6.2 2.21 12.41 4.43 18.61 6.64.35.13.7.25 1.08.39-.02.23-.04.45-.07.67-.14 1.18-.27 2.35-.41 3.53l-.45 3.87-.39 3.4c-.17 1.44-.34 2.87-.5 4.31l-.39 3.4c-.17 1.44-.34 2.87-.5 4.31-.1.83-.19 1.66-.28 2.49-.01.07-.03.14-.03.21.01.16-.08.23-.21.3-1.21.66-2.41 1.33-3.61 2-4.27 2.37-8.55 4.73-12.82 7.1-.07.04-.15.08-.26.14zm.01-38.11c-.29.51-12.42 27.76-12.45 27.97h4.36c.28 0 .25.02.35-.24.77-1.92 1.53-3.83 2.3-5.75.11-.27.05-.27.39-.27h10.28c.84 2.1 1.67 4.17 2.5 6.24.44.05 4.44.03 4.66-.03-4.11-9.29-8.24-18.58-12.39-27.92z" class="st0"/><path d="M26.91 13.87c1.19 2.87 2.39 5.74 3.59 8.64h-7.24c1.2-2.9 2.4-5.77 3.59-8.63.03 0 .04-.01.06-.01z" class="st0"/></g></svg>