<svg xmlns="http://www.w3.org/2000/svg" xml:space="preserve" style="enable-background:new 0 0 53.75 46.06" viewBox="0 0 53.75 46.06"><style>.st0{fill:#fff}</style><g id="less"><text class="st0" style="font-size:16.0459px;font-family:&quot;Lato-Light&quot;" transform="translate(9.644 43.078)">LESS</text><path d="M4.48 22.98c-.06-.23-.27-.19-.43-.24-1.15-.31-1.7-1.11-1.91-2.23-.29-1.55 0-3.08.08-4.62.02-.41.08-.83.07-1.24-.03-1-.51-1.57-1.46-1.9-.28-.1-.77.09-.81-.35-.06-.64-.02-1.3.03-1.95.02-.21.3-.12.46-.16 1.34-.34 1.83-.96 1.77-2.36-.03-.95-.14-1.89-.21-2.84-.03-.44-.06-.89-.06-1.33C2.04.96 2.98.03 5.79.02c1.7 0 3.4.03 5.1-.02.71-.02.92.19.92.9-.03 4.51-.02 9.03-.01 13.54 0 .72-.18 1.58 1.01 1.59.21 0 .22.25.24.42.06.41.13.82.19 1.23.18 1.29.18 1.29-1.1 1.43-2.65.29-4.18-.96-4.25-3.66-.08-3.23-.03-6.47-.04-9.71 0-.74.08-1.5-.03-2.22-.07-.49.6-1.41-.67-1.41-1.56 0-1.94.24-1.97 1.5 0 1.05.06 2.09.09 3.13.01.53.06 1.07.05 1.6-.03 1.38-.3 2.63-2.12 3.11 1.79.48 2.12 1.7 2.12 3.07 0 1.51-.11 3.03-.12 4.54-.01 1.37.19 1.58 1.52 1.77.22.03.45.02.43.31-.04.61.15 1.24-.15 1.83-.85.01-1.68.01-2.52.01zM46.58 22.98c.01-.21.03-.42.01-.62-.05-.86-.16-1.69 1.17-1.69.64 0 .78-.68.78-1.23 0-1.16-.05-2.31-.07-3.47-.01-.68-.04-1.37 0-2.04.07-1.19.54-2.12 2.05-2.5-2.1-.67-2.12-2.23-2.09-3.8.03-1.34.12-2.67.12-4 .01-1.21-.21-1.42-1.44-1.53-.37-.03-.55-.11-.52-.51.03-.35.03-.71 0-1.07-.03-.42.18-.52.54-.51.71.03 1.43-.03 2.14.1 1.41.25 2.09.91 2.34 2.3.29 1.61-.01 3.2-.11 4.79-.04.56-.13 1.12.03 1.68.26.91.91 1.34 2.21 1.44v2.32c-1.76.17-2.37.84-2.28 2.59.07 1.33.25 2.66.26 3.99.02 2.26-.47 2.94-2.46 3.75-.89.01-1.78.01-2.68.01z" class="st0"/><path d="M20.35 13.31c-1.07 0-2.15.03-3.22-.01-.65-.03-.78.17-.56.77.6 1.64 2.25 2.4 4.37 1.96.15-.03.28-.09.43-.12.49-.08 1.06-.71 1.35-.44.53.51.81 1.29 1.2 1.96.17.29-.09.36-.25.46-3.3 1.98-7.22 1.6-9.37-.82-2.29-2.57-2.25-7.26.14-9.75 1.81-1.89 4.04-2.5 6.54-1.66 2.4.81 3.28 2.77 3.55 5.1.07.59-.01 1.19.02 1.78.03.64-.27.8-.87.78-1.12-.04-2.22-.01-3.33-.01zm-1.57-2.45c.56 0 1.13-.05 1.69.01.72.08.78-.27.67-.83-.21-1.04-.89-1.67-1.94-1.77-1.15-.11-2.11.58-2.56 1.78-.21.56-.23.89.53.82.53-.05 1.07-.01 1.61-.01zM30.7 19.27c-2.12.02-3.65-.5-5.08-1.38-.51-.31-.57-.6-.17-1.02.06-.06.1-.15.15-.22.37-.54.63-1.31 1.14-1.55.49-.22 1.02.53 1.59.76.82.34 1.66.48 2.54.33.47-.08.85-.31.98-.8.14-.52-.18-.84-.56-1.11-.62-.43-1.33-.66-2.03-.92-.76-.29-1.48-.63-2.12-1.13-1.85-1.47-1.88-4.12-.08-5.66 2.02-1.72 6.18-1.58 8.08.27.19.18.25.31.08.52-.09.1-.15.2-.22.3-.39.52-.69 1.22-1.21 1.52-.61.35-1.08-.48-1.69-.64-.62-.16-1.23-.27-1.85-.15-.43.08-.79.29-.88.78-.09.48.14.83.54 1.02.61.3 1.25.54 1.88.81.6.26 1.23.47 1.79.79 2.65 1.54 2.62 5.19-.05 6.71-1 .58-2.11.79-2.83.77z" class="st0"/><path d="M41.37 19.28c-2.25 0-3.78-.52-5.19-1.42-.41-.27-.54-.51-.17-.89.02-.02.03-.05.05-.07.41-.59.69-1.37 1.25-1.7.66-.39 1.16.54 1.8.74.82.26 1.62.42 2.46.26.46-.09.84-.32.94-.83.09-.48-.17-.79-.53-1.04-.62-.43-1.33-.66-2.03-.93-.79-.3-1.54-.65-2.19-1.18-1.75-1.43-1.84-3.91-.2-5.47 1.97-1.88 6.38-1.79 8.28.15.21.21.18.33.02.51-.1.11-.18.24-.27.36-.38.5-.66 1.16-1.16 1.45-.6.35-1.02-.48-1.6-.63-.59-.15-1.16-.27-1.76-.2-.51.06-.93.28-1.05.82-.11.52.23.86.64 1.06.61.3 1.26.53 1.89.81.57.25 1.17.46 1.7.77 2.6 1.55 2.55 5.14-.09 6.66-1.03.57-2.16.78-2.79.77z" class="st0"/></g></svg>